<?xml version="1.0" encoding="utf-8"?>
<!-- Generator: Adobe Illustrator 22.1.0, SVG Export Plug-In . SVG Version: 6.00 Build 0)  -->
<svg version="1.1" id="Layer_1" xmlns="http://www.w3.org/2000/svg" xmlns:xlink="http://www.w3.org/1999/xlink" x="0px" y="0px"
	 viewBox="0 0 108.8 86.1" style="enable-background:new 0 0 108.8 86.1;" xml:space="preserve">
<style type="text/css">
	.st0{fill:url(#SVGID_1_);}
	.st1{fill:url(#SVGID_2_);}
	.st2{fill:url(#SVGID_3_);}
	.st3{fill:url(#SVGID_4_);}
	.st4{fill:url(#SVGID_5_);}
	.st5{fill:url(#SVGID_6_);}
	.st6{fill:url(#SVGID_7_);}
	.st7{fill:url(#SVGID_8_);}
	.st8{fill:url(#SVGID_9_);}
	.st9{fill:url(#SVGID_10_);}
	.st10{fill:url(#SVGID_11_);}
	.st11{fill:url(#SVGID_12_);}
	.st12{fill:url(#SVGID_13_);}
	.st13{fill:url(#SVGID_14_);}
	.st14{fill:url(#SVGID_15_);}
	.st15{fill:url(#SVGID_16_);}
	.st16{fill:url(#SVGID_17_);}
	.st17{fill:url(#SVGID_18_);}
	.st18{fill:url(#SVGID_19_);}
	.st19{fill:url(#SVGID_20_);}
	.st20{fill:url(#SVGID_21_);}
	.st21{fill:url(#SVGID_22_);}
	.st22{fill:url(#SVGID_23_);}
	.st23{fill:url(#SVGID_24_);}
	.st24{fill:url(#SVGID_25_);}
	.st25{fill:url(#SVGID_26_);}
	.st26{fill:url(#SVGID_27_);}
	.st27{fill:url(#SVGID_28_);}
	.st28{fill:url(#SVGID_29_);}
	.st29{fill:url(#SVGID_30_);}
	.st30{fill:url(#SVGID_31_);}
	.st31{fill:url(#SVGID_32_);}
	.st32{fill:url(#SVGID_33_);}
	.st33{fill:url(#SVGID_34_);}
	.st34{fill:url(#SVGID_35_);}
	.st35{fill:url(#SVGID_36_);}
	.st36{fill:url(#SVGID_37_);}
	.st37{filter:url(#Adobe_OpacityMaskFilter);}
	.st38{fill:url(#SVGID_39_);}
	.st39{opacity:0.38;mask:url(#SVGID_38_);}
	.st40{fill:url(#SVGID_40_);}
</style>
<g>
	<g>
		<linearGradient id="SVGID_1_" gradientUnits="userSpaceOnUse" x1="1.500000e-03" y1="48.5966" x2="108.7813" y2="48.5966">
			<stop  offset="0.375" style="stop-color:#FFFFFF"/>
			<stop  offset="1" style="stop-color:#FFFFFF"/>
		</linearGradient>
		<path class="st0" d="M3.6,11.1c-2,0-3.6,1.4-3.6,3.1c0,17.4,0,39.8,0,57.4c0,2.3,1.6,4.2,3.6,4.2C57,76.4,108.8,91.7,108.8,84
			c0-19.2,0-45.5,0-64.7C108.8,11.4,57,11.1,3.6,11.1z"/>
		<linearGradient id="SVGID_2_" gradientUnits="userSpaceOnUse" x1="1.500000e-03" y1="48.3743" x2="108.2215" y2="48.3743">
			<stop  offset="0.375" style="stop-color:#F9F9F9"/>
			<stop  offset="1" style="stop-color:#FDFDFD"/>
		</linearGradient>
		<path class="st1" d="M3.6,11.1c-2,0-3.6,1.4-3.6,3.1c0,17.4,0,39.8,0,57.4c0,2.3,1.6,4.2,3.6,4.2c53.1,0.3,104.6,15.3,104.6,7.8
			c-0.1-19-0.1-45.1,0-64.1C108.2,11.8,56.7,11.1,3.6,11.1z"/>
		<linearGradient id="SVGID_3_" gradientUnits="userSpaceOnUse" x1="1.500000e-03" y1="48.1682" x2="107.6616" y2="48.1682">
			<stop  offset="0.375" style="stop-color:#F3F3F3"/>
			<stop  offset="1" style="stop-color:#FAFAFA"/>
		</linearGradient>
		<path class="st2" d="M3.6,11.1c-2,0-3.6,1.4-3.6,3.1c0,17.4,0,39.8,0,57.4c0,2.3,1.6,4.2,3.6,4.2c52.8,0.3,104.1,14.8,104,7.4
			c-0.1-18.8-0.1-44.7,0-63.5C107.7,12.3,56.5,11.1,3.6,11.1z"/>
		<linearGradient id="SVGID_4_" gradientUnits="userSpaceOnUse" x1="1.500000e-03" y1="47.9624" x2="107.1018" y2="47.9624">
			<stop  offset="0.375" style="stop-color:#EDEDED"/>
			<stop  offset="0.8367" style="stop-color:#F4F4F4"/>
			<stop  offset="1" style="stop-color:#F8F8F8"/>
		</linearGradient>
		<path class="st3" d="M3.6,11.1c-2,0-3.6,1.4-3.6,3.1c0,17.4,0,39.8,0,57.4c0,2.3,1.6,4.2,3.6,4.2c52.5,0.3,103.5,14.2,103.5,7.1
			c-0.1-18.6-0.1-44.3,0-62.9C107.1,12.7,56.2,11.1,3.6,11.1z"/>
		<linearGradient id="SVGID_5_" gradientUnits="userSpaceOnUse" x1="1.500000e-03" y1="47.7568" x2="106.5419" y2="47.7568">
			<stop  offset="0.375" style="stop-color:#E7E7E7"/>
			<stop  offset="0.7491" style="stop-color:#EEEEEE"/>
			<stop  offset="1" style="stop-color:#F6F6F6"/>
		</linearGradient>
		<path class="st4" d="M3.6,11.1c-2,0-3.6,1.4-3.6,3.1c0,17.4,0,39.8,0,57.4c0,2.3,1.6,4.2,3.6,4.2c52.3,0.3,102.9,13.6,102.9,6.7
			c-0.1-18.4-0.1-43.9,0-62.2C106.6,13.1,55.9,11.2,3.6,11.1z"/>
		<linearGradient id="SVGID_6_" gradientUnits="userSpaceOnUse" x1="1.500000e-03" y1="47.5514" x2="105.982" y2="47.5514">
			<stop  offset="0.375" style="stop-color:#E1E1E1"/>
			<stop  offset="0.6937" style="stop-color:#E8E8E8"/>
			<stop  offset="1" style="stop-color:#F4F4F4"/>
		</linearGradient>
		<path class="st5" d="M3.6,11.1c-2,0-3.6,1.4-3.6,3.1c0,17.4,0,39.8,0,57.4c0,2.3,1.6,4.2,3.6,4.2C55.6,76,106,88.8,106,82.1
			c-0.1-18.2-0.1-43.5,0-61.6C106,13.5,55.6,11.2,3.6,11.1z"/>
		<linearGradient id="SVGID_7_" gradientUnits="userSpaceOnUse" x1="1.500000e-03" y1="47.3463" x2="105.4222" y2="47.3463">
			<stop  offset="0.375" style="stop-color:#DBDBDB"/>
			<stop  offset="0.6638" style="stop-color:#E2E2E2"/>
			<stop  offset="1" style="stop-color:#F1F1F1"/>
		</linearGradient>
		<path class="st6" d="M3.6,11.1c-2,0-3.6,1.4-3.6,3.1c0,17.4,0,39.8,0,57.4c0,2.3,1.6,4.2,3.6,4.2c51.7,0.3,101.8,12.5,101.8,5.9
			c-0.1-18-0.1-43.1,0-61C105.4,13.9,55.3,11.2,3.6,11.1z"/>
		<linearGradient id="SVGID_8_" gradientUnits="userSpaceOnUse" x1="1.500000e-03" y1="47.1415" x2="104.8623" y2="47.1415">
			<stop  offset="0.375" style="stop-color:#D5D5D5"/>
			<stop  offset="0.6329" style="stop-color:#DCDCDC"/>
			<stop  offset="1" style="stop-color:#EFEFEF"/>
		</linearGradient>
		<path class="st7" d="M3.6,11.1c-2,0-3.6,1.4-3.6,3.1c0,17.4,0,39.8,0,57.4c0,2.3,1.6,4.2,3.6,4.2c51.4,0.3,101.3,12,101.2,5.5
			c-0.1-17.8-0.1-42.6,0-60.4C104.9,14.3,55,11.2,3.6,11.1z"/>
		<linearGradient id="SVGID_9_" gradientUnits="userSpaceOnUse" x1="1.500000e-03" y1="46.937" x2="104.3025" y2="46.937">
			<stop  offset="0.375" style="stop-color:#CFCFCF"/>
			<stop  offset="0.609" style="stop-color:#D6D6D6"/>
			<stop  offset="0.9505" style="stop-color:#EAEAEA"/>
			<stop  offset="1" style="stop-color:#EDEDED"/>
		</linearGradient>
		<path class="st8" d="M3.6,11.1c-2,0-3.6,1.4-3.6,3.1c0,17.4,0,39.8,0,57.4c0,2.3,1.6,4.2,3.6,4.2c51.1,0.2,100.7,11.4,100.7,5.2
			c-0.1-17.6-0.1-42.2,0-59.8C104.3,14.7,54.8,11.1,3.6,11.1z"/>
		<linearGradient id="SVGID_10_" gradientUnits="userSpaceOnUse" x1="1.500000e-03" y1="46.7329" x2="103.7426" y2="46.7329">
			<stop  offset="0.375" style="stop-color:#C9C9C9"/>
			<stop  offset="0.5944" style="stop-color:#D0D0D0"/>
			<stop  offset="0.9144" style="stop-color:#E4E4E4"/>
			<stop  offset="1" style="stop-color:#EAEAEA"/>
		</linearGradient>
		<path class="st9" d="M3.6,11.1c-2,0-3.6,1.4-3.6,3.1c0,17.4,0,39.8,0,57.4c0,2.3,1.6,4.2,3.6,4.2c50.8,0.2,100.1,10.8,100.1,4.8
			c-0.1-17.4-0.1-41.8,0-59.2C103.8,15.2,54.5,11.1,3.6,11.1z"/>
		<linearGradient id="SVGID_11_" gradientUnits="userSpaceOnUse" x1="1.500000e-03" y1="46.5292" x2="103.1828" y2="46.5292">
			<stop  offset="0.375" style="stop-color:#C3C3C3"/>
			<stop  offset="0.578" style="stop-color:#CACACA"/>
			<stop  offset="0.8742" style="stop-color:#DEDEDE"/>
			<stop  offset="1" style="stop-color:#E8E8E8"/>
		</linearGradient>
		<path class="st10" d="M3.6,11.1c-2,0-3.6,1.4-3.6,3.1c0,17.4,0,39.8,0,57.4c0,2.3,1.6,4.2,3.6,4.2c50.6,0.2,99.6,10.3,99.6,4.4
			c-0.1-17.2-0.1-41.4,0-58.6C103.2,15.6,54.2,11.1,3.6,11.1z"/>
		<linearGradient id="SVGID_12_" gradientUnits="userSpaceOnUse" x1="1.500000e-03" y1="46.3261" x2="102.6229" y2="46.3261">
			<stop  offset="0.375" style="stop-color:#BCBCBC"/>
			<stop  offset="0.5613" style="stop-color:#C3C3C3"/>
			<stop  offset="0.833" style="stop-color:#D7D7D7"/>
			<stop  offset="1" style="stop-color:#E6E6E6"/>
		</linearGradient>
		<path class="st11" d="M3.6,11.1c-2,0-3.6,1.4-3.6,3.1c0,17.4,0,39.8,0,57.4c0,2.3,1.6,4.2,3.6,4.2c50.3,0.2,99,9.7,99,4
			c-0.1-17-0.1-41,0-58C102.6,16,53.9,11.1,3.6,11.1z"/>
		<linearGradient id="SVGID_13_" gradientUnits="userSpaceOnUse" x1="1.500000e-03" y1="46.1235" x2="102.0631" y2="46.1235">
			<stop  offset="0.375" style="stop-color:#B6B6B6"/>
			<stop  offset="0.5502" style="stop-color:#BDBDBD"/>
			<stop  offset="0.8056" style="stop-color:#D1D1D1"/>
			<stop  offset="1" style="stop-color:#E4E4E4"/>
		</linearGradient>
		<path class="st12" d="M3.6,11.1c-2,0-3.6,1.4-3.6,3.1c0,17.4,0,39.8,0,57.4c0,2.3,1.6,4.2,3.6,4.2c50,0.2,98.5,9.1,98.4,3.7
			c-0.1-16.8-0.1-40.6,0-57.4C102.1,16.4,53.6,11.2,3.6,11.1z"/>
		<linearGradient id="SVGID_14_" gradientUnits="userSpaceOnUse" x1="1.500000e-03" y1="45.9216" x2="101.5032" y2="45.9216">
			<stop  offset="0.375" style="stop-color:#B0B0B0"/>
			<stop  offset="0.5428" style="stop-color:#B7B7B7"/>
			<stop  offset="0.7876" style="stop-color:#CBCBCB"/>
			<stop  offset="1" style="stop-color:#E1E1E1"/>
		</linearGradient>
		<path class="st13" d="M3.6,11.1c-2,0-3.6,1.4-3.6,3.1c0,17.4,0,39.8,0,57.4c0,2.3,1.6,4.2,3.6,4.2c49.7,0.2,97.9,8.6,97.9,3.3
			c-0.1-16.6-0.1-40.2,0-56.8C101.5,16.8,53.4,11.2,3.6,11.1z"/>
		<linearGradient id="SVGID_15_" gradientUnits="userSpaceOnUse" x1="1.500000e-03" y1="45.7205" x2="100.9434" y2="45.7205">
			<stop  offset="0.375" style="stop-color:#AAAAAA"/>
			<stop  offset="0.5341" style="stop-color:#B1B1B1"/>
			<stop  offset="0.7668" style="stop-color:#C5C5C5"/>
			<stop  offset="1" style="stop-color:#DFDFDF"/>
		</linearGradient>
		<path class="st14" d="M3.6,11.1c-2,0-3.6,1.4-3.6,3.1c0,17.4,0,39.8,0,57.4c0,2.3,1.6,4.2,3.6,4.2c49.4,0.2,97.3,8,97.3,2.9
			c-0.1-16.3-0.1-39.8,0-56.2C101,17.2,53.1,11.2,3.6,11.1z"/>
		<linearGradient id="SVGID_16_" gradientUnits="userSpaceOnUse" x1="1.500000e-03" y1="45.5204" x2="100.3835" y2="45.5204">
			<stop  offset="0.375" style="stop-color:#A4A4A4"/>
			<stop  offset="0.5265" style="stop-color:#ABABAB"/>
			<stop  offset="0.7479" style="stop-color:#BFBFBF"/>
			<stop  offset="1" style="stop-color:#DDDDDD"/>
		</linearGradient>
		<path class="st15" d="M3.6,11.1c-2,0-3.6,1.4-3.6,3.1c0,17.4,0,39.8,0,57.4c0,2.3,1.6,4.2,3.6,4.2c49.1,0.2,96.8,7.4,96.8,2.5
			c-0.1-16.1-0.1-39.4,0-55.5C100.4,17.7,52.8,11.2,3.6,11.1z"/>
		<linearGradient id="SVGID_17_" gradientUnits="userSpaceOnUse" x1="1.500000e-03" y1="45.3215" x2="99.8237" y2="45.3215">
			<stop  offset="0.375" style="stop-color:#9E9E9E"/>
			<stop  offset="0.5213" style="stop-color:#A5A5A5"/>
			<stop  offset="0.7352" style="stop-color:#B9B9B9"/>
			<stop  offset="0.9896" style="stop-color:#D9D9D9"/>
			<stop  offset="1" style="stop-color:#DADADA"/>
		</linearGradient>
		<path class="st16" d="M3.6,11.1c-2,0-3.6,1.4-3.6,3.1c0,17.4,0,39.8,0,57.4c0,2.3,1.6,4.2,3.6,4.2c48.9,0.2,96.2,6.9,96.2,2.1
			c-0.1-15.9-0.1-39,0-54.9C99.8,18.1,52.5,11.2,3.6,11.1z"/>
		<linearGradient id="SVGID_18_" gradientUnits="userSpaceOnUse" x1="1.500000e-03" y1="45.1239" x2="99.2638" y2="45.1239">
			<stop  offset="0.375" style="stop-color:#989898"/>
			<stop  offset="0.515" style="stop-color:#9F9F9F"/>
			<stop  offset="0.7198" style="stop-color:#B3B3B3"/>
			<stop  offset="0.9632" style="stop-color:#D3D3D3"/>
			<stop  offset="1" style="stop-color:#D8D8D8"/>
		</linearGradient>
		<path class="st17" d="M3.6,11.1c-2,0-3.6,1.4-3.6,3.1c0,17.4,0,39.8,0,57.4c0,2.3,1.6,4.2,3.6,4.2c48.6,0.1,95.7,6.3,95.6,1.8
			c-0.1-15.7-0.1-38.6,0-54.3C99.3,18.5,52.2,11.2,3.6,11.1z"/>
		<linearGradient id="SVGID_19_" gradientUnits="userSpaceOnUse" x1="1.500000e-03" y1="44.9281" x2="98.704" y2="44.9281">
			<stop  offset="0.375" style="stop-color:#929292"/>
			<stop  offset="0.5094" style="stop-color:#999999"/>
			<stop  offset="0.7059" style="stop-color:#ADADAD"/>
			<stop  offset="0.9396" style="stop-color:#CDCDCD"/>
			<stop  offset="1" style="stop-color:#D6D6D6"/>
		</linearGradient>
		<path class="st18" d="M3.6,11.1c-2,0-3.6,1.4-3.6,3.1c0,17.4,0,39.8,0,57.4c0,2.3,1.6,4.2,3.6,4.2c48.3,0.1,95.1,5.7,95.1,1.4
			c-0.1-15.5-0.1-38.2,0-53.7C98.7,18.9,52,11.2,3.6,11.1z"/>
		<linearGradient id="SVGID_20_" gradientUnits="userSpaceOnUse" x1="1.500000e-03" y1="44.7344" x2="98.1441" y2="44.7344">
			<stop  offset="0.375" style="stop-color:#8C8C8C"/>
			<stop  offset="0.5043" style="stop-color:#939393"/>
			<stop  offset="0.6934" style="stop-color:#A7A7A7"/>
			<stop  offset="0.9181" style="stop-color:#C7C7C7"/>
			<stop  offset="1" style="stop-color:#D4D4D4"/>
		</linearGradient>
		<path class="st19" d="M3.6,11.1c-2,0-3.6,1.4-3.6,3.1c0,17.4,0,39.8,0,57.4c0,2.3,1.6,4.2,3.6,4.2c48,0.1,94.5,5.2,94.5,1
			c-0.1-15.3-0.1-37.8,0-53.1C98.2,19.3,51.7,11.2,3.6,11.1z"/>
		<linearGradient id="SVGID_21_" gradientUnits="userSpaceOnUse" x1="1.500000e-03" y1="44.5435" x2="97.5843" y2="44.5435">
			<stop  offset="0.375" style="stop-color:#868686"/>
			<stop  offset="0.5008" style="stop-color:#8D8D8D"/>
			<stop  offset="0.6847" style="stop-color:#A1A1A1"/>
			<stop  offset="0.9032" style="stop-color:#C1C1C1"/>
			<stop  offset="1" style="stop-color:#D1D1D1"/>
		</linearGradient>
		<path class="st20" d="M3.6,11.1c-2,0-3.6,1.4-3.6,3.1c0,17.4,0,39.8,0,57.4c0,2.3,1.6,4.2,3.6,4.2c47.7,0.1,94,4.6,94,0.6
			c-0.1-15.1-0.1-37.4,0-52.5C97.6,19.7,51.4,11.2,3.6,11.1z"/>
		<linearGradient id="SVGID_22_" gradientUnits="userSpaceOnUse" x1="1.500000e-03" y1="44.3666" x2="97.0244" y2="44.3666">
			<stop  offset="0.375" style="stop-color:#808080"/>
			<stop  offset="0.4964" style="stop-color:#878787"/>
			<stop  offset="0.674" style="stop-color:#9B9B9B"/>
			<stop  offset="0.885" style="stop-color:#BBBBBB"/>
			<stop  offset="1" style="stop-color:#CFCFCF"/>
		</linearGradient>
		<path class="st21" d="M3.6,11.1c-2,0-3.6,1.4-3.6,3.1c0,17.4,0,39.8,0,57.4c0,2.3,1.6,4.2,3.6,4.2C51.1,75.9,97.1,79.8,97,76
			c0-14.9,0-37,0-51.9C97.1,20.1,51.1,11.5,3.6,11.1z"/>
	</g>
	<g>
		<g>
			<linearGradient id="SVGID_23_" gradientUnits="userSpaceOnUse" x1="1.500000e-03" y1="67.0542" x2="97.0244" y2="67.0542">
				<stop  offset="0" style="stop-color:#000040"/>
				<stop  offset="0.3246" style="stop-color:#000043"/>
				<stop  offset="0.5853" style="stop-color:#00004D"/>
				<stop  offset="0.823" style="stop-color:#00005E"/>
				<stop  offset="1" style="stop-color:#000070"/>
			</linearGradient>
			<path class="st22" d="M0,71.6c0,2.3,1.6,4.2,3.6,4.2c47.5,0.3,93.4-1.9,93.4-9C97,45.2,0,71.6,0,71.6z"/>
			<linearGradient id="SVGID_24_" gradientUnits="userSpaceOnUse" x1="48.5129" y1="58.3077" x2="48.5129" y2="75.8195">
				<stop  offset="0.35" style="stop-color:#00209F"/>
				<stop  offset="0.6454" style="stop-color:#001F9D"/>
				<stop  offset="0.7517" style="stop-color:#001D96"/>
				<stop  offset="0.8276" style="stop-color:#00198B"/>
				<stop  offset="0.8889" style="stop-color:#00137A"/>
				<stop  offset="0.9414" style="stop-color:#000C64"/>
				<stop  offset="0.987" style="stop-color:#000349"/>
				<stop  offset="1" style="stop-color:#000040"/>
			</linearGradient>
			<path class="st23" d="M0,71.6L0,71.6c0,2.3,1.6,4.2,3.6,4.2c47.5,0.4,93.3-1.1,93.4-9C97,45.2,0,71.6,0,71.6z M3.6,75.5
				c-0.1,0-0.3,0-0.4,0c-1.5-0.2-2.7-1.3-3.1-2.7C0.6,74.3,2,75.5,3.6,75.5c47.5-0.3,92.7-14.9,92.7-8.5
				C96.3,73.6,51.1,75.8,3.6,75.5z"/>
		</g>
		<g>
			<linearGradient id="SVGID_25_" gradientUnits="userSpaceOnUse" x1="1.500000e-03" y1="37.5978" x2="97.0245" y2="37.5978">
				<stop  offset="0" style="stop-color:#00209F"/>
				<stop  offset="2.097060e-02" style="stop-color:#0222A1"/>
				<stop  offset="0.2435" style="stop-color:#1333B2"/>
				<stop  offset="0.4872" style="stop-color:#1D3DBC"/>
				<stop  offset="0.7911" style="stop-color:#2040BF"/>
				<stop  offset="0.8415" style="stop-color:#1E3DBC"/>
				<stop  offset="0.8819" style="stop-color:#1933B2"/>
				<stop  offset="0.919" style="stop-color:#1122A1"/>
				<stop  offset="0.9537" style="stop-color:#050A89"/>
				<stop  offset="0.966" style="stop-color:#00007F"/>
				<stop  offset="1" style="stop-color:#2040BF"/>
			</linearGradient>
			<path class="st24" d="M3.6,10.5L3.6,10.5c-2,0-3.6,1.6-3.6,3.6c0,19.1,0,38.3,0,57.4c0,2,1.6,3.6,3.6,3.6
				c47.5-0.4,93.5-16.1,93.4-8.4c0-21.6,0-43.1,0-64.7C97.1-5.6,51.2,10.2,3.6,10.5z"/>
		</g>
		<g>
			<linearGradient id="SVGID_26_" gradientUnits="userSpaceOnUse" x1="1.500000e-03" y1="24.7126" x2="97.0254" y2="24.7126">
				<stop  offset="0" style="stop-color:#DFDFDF"/>
				<stop  offset="2.097060e-02" style="stop-color:#E1E1E1"/>
				<stop  offset="0.2435" style="stop-color:#F2F2F2"/>
				<stop  offset="0.4872" style="stop-color:#FCFCFC"/>
				<stop  offset="0.7911" style="stop-color:#FFFFFF"/>
				<stop  offset="0.8415" style="stop-color:#FCFCFC"/>
				<stop  offset="0.8819" style="stop-color:#F2F2F2"/>
				<stop  offset="0.919" style="stop-color:#E1E1E1"/>
				<stop  offset="0.9537" style="stop-color:#C9C9C9"/>
				<stop  offset="0.966" style="stop-color:#BFBFBF"/>
				<stop  offset="1" style="stop-color:#FFFFFF"/>
			</linearGradient>
			<path class="st25" d="M5.4,42.8c1.5-1,2.8-1.9,4-2.8c1.2-0.8,2.3-1.6,3.4-2.4c1.1-0.8,2.2-1.6,3.4-2.5c1.2-0.9,2.5-1.8,4-2.9
				c0,2,0,3.5,0,4.9c0,1.5,0,3,0,4.9c1.6-0.1,2.8-0.2,4.1-0.3c1.2-0.1,2.4-0.2,4.1-0.4c0-2,0-3.4,0-4.9c0-1.5,0-3,0-4.9
				c1.5,0.8,2.8,1.6,4,2.2c1.2,0.7,2.3,1.3,3.4,1.9c1.1,0.6,2.2,1.2,3.4,1.9c1.2,0.7,2.5,1.3,4,2.1c1.1-0.1,1.9-0.3,2.7-0.4
				c0.8-0.1,1.6-0.2,2.7-0.4c0-1.4,0-2.2,0-3.6c-1.4-0.7-2.6-1.4-3.7-1.9c-1.1-0.6-2.2-1.1-3.3-1.7c-1.1-0.6-2.3-1.2-3.8-2
				c1.4-0.2,2.6-0.3,3.8-0.5c1.1-0.1,2.2-0.3,3.3-0.4c1.1-0.2,2.3-0.3,3.7-0.6c0-1.4,0-2.6,0-3.8c0-1.1,0-2.2,0-3.3
				c0-1.1,0-2.3,0-3.8c-1.4,0.2-2.6,0.4-3.7,0.5c-1.1,0.2-2.2,0.3-3.3,0.4c-1.1,0.1-2.3,0.3-3.8,0.5c1.4-1.1,2.6-2.1,3.8-3
				c1.1-0.9,2.2-1.7,3.3-2.6c1.1-0.9,2.3-1.9,3.7-3c0-1.4,0-2.2,0-3.6c0,0,0,0,0-0.1c-1.7,0.3-3.5,0.5-5.3,0.8c0,0-0.1,0-0.1,0.1
				c-1.5,1.2-2.8,2.2-4,3.2c-1.2,1-2.3,1.8-3.4,2.7c-1.1,0.9-2.2,1.7-3.4,2.7c-1.2,0.9-2.5,1.9-4,3.1c0-2,0-3.5,0-4.9
				c0-0.8,0-2.8,0-4.9c-2.8,0.3-5.6,0.5-8.5,0.7c0.2,2.1,0.3,4.1,0.3,4.9c0,1.5,0,3,0,4.9c-1.5-0.9-2.8-1.7-4-2.4
				c-1.2-0.7-2.3-1.4-3.4-2.1c-1.1-0.7-2.2-1.4-3.4-2.1c-1.2-0.8-2.5-1.6-4-2.5c0,0,0,0,0,0c-0.6,0-1.2,0-1.8,0
				c-2,0-3.6,1.6-3.6,3.6c0,0,0,0,0,0h0c1.4,1,2.6,1.7,3.8,2.5C4.9,17.4,5.9,18,7,18.8c1.1,0.7,2.3,1.5,3.8,2.4
				c-1.4,0.1-2.6,0.1-3.8,0.1c-1.1,0-2.2,0.1-3.3,0.1c-1.1,0-2.3,0-3.8,0h0c0,3.6,0,7.2,0,10.8c1.4,0,2.6,0,3.8,0
				c1.1,0,2.2,0,3.3-0.1c1.1,0,2.3-0.1,3.8-0.1c-1.4,1-2.6,1.8-3.8,2.6c-1.1,0.8-2.2,1.5-3.3,2.2c-1.1,0.8-2.3,1.6-3.8,2.5h0
				c0,1.2,0,2.4,0,3.6c1.1,0,2.3,0,2.7,0C3.5,42.9,4.4,42.9,5.4,42.8z"/>
			<linearGradient id="SVGID_27_" gradientUnits="userSpaceOnUse" x1="8.579712e-04" y1="57.6837" x2="97.0267" y2="57.6837">
				<stop  offset="0" style="stop-color:#DFDFDF"/>
				<stop  offset="2.097060e-02" style="stop-color:#E1E1E1"/>
				<stop  offset="0.2435" style="stop-color:#F2F2F2"/>
				<stop  offset="0.4872" style="stop-color:#FCFCFC"/>
				<stop  offset="0.7911" style="stop-color:#FFFFFF"/>
				<stop  offset="0.8415" style="stop-color:#FCFCFC"/>
				<stop  offset="0.8819" style="stop-color:#F2F2F2"/>
				<stop  offset="0.919" style="stop-color:#E1E1E1"/>
				<stop  offset="0.9537" style="stop-color:#C9C9C9"/>
				<stop  offset="0.966" style="stop-color:#BFBFBF"/>
				<stop  offset="1" style="stop-color:#FFFFFF"/>
			</linearGradient>
			<path class="st26" d="M28.6,56.6c0.7-1.1,1.2-1.9,1.7-2.7c0.5-0.8,1-1.6,1.7-2.7c-1.1,0.6-2,1-2.9,1.4c-0.9,0.4-1.7,0.8-2.9,1.4
				c-0.4-1.1-0.7-2-0.9-2.8c-0.3-0.8-0.6-1.7-0.9-2.8c-0.4,1.2-0.7,2.1-0.9,3c-0.3,0.9-0.6,1.8-0.9,3c-1.1-0.3-2-0.6-2.9-0.9
				c-0.9-0.3-1.7-0.5-2.9-0.9c0.7,1,1.2,1.7,1.7,2.4c0.5,0.7,1,1.5,1.7,2.4c-1.1,0.7-1.8,1.2-2.6,1.7c-0.8,0.5-1.6,1-2.6,1.7
				c1.2,0,2.1,0.1,3.1,0.1c0.9,0,1.8,0,3.1,0c-0.2,1.2-0.3,2.1-0.4,3.1c-0.1,0.9-0.3,1.8-0.4,3.1c0.8-0.9,1.5-1.7,2.1-2.4
				c0.6-0.7,1.3-1.4,2.1-2.4c0.8,0.8,1.5,1.4,2.1,2c0.6,0.6,1.3,1.2,2.1,2c-0.2-1.2-0.3-2.1-0.4-3c-0.1-0.9-0.3-1.8-0.4-3
				c1.2-0.2,2.1-0.4,3.1-0.6c0.9-0.2,1.8-0.4,3.1-0.6c-1.1-0.5-1.8-0.9-2.6-1.3C30.4,57.5,29.6,57.2,28.6,56.6z"/>
			<linearGradient id="SVGID_28_" gradientUnits="userSpaceOnUse" x1="4.498465e-03" y1="56.403" x2="97.0234" y2="56.403">
				<stop  offset="0" style="stop-color:#DFDFDF"/>
				<stop  offset="2.097060e-02" style="stop-color:#E1E1E1"/>
				<stop  offset="0.2435" style="stop-color:#F2F2F2"/>
				<stop  offset="0.4872" style="stop-color:#FCFCFC"/>
				<stop  offset="0.7911" style="stop-color:#FFFFFF"/>
				<stop  offset="0.8415" style="stop-color:#FCFCFC"/>
				<stop  offset="0.8819" style="stop-color:#F2F2F2"/>
				<stop  offset="0.919" style="stop-color:#E1E1E1"/>
				<stop  offset="0.9537" style="stop-color:#C9C9C9"/>
				<stop  offset="0.966" style="stop-color:#BFBFBF"/>
				<stop  offset="1" style="stop-color:#FFFFFF"/>
			</linearGradient>
			<path class="st27" d="M74.9,55.6c0.6-1.1,1-1.6,1.6-2.7c-1.1,0.6-1.6,0.9-2.7,1.5c-0.4-1-0.5-1.6-0.9-2.6
				c-0.4,1.2-0.5,1.8-0.9,2.9c-1.1-0.2-1.6-0.3-2.7-0.6c0.6,0.9,1,1.3,1.6,2.1c-1,0.8-1.5,1.2-2.5,1.9c1.2-0.1,1.7-0.1,2.9-0.3
				c-0.2,1.2-0.2,1.8-0.4,3c0.8-1,1.2-1.5,2-2.5c0.8,0.7,1.2,1.1,2,1.8c-0.2-1.1-0.2-1.7-0.4-2.8c1.2-0.3,1.7-0.5,2.9-0.7
				C76.4,56.3,75.9,56.1,74.9,55.6z"/>
			<linearGradient id="SVGID_29_" gradientUnits="userSpaceOnUse" x1="1.026404e-03" y1="32.8898" x2="97.0243" y2="32.8898">
				<stop  offset="0" style="stop-color:#DFDFDF"/>
				<stop  offset="2.097060e-02" style="stop-color:#E1E1E1"/>
				<stop  offset="0.2435" style="stop-color:#F2F2F2"/>
				<stop  offset="0.4872" style="stop-color:#FCFCFC"/>
				<stop  offset="0.7911" style="stop-color:#FFFFFF"/>
				<stop  offset="0.8415" style="stop-color:#FCFCFC"/>
				<stop  offset="0.8819" style="stop-color:#F2F2F2"/>
				<stop  offset="0.919" style="stop-color:#E1E1E1"/>
				<stop  offset="0.9537" style="stop-color:#C9C9C9"/>
				<stop  offset="0.966" style="stop-color:#BFBFBF"/>
				<stop  offset="1" style="stop-color:#FFFFFF"/>
			</linearGradient>
			<path class="st28" d="M62.8,32.1c0.6-1.1,1-1.6,1.6-2.7c-1.1,0.6-1.6,0.9-2.7,1.5c-0.4-1-0.5-1.6-0.9-2.6
				c-0.4,1.2-0.5,1.8-0.9,2.9c-1.1-0.2-1.6-0.3-2.7-0.6c0.6,0.9,1,1.3,1.6,2.2c-1,0.8-1.5,1.1-2.5,1.9c1.2-0.1,1.7-0.1,2.9-0.2
				c-0.2,1.2-0.2,1.8-0.4,2.9c0.8-1,1.2-1.5,2-2.4c0.8,0.7,1.2,1.1,2,1.8c-0.2-1.1-0.2-1.7-0.4-2.8c1.2-0.3,1.7-0.5,2.9-0.8
				C64.3,32.8,63.8,32.6,62.8,32.1z"/>
			<linearGradient id="SVGID_30_" gradientUnits="userSpaceOnUse" x1="3.699094e-03" y1="13.2824" x2="97.0245" y2="13.2824">
				<stop  offset="0" style="stop-color:#DFDFDF"/>
				<stop  offset="2.097060e-02" style="stop-color:#E1E1E1"/>
				<stop  offset="0.2435" style="stop-color:#F2F2F2"/>
				<stop  offset="0.4872" style="stop-color:#FCFCFC"/>
				<stop  offset="0.7911" style="stop-color:#FFFFFF"/>
				<stop  offset="0.8415" style="stop-color:#FCFCFC"/>
				<stop  offset="0.8819" style="stop-color:#F2F2F2"/>
				<stop  offset="0.919" style="stop-color:#E1E1E1"/>
				<stop  offset="0.9537" style="stop-color:#C9C9C9"/>
				<stop  offset="0.966" style="stop-color:#BFBFBF"/>
				<stop  offset="1" style="stop-color:#FFFFFF"/>
			</linearGradient>
			<path class="st29" d="M71.3,14.9c-0.2,1.2-0.2,1.8-0.4,3c0.8-1,1.2-1.5,2-2.5c0.8,0.7,1.2,1.1,2,1.8c-0.2-1.1-0.2-1.7-0.4-2.8
				c1.2-0.3,1.7-0.5,2.9-0.7c-1-0.4-1.5-0.6-2.5-1.1c0.6-1.1,1-1.6,1.6-2.7c-1.1,0.6-1.6,0.9-2.7,1.5c-0.4-1-0.5-1.6-0.9-2.6
				c-0.4,1.2-0.5,1.8-0.9,2.9c-1.1-0.2-1.6-0.3-2.7-0.6c0.6,0.9,1,1.3,1.6,2.1c-1,0.8-1.5,1.2-2.5,1.9C69.6,15,70.1,15,71.3,14.9z"
				/>
			<linearGradient id="SVGID_31_" gradientUnits="userSpaceOnUse" x1="2.296780e-03" y1="24.7111" x2="97.0245" y2="24.7111">
				<stop  offset="0" style="stop-color:#DFDFDF"/>
				<stop  offset="2.097060e-02" style="stop-color:#E1E1E1"/>
				<stop  offset="0.2435" style="stop-color:#F2F2F2"/>
				<stop  offset="0.4872" style="stop-color:#FCFCFC"/>
				<stop  offset="0.7911" style="stop-color:#FFFFFF"/>
				<stop  offset="0.8415" style="stop-color:#FCFCFC"/>
				<stop  offset="0.8819" style="stop-color:#F2F2F2"/>
				<stop  offset="0.919" style="stop-color:#E1E1E1"/>
				<stop  offset="0.9537" style="stop-color:#C9C9C9"/>
				<stop  offset="0.966" style="stop-color:#BFBFBF"/>
				<stop  offset="1" style="stop-color:#FFFFFF"/>
			</linearGradient>
			<path class="st30" d="M85.7,24.1c0.7-1.1,1.1-1.6,1.9-2.7c-1.4,0.6-2,0.9-3,1.4c-0.4-1.1-0.5-1.6-0.9-2.6
				c-0.4,1.2-0.5,1.7-0.9,2.9c-1.1-0.3-1.6-0.4-2.7-0.6c0.6,0.9,1,1.3,1.6,2.2c-1,0.7-1.5,1.1-2.5,1.9c1.2-0.1,1.7-0.1,2.9-0.2
				c-0.2,1.2-0.2,1.8-0.4,2.9c0.8-1,1.2-1.4,2-2.4c0.8,0.7,1.2,1.1,2,1.8c-0.2-1.1-0.3-1.7-0.4-2.8c1.2-0.3,2-0.4,3.5-0.7
				C87.4,24.7,86.8,24.5,85.7,24.1z"/>
			<linearGradient id="SVGID_32_" gradientUnits="userSpaceOnUse" x1="-3.721986e-03" y1="36.6339" x2="97.0264" y2="36.6339">
				<stop  offset="0" style="stop-color:#DFDFDF"/>
				<stop  offset="2.097060e-02" style="stop-color:#E1E1E1"/>
				<stop  offset="0.2435" style="stop-color:#F2F2F2"/>
				<stop  offset="0.4872" style="stop-color:#FCFCFC"/>
				<stop  offset="0.7911" style="stop-color:#FFFFFF"/>
				<stop  offset="0.8415" style="stop-color:#FCFCFC"/>
				<stop  offset="0.8819" style="stop-color:#F2F2F2"/>
				<stop  offset="0.919" style="stop-color:#E1E1E1"/>
				<stop  offset="0.9537" style="stop-color:#C9C9C9"/>
				<stop  offset="0.966" style="stop-color:#BFBFBF"/>
				<stop  offset="1" style="stop-color:#FFFFFF"/>
			</linearGradient>
			<path class="st31" d="M78.4,35.7c-0.3-0.6-0.4-1-0.7-1.6c-0.3,0.7-0.4,1.1-0.7,1.8c-0.7,0.2-1.1,0.3-1.9,0.5
				c0.6,0.4,0.9,0.6,1.4,1c-0.2,0.8-0.3,1.1-0.4,1.9c0.6-0.5,0.9-0.8,1.6-1.2c0.6,0.3,0.9,0.4,1.6,0.7c-0.2-0.7-0.3-1-0.4-1.7
				c0.6-0.6,0.9-0.9,1.4-1.4C79.5,35.6,79.2,35.6,78.4,35.7z"/>
		</g>
		<g>
			<linearGradient id="SVGID_33_" gradientUnits="userSpaceOnUse" x1="1.500000e-03" y1="25.6442" x2="97.0254" y2="25.6442">
				<stop  offset="0" style="stop-color:#BF1010"/>
				<stop  offset="2.097060e-02" style="stop-color:#C11212"/>
				<stop  offset="0.2435" style="stop-color:#D22323"/>
				<stop  offset="0.4872" style="stop-color:#DC2D2D"/>
				<stop  offset="0.7911" style="stop-color:#DF3030"/>
				<stop  offset="0.8415" style="stop-color:#DC2E2E"/>
				<stop  offset="0.8819" style="stop-color:#D22626"/>
				<stop  offset="0.919" style="stop-color:#C11919"/>
				<stop  offset="0.9537" style="stop-color:#A90808"/>
				<stop  offset="0.966" style="stop-color:#9F0000"/>
				<stop  offset="1" style="stop-color:#DF3030"/>
			</linearGradient>
			<path class="st32" d="M4.8,29.9c1.5,0,2.8-0.1,4.2-0.1c1.3,0,2.6-0.1,4-0.2c1.3-0.1,2.7-0.1,4.2-0.2c1.5-0.1,3.1-0.2,4.8-0.3
				c0,1.7,0,3.2,0,4.5s0,2.6,0,3.9c0,1.3,0,2.8,0,4.5c1.9-0.2,2.9-0.2,4.9-0.4c0-1.7,0-3.2,0-4.5s0-2.6,0-3.9s0-2.8,0-4.5
				c1.8-0.2,3.3-0.3,4.8-0.5c1.5-0.2,2.8-0.3,4.2-0.5c1.3-0.2,2.6-0.3,4-0.5c1.3-0.2,2.7-0.3,4.2-0.5c1.5-0.2,3-0.4,4.8-0.7
				c0-1.3,0-2.3,0-3.2c0-1,0-1.9,0-3.2c-1.7,0.3-3.3,0.5-4.8,0.7c-1.5,0.2-2.8,0.4-4.2,0.5c-1.3,0.2-2.6,0.3-4,0.5
				c-1.3,0.2-2.7,0.3-4.2,0.5c-1.5,0.2-3.1,0.3-4.8,0.5c0-1.7,0-3.2,0-4.5c0-1.3,0-2.6,0-3.9c0-0.8,0-2.7,0-4.5
				c-1.6,0.2-3.2,0.3-4.9,0.4c0,1.9,0,3.8,0,4.5c0,1.3,0,2.6,0,3.9c0,1.3,0,2.8,0,4.5c-1.8,0.1-3.3,0.3-4.8,0.3
				c-1.5,0.1-2.8,0.2-4.2,0.2c-1.3,0.1-2.6,0.1-4,0.2c-1.3,0-2.7,0.1-4.2,0.1c-1.5,0-3.1,0-4.8,0l0,0c0,2.2,0,4.3,0,6.5h0
				C1.8,30,3.3,30,4.8,29.9z"/>
			<linearGradient id="SVGID_34_" gradientUnits="userSpaceOnUse" x1="2.008321e-03" y1="13.1764" x2="97.0238" y2="13.1764">
				<stop  offset="0" style="stop-color:#BF1010"/>
				<stop  offset="2.097060e-02" style="stop-color:#C11212"/>
				<stop  offset="0.2435" style="stop-color:#D22323"/>
				<stop  offset="0.4872" style="stop-color:#DC2D2D"/>
				<stop  offset="0.7911" style="stop-color:#DF3030"/>
				<stop  offset="0.8415" style="stop-color:#DC2E2E"/>
				<stop  offset="0.8819" style="stop-color:#D22626"/>
				<stop  offset="0.919" style="stop-color:#C11919"/>
				<stop  offset="0.9537" style="stop-color:#A90808"/>
				<stop  offset="0.966" style="stop-color:#9F0000"/>
				<stop  offset="1" style="stop-color:#DF3030"/>
			</linearGradient>
			<path class="st33" d="M40.7,10.6c-1.3,1-2.5,2-3.8,3c-1.2,1-2.4,1.9-3.7,2.9c-1.3,1-2.7,2.1-4.4,3.4c1.5-0.1,2.2-0.2,3.6-0.4
				c1.6-1.3,3-2.4,4.3-3.4c1.3-1,2.5-2,3.8-3c1.2-1,2.4-1.9,3.8-3c1.3-1.1,2.7-2.2,4.3-3.5c0,0,0,0,0.1-0.1
				c-1.1,0.2-2.3,0.3-3.5,0.5c-0.1,0-0.1,0.1-0.2,0.1C43.4,8.4,42,9.6,40.7,10.6z"/>
			<linearGradient id="SVGID_35_" gradientUnits="userSpaceOnUse" x1="1.786050e-03" y1="16.2262" x2="97.024" y2="16.2262">
				<stop  offset="0" style="stop-color:#BF1010"/>
				<stop  offset="2.097060e-02" style="stop-color:#C11212"/>
				<stop  offset="0.2435" style="stop-color:#D22323"/>
				<stop  offset="0.4872" style="stop-color:#DC2D2D"/>
				<stop  offset="0.7911" style="stop-color:#DF3030"/>
				<stop  offset="0.8415" style="stop-color:#DC2E2E"/>
				<stop  offset="0.8819" style="stop-color:#D22626"/>
				<stop  offset="0.919" style="stop-color:#C11919"/>
				<stop  offset="0.9537" style="stop-color:#A90808"/>
				<stop  offset="0.966" style="stop-color:#9F0000"/>
				<stop  offset="1" style="stop-color:#DF3030"/>
			</linearGradient>
			<path class="st34" d="M8.2,18.3c1.3,0.8,2.7,1.7,4.4,2.8c1.5-0.1,2.2-0.1,3.6-0.2c-1.6-1-3-1.9-4.4-2.7c-1.3-0.8-2.5-1.6-3.7-2.4
				c-1.2-0.8-2.4-1.5-3.8-2.4c-1-0.6-2-1.3-3.1-2c-0.5,0.4-0.9,1-1.1,1.7c1.6,1.1,3,1.9,4.2,2.8C5.7,16.7,6.9,17.5,8.2,18.3z"/>
			<linearGradient id="SVGID_36_" gradientUnits="userSpaceOnUse" x1="2.338180e-04" y1="34.3815" x2="97.0266" y2="34.3815">
				<stop  offset="0" style="stop-color:#BF1010"/>
				<stop  offset="2.097060e-02" style="stop-color:#C11212"/>
				<stop  offset="0.2435" style="stop-color:#D22323"/>
				<stop  offset="0.4872" style="stop-color:#DC2D2D"/>
				<stop  offset="0.7911" style="stop-color:#DF3030"/>
				<stop  offset="0.8415" style="stop-color:#DC2E2E"/>
				<stop  offset="0.8819" style="stop-color:#D22626"/>
				<stop  offset="0.919" style="stop-color:#C11919"/>
				<stop  offset="0.9537" style="stop-color:#A90808"/>
				<stop  offset="0.966" style="stop-color:#9F0000"/>
				<stop  offset="1" style="stop-color:#DF3030"/>
			</linearGradient>
			<path class="st35" d="M40.5,32.2c-1.3-0.7-2.7-1.5-4.4-2.4c-1.4,0.2-2.2,0.3-3.6,0.4c1.6,0.9,3,1.7,4.3,2.4
				c1.3,0.7,2.5,1.4,3.8,2c1.2,0.7,2.4,1.3,3.8,2c1.3,0.7,2.7,1.4,4.3,2.3c0-1,0-1.4,0-2.4c-1.7-0.9-3.1-1.6-4.4-2.3
				C43,33.6,41.8,32.9,40.5,32.2z"/>
			<linearGradient id="SVGID_37_" gradientUnits="userSpaceOnUse" x1="2.400000e-03" y1="37.1554" x2="97.0224" y2="37.1554">
				<stop  offset="0" style="stop-color:#BF1010"/>
				<stop  offset="2.097060e-02" style="stop-color:#C11212"/>
				<stop  offset="0.2435" style="stop-color:#D22323"/>
				<stop  offset="0.4872" style="stop-color:#DC2D2D"/>
				<stop  offset="0.7911" style="stop-color:#DF3030"/>
				<stop  offset="0.8415" style="stop-color:#DC2E2E"/>
				<stop  offset="0.8819" style="stop-color:#D22626"/>
				<stop  offset="0.919" style="stop-color:#C11919"/>
				<stop  offset="0.9537" style="stop-color:#A90808"/>
				<stop  offset="0.966" style="stop-color:#9F0000"/>
				<stop  offset="1" style="stop-color:#DF3030"/>
			</linearGradient>
			<path class="st36" d="M11.9,34.8c-1.3,0.9-2.5,1.8-3.7,2.6c-1.2,0.8-2.4,1.7-3.8,2.6C3,40.9,1.6,41.8,0,42.9c1.5,0,2.2,0,3.6,0
				c1.6-1.1,3-2.1,4.4-3c1.3-0.9,2.5-1.8,3.7-2.6c1.2-0.9,2.4-1.7,3.8-2.7c1.3-0.9,2.7-2,4.4-3.2c-1.4,0.1-2.2,0.2-3.6,0.2
				C14.6,32.8,13.2,33.8,11.9,34.8z"/>
		</g>
		<defs>
			<filter id="Adobe_OpacityMaskFilter" filterUnits="userSpaceOnUse" x="0" y="0" width="97" height="75.2">
				<feColorMatrix  type="matrix" values="1 0 0 0 0  0 1 0 0 0  0 0 1 0 0  0 0 0 1 0"/>
			</filter>
		</defs>
		<mask maskUnits="userSpaceOnUse" x="0" y="0" width="97" height="75.2" id="SVGID_38_">
			<g class="st37">
				<g>
					<linearGradient id="SVGID_39_" gradientUnits="userSpaceOnUse" x1="0" y1="37.5977" x2="97.0245" y2="37.5977">
						<stop  offset="0" style="stop-color:#000000"/>
						<stop  offset="0.7911" style="stop-color:#FFFFFF"/>
						<stop  offset="0.8065" style="stop-color:#F8F8F8"/>
						<stop  offset="0.829" style="stop-color:#E4E4E4"/>
						<stop  offset="0.8559" style="stop-color:#C4C4C4"/>
						<stop  offset="0.8861" style="stop-color:#979797"/>
						<stop  offset="0.9192" style="stop-color:#5E5E5E"/>
						<stop  offset="0.9542" style="stop-color:#191919"/>
						<stop  offset="0.966" style="stop-color:#000000"/>
						<stop  offset="1" style="stop-color:#BFBFBF"/>
					</linearGradient>
					<path class="st38" d="M3.6,10.5L3.6,10.5c-2,0-3.6,1.6-3.6,3.6h0c0,19.1,0,38.3,0,57.4l0,0c0,2,1.6,3.6,3.6,3.6h0
						c47.5-0.4,93.5-16.1,93.4-8.4c0-21.6,0-43.1,0-64.7C97.1-5.6,51.2,10.2,3.6,10.5z"/>
				</g>
			</g>
		</mask>
		<g class="st39">
			<linearGradient id="SVGID_40_" gradientUnits="userSpaceOnUse" x1="0" y1="37.5977" x2="97.0245" y2="37.5977">
				<stop  offset="0" style="stop-color:#404040"/>
				<stop  offset="0.7911" style="stop-color:#FFFFFF"/>
				<stop  offset="0.966" style="stop-color:#FFFFFF"/>
				<stop  offset="1" style="stop-color:#FFFFFF"/>
			</linearGradient>
			<path class="st40" d="M3.6,10.5L3.6,10.5c-2,0-3.6,1.6-3.6,3.6h0c0,19.1,0,38.3,0,57.4l0,0c0,2,1.6,3.6,3.6,3.6h0
				c47.5-0.4,93.5-16.1,93.4-8.4c0-21.6,0-43.1,0-64.7C97.1-5.6,51.2,10.2,3.6,10.5z"/>
		</g>
	</g>
</g>
</svg>
