<?xml version="1.0" encoding="utf-8"?>
<!-- Generator: Adobe Illustrator 22.1.0, SVG Export Plug-In . SVG Version: 6.00 Build 0)  -->
<svg version="1.1" id="Layer_1" xmlns="http://www.w3.org/2000/svg" xmlns:xlink="http://www.w3.org/1999/xlink" x="0px" y="0px"
	 viewBox="0 0 108.8 86.1" style="enable-background:new 0 0 108.8 86.1;" xml:space="preserve">
<style type="text/css">
	.st0{fill:url(#SVGID_1_);}
	.st1{fill:url(#SVGID_2_);}
	.st2{fill:url(#SVGID_3_);}
	.st3{fill:url(#SVGID_4_);}
	.st4{fill:url(#SVGID_5_);}
	.st5{fill:url(#SVGID_6_);}
	.st6{fill:url(#SVGID_7_);}
	.st7{fill:url(#SVGID_8_);}
	.st8{fill:url(#SVGID_9_);}
	.st9{fill:url(#SVGID_10_);}
	.st10{fill:url(#SVGID_11_);}
	.st11{fill:url(#SVGID_12_);}
	.st12{fill:url(#SVGID_13_);}
	.st13{fill:url(#SVGID_14_);}
	.st14{fill:url(#SVGID_15_);}
	.st15{fill:url(#SVGID_16_);}
	.st16{fill:url(#SVGID_17_);}
	.st17{fill:url(#SVGID_18_);}
	.st18{fill:url(#SVGID_19_);}
	.st19{fill:url(#SVGID_20_);}
	.st20{fill:url(#SVGID_21_);}
	.st21{fill:url(#SVGID_22_);}
	.st22{fill:url(#SVGID_23_);}
	.st23{fill:url(#SVGID_24_);}
	.st24{fill:url(#SVGID_25_);}
	.st25{fill:url(#SVGID_26_);}
	.st26{fill:url(#SVGID_27_);}
	.st27{fill:url(#SVGID_28_);}
	.st28{fill:url(#SVGID_29_);}
	.st29{fill:url(#SVGID_30_);}
	.st30{fill:url(#SVGID_31_);}
	.st31{fill:url(#SVGID_32_);}
	.st32{fill:url(#SVGID_33_);}
	.st33{fill:url(#SVGID_34_);}
	.st34{fill:url(#SVGID_35_);}
	.st35{fill:url(#SVGID_36_);}
	.st36{fill:url(#SVGID_37_);}
	.st37{fill:url(#SVGID_38_);}
	.st38{fill:url(#SVGID_39_);}
	.st39{fill:url(#SVGID_40_);}
	.st40{fill:url(#SVGID_41_);}
	.st41{fill:url(#SVGID_42_);}
	.st42{fill:url(#SVGID_43_);}
	.st43{fill:url(#SVGID_44_);}
	.st44{fill:url(#SVGID_45_);}
	.st45{fill:url(#SVGID_46_);}
	.st46{fill:url(#SVGID_47_);}
	.st47{fill:url(#SVGID_48_);}
	.st48{fill:url(#SVGID_49_);}
	.st49{filter:url(#Adobe_OpacityMaskFilter);}
	.st50{fill:url(#SVGID_51_);}
	.st51{opacity:0.38;mask:url(#SVGID_50_);}
	.st52{fill:url(#SVGID_52_);}
</style>
<g>
	<g>
		<g>
			<linearGradient id="SVGID_1_" gradientUnits="userSpaceOnUse" x1="9.999999e-04" y1="48.5969" x2="108.7812" y2="48.5969">
				<stop  offset="0.375" style="stop-color:#FFFFFF"/>
				<stop  offset="1" style="stop-color:#FFFFFF"/>
			</linearGradient>
			<path class="st0" d="M3.6,11.1c-2,0-3.6,1.4-3.6,3.1c0,17.4,0,39.8,0,57.4c0,2.3,1.6,4.2,3.6,4.2C57,76.4,108.8,91.7,108.8,84
				c0-19.2,0-45.5,0-64.7C108.8,11.4,57,11.1,3.6,11.1z"/>
			<linearGradient id="SVGID_2_" gradientUnits="userSpaceOnUse" x1="9.999999e-04" y1="48.3745" x2="108.2214" y2="48.3745">
				<stop  offset="0.375" style="stop-color:#F9F9F9"/>
				<stop  offset="1" style="stop-color:#FDFDFD"/>
			</linearGradient>
			<path class="st1" d="M3.6,11.1c-2,0-3.6,1.4-3.6,3.1c0,17.4,0,39.8,0,57.4c0,2.3,1.6,4.2,3.6,4.2c53.1,0.3,104.6,15.3,104.6,7.8
				c-0.1-19-0.1-45.1,0-64.1C108.2,11.8,56.7,11.1,3.6,11.1z"/>
			<linearGradient id="SVGID_3_" gradientUnits="userSpaceOnUse" x1="9.999999e-04" y1="48.1685" x2="107.6615" y2="48.1685">
				<stop  offset="0.375" style="stop-color:#F3F3F3"/>
				<stop  offset="1" style="stop-color:#FAFAFA"/>
			</linearGradient>
			<path class="st2" d="M3.6,11.1c-2,0-3.6,1.4-3.6,3.1c0,17.4,0,39.8,0,57.4c0,2.3,1.6,4.2,3.6,4.2c52.8,0.3,104.1,14.8,104,7.4
				c-0.1-18.8-0.1-44.7,0-63.5C107.7,12.3,56.5,11.1,3.6,11.1z"/>
			<linearGradient id="SVGID_4_" gradientUnits="userSpaceOnUse" x1="9.999999e-04" y1="47.9627" x2="107.1017" y2="47.9627">
				<stop  offset="0.375" style="stop-color:#EDEDED"/>
				<stop  offset="0.8367" style="stop-color:#F4F4F4"/>
				<stop  offset="1" style="stop-color:#F8F8F8"/>
			</linearGradient>
			<path class="st3" d="M3.6,11.1c-2,0-3.6,1.4-3.6,3.1c0,17.4,0,39.8,0,57.4c0,2.3,1.6,4.2,3.6,4.2c52.5,0.3,103.5,14.2,103.5,7.1
				c-0.1-18.6-0.1-44.3,0-62.9C107.1,12.7,56.2,11.1,3.6,11.1z"/>
			<linearGradient id="SVGID_5_" gradientUnits="userSpaceOnUse" x1="9.999999e-04" y1="47.757" x2="106.5418" y2="47.757">
				<stop  offset="0.375" style="stop-color:#E7E7E7"/>
				<stop  offset="0.7491" style="stop-color:#EEEEEE"/>
				<stop  offset="1" style="stop-color:#F6F6F6"/>
			</linearGradient>
			<path class="st4" d="M3.6,11.1c-2,0-3.6,1.4-3.6,3.1c0,17.4,0,39.8,0,57.4c0,2.3,1.6,4.2,3.6,4.2c52.3,0.3,102.9,13.6,102.9,6.7
				c-0.1-18.4-0.1-43.9,0-62.2C106.6,13.1,55.9,11.2,3.6,11.1z"/>
			<linearGradient id="SVGID_6_" gradientUnits="userSpaceOnUse" x1="9.999999e-04" y1="47.5516" x2="105.982" y2="47.5516">
				<stop  offset="0.375" style="stop-color:#E1E1E1"/>
				<stop  offset="0.6937" style="stop-color:#E8E8E8"/>
				<stop  offset="1" style="stop-color:#F4F4F4"/>
			</linearGradient>
			<path class="st5" d="M3.6,11.1c-2,0-3.6,1.4-3.6,3.1c0,17.4,0,39.8,0,57.4c0,2.3,1.6,4.2,3.6,4.2C55.6,76,106,88.8,106,82.1
				c-0.1-18.2-0.1-43.5,0-61.6C106,13.5,55.6,11.2,3.6,11.1z"/>
			<linearGradient id="SVGID_7_" gradientUnits="userSpaceOnUse" x1="9.999999e-04" y1="47.3465" x2="105.4221" y2="47.3465">
				<stop  offset="0.375" style="stop-color:#DBDBDB"/>
				<stop  offset="0.6638" style="stop-color:#E2E2E2"/>
				<stop  offset="1" style="stop-color:#F1F1F1"/>
			</linearGradient>
			<path class="st6" d="M3.6,11.1c-2,0-3.6,1.4-3.6,3.1c0,17.4,0,39.8,0,57.4c0,2.3,1.6,4.2,3.6,4.2c51.7,0.3,101.8,12.5,101.8,5.9
				c-0.1-18-0.1-43.1,0-61C105.4,13.9,55.3,11.2,3.6,11.1z"/>
			<linearGradient id="SVGID_8_" gradientUnits="userSpaceOnUse" x1="9.999999e-04" y1="47.1417" x2="104.8623" y2="47.1417">
				<stop  offset="0.375" style="stop-color:#D5D5D5"/>
				<stop  offset="0.6329" style="stop-color:#DCDCDC"/>
				<stop  offset="1" style="stop-color:#EFEFEF"/>
			</linearGradient>
			<path class="st7" d="M3.6,11.1c-2,0-3.6,1.4-3.6,3.1c0,17.4,0,39.8,0,57.4c0,2.3,1.6,4.2,3.6,4.2c51.4,0.3,101.3,12,101.2,5.5
				c-0.1-17.8-0.1-42.6,0-60.4C104.9,14.3,55,11.2,3.6,11.1z"/>
			<linearGradient id="SVGID_9_" gradientUnits="userSpaceOnUse" x1="9.999999e-04" y1="46.9372" x2="104.3024" y2="46.9372">
				<stop  offset="0.375" style="stop-color:#CFCFCF"/>
				<stop  offset="0.609" style="stop-color:#D6D6D6"/>
				<stop  offset="0.9505" style="stop-color:#EAEAEA"/>
				<stop  offset="1" style="stop-color:#EDEDED"/>
			</linearGradient>
			<path class="st8" d="M3.6,11.1c-2,0-3.6,1.4-3.6,3.1c0,17.4,0,39.8,0,57.4c0,2.3,1.6,4.2,3.6,4.2c51.1,0.2,100.7,11.4,100.7,5.2
				c-0.1-17.6-0.1-42.2,0-59.8C104.3,14.7,54.8,11.1,3.6,11.1z"/>
			<linearGradient id="SVGID_10_" gradientUnits="userSpaceOnUse" x1="9.999999e-04" y1="46.7331" x2="103.7426" y2="46.7331">
				<stop  offset="0.375" style="stop-color:#C9C9C9"/>
				<stop  offset="0.5944" style="stop-color:#D0D0D0"/>
				<stop  offset="0.9144" style="stop-color:#E4E4E4"/>
				<stop  offset="1" style="stop-color:#EAEAEA"/>
			</linearGradient>
			<path class="st9" d="M3.6,11.1c-2,0-3.6,1.4-3.6,3.1c0,17.4,0,39.8,0,57.4c0,2.3,1.6,4.2,3.6,4.2c50.8,0.2,100.1,10.8,100.1,4.8
				c-0.1-17.4-0.1-41.8,0-59.2C103.8,15.2,54.5,11.1,3.6,11.1z"/>
			<linearGradient id="SVGID_11_" gradientUnits="userSpaceOnUse" x1="9.999999e-04" y1="46.5295" x2="103.1827" y2="46.5295">
				<stop  offset="0.375" style="stop-color:#C3C3C3"/>
				<stop  offset="0.578" style="stop-color:#CACACA"/>
				<stop  offset="0.8742" style="stop-color:#DEDEDE"/>
				<stop  offset="1" style="stop-color:#E8E8E8"/>
			</linearGradient>
			<path class="st10" d="M3.6,11.1c-2,0-3.6,1.4-3.6,3.1c0,17.4,0,39.8,0,57.4c0,2.3,1.6,4.2,3.6,4.2c50.6,0.2,99.6,10.3,99.6,4.4
				c-0.1-17.2-0.1-41.4,0-58.6C103.2,15.6,54.2,11.1,3.6,11.1z"/>
			<linearGradient id="SVGID_12_" gradientUnits="userSpaceOnUse" x1="9.999999e-04" y1="46.3263" x2="102.6229" y2="46.3263">
				<stop  offset="0.375" style="stop-color:#BCBCBC"/>
				<stop  offset="0.5613" style="stop-color:#C3C3C3"/>
				<stop  offset="0.833" style="stop-color:#D7D7D7"/>
				<stop  offset="1" style="stop-color:#E6E6E6"/>
			</linearGradient>
			<path class="st11" d="M3.6,11.1c-2,0-3.6,1.4-3.6,3.1c0,17.4,0,39.8,0,57.4c0,2.3,1.6,4.2,3.6,4.2c50.3,0.2,99,9.7,99,4
				c-0.1-17-0.1-41,0-58C102.6,16,53.9,11.2,3.6,11.1z"/>
			<linearGradient id="SVGID_13_" gradientUnits="userSpaceOnUse" x1="9.999999e-04" y1="46.1237" x2="102.063" y2="46.1237">
				<stop  offset="0.375" style="stop-color:#B6B6B6"/>
				<stop  offset="0.5502" style="stop-color:#BDBDBD"/>
				<stop  offset="0.8056" style="stop-color:#D1D1D1"/>
				<stop  offset="1" style="stop-color:#E4E4E4"/>
			</linearGradient>
			<path class="st12" d="M3.6,11.1c-2,0-3.6,1.4-3.6,3.1c0,17.4,0,39.8,0,57.4c0,2.3,1.6,4.2,3.6,4.2c50,0.2,98.5,9.1,98.4,3.7
				c-0.1-16.8-0.1-40.6,0-57.4C102.1,16.4,53.6,11.2,3.6,11.1z"/>
			<linearGradient id="SVGID_14_" gradientUnits="userSpaceOnUse" x1="9.999999e-04" y1="45.9218" x2="101.5032" y2="45.9218">
				<stop  offset="0.375" style="stop-color:#B0B0B0"/>
				<stop  offset="0.5428" style="stop-color:#B7B7B7"/>
				<stop  offset="0.7876" style="stop-color:#CBCBCB"/>
				<stop  offset="1" style="stop-color:#E1E1E1"/>
			</linearGradient>
			<path class="st13" d="M3.6,11.1c-2,0-3.6,1.4-3.6,3.1c0,17.4,0,39.8,0,57.4c0,2.3,1.6,4.2,3.6,4.2c49.7,0.2,97.9,8.6,97.9,3.3
				c-0.1-16.6-0.1-40.2,0-56.8C101.5,16.8,53.4,11.2,3.6,11.1z"/>
			<linearGradient id="SVGID_15_" gradientUnits="userSpaceOnUse" x1="9.999999e-04" y1="45.7208" x2="100.9433" y2="45.7208">
				<stop  offset="0.375" style="stop-color:#AAAAAA"/>
				<stop  offset="0.5341" style="stop-color:#B1B1B1"/>
				<stop  offset="0.7668" style="stop-color:#C5C5C5"/>
				<stop  offset="1" style="stop-color:#DFDFDF"/>
			</linearGradient>
			<path class="st14" d="M3.6,11.1c-2,0-3.6,1.4-3.6,3.1c0,17.4,0,39.8,0,57.4c0,2.3,1.6,4.2,3.6,4.2c49.4,0.2,97.3,8,97.3,2.9
				c-0.1-16.3-0.1-39.8,0-56.1C101,17.2,53.1,11.2,3.6,11.1z"/>
			<linearGradient id="SVGID_16_" gradientUnits="userSpaceOnUse" x1="9.999999e-04" y1="45.5206" x2="100.3835" y2="45.5206">
				<stop  offset="0.375" style="stop-color:#A4A4A4"/>
				<stop  offset="0.5265" style="stop-color:#ABABAB"/>
				<stop  offset="0.7479" style="stop-color:#BFBFBF"/>
				<stop  offset="1" style="stop-color:#DDDDDD"/>
			</linearGradient>
			<path class="st15" d="M3.6,11.1c-2,0-3.6,1.4-3.6,3.1c0,17.4,0,39.8,0,57.4c0,2.3,1.6,4.2,3.6,4.2c49.1,0.2,96.8,7.4,96.8,2.5
				c-0.1-16.1-0.1-39.4,0-55.5C100.4,17.7,52.8,11.2,3.6,11.1z"/>
			<linearGradient id="SVGID_17_" gradientUnits="userSpaceOnUse" x1="9.999999e-04" y1="45.3217" x2="99.8236" y2="45.3217">
				<stop  offset="0.375" style="stop-color:#9E9E9E"/>
				<stop  offset="0.5213" style="stop-color:#A5A5A5"/>
				<stop  offset="0.7352" style="stop-color:#B9B9B9"/>
				<stop  offset="0.9896" style="stop-color:#D9D9D9"/>
				<stop  offset="1" style="stop-color:#DADADA"/>
			</linearGradient>
			<path class="st16" d="M3.6,11.1c-2,0-3.6,1.4-3.6,3.1c0,17.4,0,39.8,0,57.4c0,2.3,1.6,4.2,3.6,4.2c48.9,0.2,96.2,6.9,96.2,2.1
				c-0.1-15.9-0.1-39,0-54.9C99.8,18.1,52.5,11.2,3.6,11.1z"/>
			<linearGradient id="SVGID_18_" gradientUnits="userSpaceOnUse" x1="9.999999e-04" y1="45.1241" x2="99.2638" y2="45.1241">
				<stop  offset="0.375" style="stop-color:#989898"/>
				<stop  offset="0.515" style="stop-color:#9F9F9F"/>
				<stop  offset="0.7198" style="stop-color:#B3B3B3"/>
				<stop  offset="0.9632" style="stop-color:#D3D3D3"/>
				<stop  offset="1" style="stop-color:#D8D8D8"/>
			</linearGradient>
			<path class="st17" d="M3.6,11.1c-2,0-3.6,1.4-3.6,3.1c0,17.4,0,39.8,0,57.4c0,2.3,1.6,4.2,3.6,4.2c48.6,0.1,95.7,6.3,95.6,1.8
				c-0.1-15.7-0.1-38.6,0-54.3C99.3,18.5,52.2,11.2,3.6,11.1z"/>
			<linearGradient id="SVGID_19_" gradientUnits="userSpaceOnUse" x1="9.999999e-04" y1="44.9283" x2="98.7039" y2="44.9283">
				<stop  offset="0.375" style="stop-color:#929292"/>
				<stop  offset="0.5094" style="stop-color:#999999"/>
				<stop  offset="0.7059" style="stop-color:#ADADAD"/>
				<stop  offset="0.9396" style="stop-color:#CDCDCD"/>
				<stop  offset="1" style="stop-color:#D6D6D6"/>
			</linearGradient>
			<path class="st18" d="M3.6,11.1c-2,0-3.6,1.4-3.6,3.1c0,17.4,0,39.8,0,57.4c0,2.3,1.6,4.2,3.6,4.2c48.3,0.1,95.1,5.7,95.1,1.4
				c-0.1-15.5-0.1-38.2,0-53.7C98.7,18.9,52,11.2,3.6,11.1z"/>
			<linearGradient id="SVGID_20_" gradientUnits="userSpaceOnUse" x1="9.999999e-04" y1="44.7346" x2="98.1441" y2="44.7346">
				<stop  offset="0.375" style="stop-color:#8C8C8C"/>
				<stop  offset="0.5043" style="stop-color:#939393"/>
				<stop  offset="0.6934" style="stop-color:#A7A7A7"/>
				<stop  offset="0.9181" style="stop-color:#C7C7C7"/>
				<stop  offset="1" style="stop-color:#D4D4D4"/>
			</linearGradient>
			<path class="st19" d="M3.6,11.1c-2,0-3.6,1.4-3.6,3.1c0,17.4,0,39.8,0,57.4c0,2.3,1.6,4.2,3.6,4.2c48,0.1,94.5,5.2,94.5,1
				c-0.1-15.3-0.1-37.8,0-53.1C98.2,19.3,51.7,11.2,3.6,11.1z"/>
			<linearGradient id="SVGID_21_" gradientUnits="userSpaceOnUse" x1="9.999999e-04" y1="44.5437" x2="97.5843" y2="44.5437">
				<stop  offset="0.375" style="stop-color:#868686"/>
				<stop  offset="0.5008" style="stop-color:#8D8D8D"/>
				<stop  offset="0.6847" style="stop-color:#A1A1A1"/>
				<stop  offset="0.9032" style="stop-color:#C1C1C1"/>
				<stop  offset="1" style="stop-color:#D1D1D1"/>
			</linearGradient>
			<path class="st20" d="M3.6,11.1c-2,0-3.6,1.4-3.6,3.1c0,17.4,0,39.8,0,57.4c0,2.3,1.6,4.2,3.6,4.2c47.7,0.1,94,4.6,94,0.6
				c-0.1-15.1-0.1-37.4,0-52.5C97.6,19.7,51.4,11.2,3.6,11.1z"/>
			<linearGradient id="SVGID_22_" gradientUnits="userSpaceOnUse" x1="9.999999e-04" y1="44.3667" x2="97.0244" y2="44.3667">
				<stop  offset="0.375" style="stop-color:#808080"/>
				<stop  offset="0.4964" style="stop-color:#878787"/>
				<stop  offset="0.674" style="stop-color:#9B9B9B"/>
				<stop  offset="0.885" style="stop-color:#BBBBBB"/>
				<stop  offset="1" style="stop-color:#CFCFCF"/>
			</linearGradient>
			<path class="st21" d="M3.6,11.1c-2,0-3.6,1.4-3.6,3.1c0,17.4,0,39.8,0,57.4c0,2.3,1.6,4.2,3.6,4.2C51.1,75.9,97.1,79.8,97,76
				c0-14.9,0-37,0-51.9C97.1,20.1,51.1,11.5,3.6,11.1z"/>
		</g>
		<g>
			<g>
				<linearGradient id="SVGID_23_" gradientUnits="userSpaceOnUse" x1="9.999999e-04" y1="67.0543" x2="97.0244" y2="67.0543">
					<stop  offset="0" style="stop-color:#000000"/>
					<stop  offset="0.4877" style="stop-color:#030303"/>
					<stop  offset="0.8789" style="stop-color:#0D0D0D"/>
					<stop  offset="1" style="stop-color:#121212"/>
				</linearGradient>
				<path class="st22" d="M0,71.6c0,2.3,1.6,4.2,3.6,4.2c47.5,0.3,93.4-1.9,93.4-9C97,45.2,0,71.6,0,71.6z"/>
				<g>
					<linearGradient id="SVGID_24_" gradientUnits="userSpaceOnUse" x1="48.5127" y1="58.3081" x2="48.5127" y2="75.8192">
						<stop  offset="0.35" style="stop-color:#242424"/>
						<stop  offset="0.7089" style="stop-color:#222222"/>
						<stop  offset="0.8382" style="stop-color:#1B1B1B"/>
						<stop  offset="0.93" style="stop-color:#101010"/>
						<stop  offset="1" style="stop-color:#000000"/>
					</linearGradient>
					<path class="st23" d="M0,71.6L0,71.6c0,2.3,1.6,4.2,3.6,4.2c47.5,0.4,93.3-1.1,93.4-9C97,45.2,0,71.6,0,71.6z M3.6,75.5
						c-0.1,0-0.3,0-0.4,0c-1.5-0.2-2.7-1.3-3.1-2.7C0.6,74.3,2,75.5,3.6,75.5c47.5-0.3,92.7-14.9,92.7-8.5
						C96.3,73.6,51.1,75.8,3.6,75.5z"/>
				</g>
			</g>
			<linearGradient id="SVGID_25_" gradientUnits="userSpaceOnUse" x1="9.999999e-04" y1="21.4538" x2="97.0245" y2="21.4538">
				<stop  offset="0" style="stop-color:#CF2000"/>
				<stop  offset="2.097060e-02" style="stop-color:#D12201"/>
				<stop  offset="0.2435" style="stop-color:#E23309"/>
				<stop  offset="0.4872" style="stop-color:#EC3D0E"/>
				<stop  offset="0.7911" style="stop-color:#EF4010"/>
				<stop  offset="0.8415" style="stop-color:#EC3D0F"/>
				<stop  offset="0.8819" style="stop-color:#E2330D"/>
				<stop  offset="0.919" style="stop-color:#D12208"/>
				<stop  offset="0.9537" style="stop-color:#B90A03"/>
				<stop  offset="0.966" style="stop-color:#AF0000"/>
				<stop  offset="1" style="stop-color:#EF4010"/>
			</linearGradient>
			<path class="st24" d="M10.6,42.7c1.7-0.1,3.4-0.1,5-0.2c1.6-0.1,3.2-0.2,4.8-0.3c1.6-0.1,3.1-0.2,4.6-0.4c1.5-0.1,3-0.3,4.5-0.4
				c1.5-0.1,2.9-0.3,4.4-0.5c1.4-0.2,2.9-0.3,4.3-0.5c1.4-0.2,2.8-0.4,4.2-0.5c1.4-0.2,2.8-0.4,4.2-0.6c1.4-0.2,2.8-0.4,4.2-0.6
				c1.4-0.2,2.8-0.4,4.2-0.6c1.4-0.2,2.8-0.4,4.2-0.7c1.4-0.2,2.8-0.5,4.3-0.7c1.4-0.2,2.9-0.5,4.4-0.7c1.5-0.3,3-0.5,4.5-0.8
				c1.5-0.3,3-0.5,4.6-0.8c1.6-0.3,3.1-0.5,4.8-0.8c1.6-0.2,3.1-0.5,5.1-0.7c2-0.2,4.5-0.5,6.6-0.4c2.1,0.1,3.7,0.7,3.7,2.1v0
				c0-10.8,0-21.6,0-32.4c0.1-7.7-45.9,8-93.4,8.4c-2,0-3.6,1.6-3.6,3.6c0,9.6,0,19.2,0,28.8c1.9,0,3.7,0,5.4-0.1
				C7.2,42.8,8.9,42.8,10.6,42.7z"/>
			<linearGradient id="SVGID_26_" gradientUnits="userSpaceOnUse" x1="9.999999e-04" y1="53.7676" x2="97.0245" y2="53.7676">
				<stop  offset="0" style="stop-color:#242424"/>
				<stop  offset="0.3346" style="stop-color:#2D2D2D"/>
				<stop  offset="0.7911" style="stop-color:#303030"/>
				<stop  offset="0.8668" style="stop-color:#2D2D2D"/>
				<stop  offset="0.9275" style="stop-color:#232323"/>
				<stop  offset="0.966" style="stop-color:#181818"/>
				<stop  offset="1" style="stop-color:#303030"/>
			</linearGradient>
			<path class="st25" d="M3.6,75.2c47.5-0.4,93.5-16.1,93.4-8.4c0-10.8,0-21.5,0-32.3v0c0-1.5-1.6-2-3.7-2.1
				c-2.1-0.1-4.6,0.1-6.6,0.4c-2,0.2-3.5,0.5-5.1,0.7c-1.6,0.2-3.2,0.5-4.8,0.8c-1.6,0.3-3.1,0.5-4.6,0.8c-1.5,0.3-3,0.5-4.5,0.8
				c-1.5,0.3-2.9,0.5-4.4,0.7c-1.4,0.2-2.9,0.5-4.3,0.7c-1.4,0.2-2.8,0.5-4.2,0.7c-1.4,0.2-2.8,0.4-4.2,0.6
				c-1.4,0.2-2.8,0.4-4.2,0.6c-1.4,0.2-2.8,0.4-4.2,0.6c-1.4,0.2-2.8,0.4-4.2,0.5c-1.4,0.2-2.8,0.3-4.3,0.5
				c-1.4,0.2-2.9,0.3-4.4,0.5c-1.5,0.1-3,0.3-4.5,0.4c-1.5,0.1-3.1,0.3-4.6,0.4c-1.6,0.1-3.2,0.2-4.8,0.3c-1.6,0.1-3.3,0.2-5,0.2
				c-1.7,0.1-3.4,0.1-5.2,0.2c-1.8,0-3.6,0.1-5.4,0.1C0,52.5,0,62,0,71.6C0,73.6,1.6,75.2,3.6,75.2z"/>
			<g>
				<linearGradient id="SVGID_27_" gradientUnits="userSpaceOnUse" x1="9.999999e-04" y1="37.6247" x2="97.0244" y2="37.6247">
					<stop  offset="0" style="stop-color:#DFDFDF"/>
					<stop  offset="2.097060e-02" style="stop-color:#E1E1E1"/>
					<stop  offset="0.2435" style="stop-color:#F2F2F2"/>
					<stop  offset="0.4872" style="stop-color:#FCFCFC"/>
					<stop  offset="0.7911" style="stop-color:#FFFFFF"/>
					<stop  offset="0.8415" style="stop-color:#FCFCFC"/>
					<stop  offset="0.8819" style="stop-color:#F2F2F2"/>
					<stop  offset="0.919" style="stop-color:#E1E1E1"/>
					<stop  offset="0.9537" style="stop-color:#C9C9C9"/>
					<stop  offset="0.966" style="stop-color:#BFBFBF"/>
					<stop  offset="1" style="stop-color:#FFFFFF"/>
				</linearGradient>
				<path class="st26" d="M93.3,21.6c-2.1-0.1-4.6,0.1-6.6,0.4c-2,0.2-3.5,0.5-5.1,0.7c-1.6,0.2-3.2,0.5-4.8,0.8
					c-1.6,0.3-3.1,0.5-4.6,0.8c-1.5,0.3-3,0.5-4.5,0.8c-1.5,0.3-2.9,0.5-4.4,0.8c-1.4,0.2-2.9,0.5-4.3,0.7c-1.4,0.2-2.8,0.5-4.2,0.7
					c-1.4,0.2-2.8,0.4-4.2,0.6c-1.4,0.2-2.8,0.4-4.1,0.6c-1.4,0.2-2.8,0.4-4.2,0.6c-1.4,0.2-2.8,0.4-4.2,0.5
					c-1.4,0.2-2.8,0.3-4.3,0.5c-1.4,0.2-2.9,0.3-4.4,0.5c-1.5,0.1-3,0.3-4.5,0.4c-1.5,0.1-3.1,0.3-4.6,0.4c-1.6,0.1-3.2,0.2-4.8,0.3
					c-1.6,0.1-3.3,0.2-5,0.2C8.9,32,7.2,32,5.4,32.1c-1.8,0-3.6,0.1-5.4,0.1c0,7.2,0,14.4,0,21.6c1.9,0,3.7,0,5.4-0.1
					c1.8,0,3.5-0.1,5.2-0.2c1.7-0.1,3.4-0.1,5-0.2c1.6-0.1,3.2-0.2,4.8-0.3c1.6-0.1,3.1-0.2,4.6-0.4c1.5-0.1,3-0.3,4.5-0.4
					c1.5-0.1,2.9-0.3,4.4-0.5c1.4-0.2,2.9-0.3,4.3-0.5c1.4-0.2,2.8-0.4,4.2-0.5c1.4-0.2,2.8-0.4,4.2-0.6c1.4-0.2,2.8-0.4,4.2-0.6
					c1.4-0.2,2.8-0.4,4.2-0.6c1.4-0.2,2.8-0.4,4.2-0.7c1.4-0.2,2.8-0.5,4.3-0.7c1.4-0.2,2.9-0.5,4.4-0.8c1.5-0.3,3-0.5,4.5-0.8
					c1.5-0.3,3-0.5,4.6-0.8c1.6-0.3,3.1-0.5,4.8-0.8c1.6-0.2,3.1-0.5,5.1-0.7c2-0.2,4.5-0.5,6.6-0.4c2.1,0.1,3.7,0.7,3.7,2.1l0,0
					c0-7.2,0-14.4,0-21.6C97,22.3,95.4,21.7,93.3,21.6z"/>
			</g>
			<g>
				<linearGradient id="SVGID_28_" gradientUnits="userSpaceOnUse" x1="-1.340070e-03" y1="39.0939" x2="97.0272" y2="39.0939">
					<stop  offset="0" style="stop-color:#F87F00"/>
					<stop  offset="2.097060e-02" style="stop-color:#F88102"/>
					<stop  offset="0.2435" style="stop-color:#FC9213"/>
					<stop  offset="0.4872" style="stop-color:#FE9C1D"/>
					<stop  offset="0.7911" style="stop-color:#FF9F20"/>
					<stop  offset="0.8415" style="stop-color:#FD9C1E"/>
					<stop  offset="0.8819" style="stop-color:#F79219"/>
					<stop  offset="0.919" style="stop-color:#ED8111"/>
					<stop  offset="0.9537" style="stop-color:#DE6905"/>
					<stop  offset="0.966" style="stop-color:#D85F00"/>
					<stop  offset="1" style="stop-color:#FF9F20"/>
				</linearGradient>
				<path class="st27" d="M55.9,36.8c-0.1-1.3-0.1-2.7-0.2-4.3c0-1-0.6-1.4-1.3-1.3c-0.6,0.1-1.2,0.5-1.8,0.9
					c-0.6,0.5-1.3,0.8-2.1,0.9c-0.3-0.4-0.5-1.3-0.5-2.1c0-0.1,0-0.1,0-0.2c0-0.1,0-0.2,0-0.3c0-0.9-0.2-1.3-0.4-1.5
					c-0.3-0.2-1-0.3-1.4-0.2c0,0,0,0,0,0c-0.2,0-0.2,0.1-0.3,0.2c-0.2,0-0.5,0-0.7,0c-0.2,0-0.3,0.1-0.5,0.2
					c-0.2,0.2-0.2,0.5-0.2,0.7c0,0.1,0,0.2,0.2,0.3c0,0,0.1,0,0.1,0c0.1-0.1,0.2-0.1,0.3-0.1c0.2,0,0.3,0.1,0.5,0.3
					c0.1,0.1,0.1,0.3,0.1,0.5c0,0.3-0.1,0.8-0.2,1.3c-0.2,0.6-0.5,1.2-0.8,1.6c-0.7,0.1-1.4,0-2-0.3c-0.6-0.2-1.2-0.4-1.8-0.4
					c-0.7,0.1-1.2,0.6-1.3,1.6c-0.1,1.7-0.1,3.1-0.2,4.4c-0.1,1.3-0.1,2.5-0.2,3.8c-0.1,1.3-0.1,2.7-0.2,4.4c0,0,0,0.1,0.1,0.1
					c0,0,0,0,0,0c0,0,0.1,0,0.1,0c0.8-0.8,1.3-1.4,1.9-2c0.6-0.6,1.1-1.2,1.9-2c-0.3,1.1-0.5,1.7-0.8,2.8c-0.1,0-0.3,0-0.4-0.1
					c0,0-0.1,0-0.1,0c-0.1,0-0.2,0.1-0.3,0.1c0,0,0,0,0,0c-0.4,0.1-0.7,0.5-0.7,0.8c0,0.1,0,0.2,0.1,0.3c0,0,0,0,0,0
					c0,0,0,0.1,0,0.1c-0.4,0.1-0.6,0.7-0.7,0.6c0,0,0,0,0,0c0,0,0,0,0,0c0,0,0,0,0,0c-0.1,0-0.1,0.1-0.1,0.1c0,0.1,0,0.1,0.1,0.1
					c0,0,0.1,0,0.1,0c0,0,0,0,0,0c0.1,0.1,0,0.5,0.4,0.7c0,0.3,0.1,0.7,0.6,0.7c0.6,0.1,1.4,0.1,2.4,0.1c0.9,0,2-0.2,3.1-0.3
					c1.1-0.2,2.1-0.4,3.1-0.6c0.9-0.2,1.8-0.5,2.4-0.8c0.5-0.2,0.6-0.5,0.6-0.8c0.4-0.3,0.4-0.7,0.4-0.8c0,0,0,0,0,0
					c0,0,0.1,0,0.1,0c0.1,0,0.1-0.1,0.1-0.1c0-0.1-0.1-0.1-0.1-0.1c0,0,0,0,0,0l0,0c0,0,0,0,0,0c-0.2,0.1-0.3-0.4-0.7-0.4
					c0,0,0,0,0-0.1c0,0,0,0,0,0c0-0.1,0.1-0.2,0.1-0.3c0-0.3-0.2-0.7-0.7-0.6c0,0,0,0,0,0c-0.1,0-0.2-0.1-0.3-0.1c0,0-0.1,0-0.1,0
					c-0.1,0.1-0.3,0.1-0.4,0.2c-0.3-1.1-0.5-1.6-0.8-2.7c1.5,1.2,2.3,1.8,3.8,2.9c0,0,0.1,0,0.1,0c0,0,0.1-0.1,0.1-0.1
					c-0.1-1.6-0.1-3-0.2-4.3C56,39.3,56,38.1,55.9,36.8z M48.5,29.2c0.1,0,0.1,0,0.1,0.1c0,0.1-0.1,0.1-0.1,0.1
					c-0.1,0-0.1,0-0.1-0.1C48.4,29.3,48.5,29.2,48.5,29.2z M46.8,33.8c0.1-0.1,0.1-0.2,0.2-0.3c0.2-0.4,0.5-1,0.7-1.5
					c0.2-0.5,0.2-1,0.2-1.4c0-0.2,0-0.3-0.1-0.4c0,0,0,0,0,0c0.1-0.1,0.4-0.1,0.4-0.1c-0.4-0.6-0.9-0.7-1.1-0.7
					c-0.1,0-0.2,0.2-0.3,0.3c0,0,0,0-0.1,0c0,0,0,0,0,0c0-0.2,0.1-0.4,0.1-0.5c0.1,0,0.1-0.1,0.2-0.1c0.3-0.1,0.4,0,0.6,0.1
					c0.2,0.2,0.4,0.2,0.5,0.2c0,0,0.1,0.1,0.1,0.1c0,0,0,0.1,0.1,0c0.1,0,0.1-0.2,0.2-0.2c0.1-0.1,0.2-0.1,0.2-0.1
					c0.2-0.1,0.2-0.1,0.3-0.1c0,0,0.2,0,0.3,0c0.1,0.1,0.3,0.5,0.3,1.3c0,0.1,0,0.2,0,0.3c0,0.1,0,0.1,0,0.2c0,0.8,0.2,1.6,0.5,2.1
					c0,0.1,0.1,0.2,0.1,0.2c0,0,0,0,0,0c-0.1,0-0.2,0-0.3,0c-0.1,0-0.1,0-0.2-0.1c0,0-0.1-0.1-0.1-0.1c-0.1-0.1-0.1-0.2-0.1-0.4
					c0-0.2-0.1-0.3-0.1-0.5c-0.1-0.6-0.1-1.1-0.1-1.1c0-0.1-0.1-0.1-0.1-0.1c-0.1,0-0.1,0.1-0.1,0.1c0,0,0,0,0,0
					c0,0,0.1,1.2,0.4,1.9c0,0.1,0.1,0.1,0.1,0.2c0,0,0,0,0,0.1c0,0,0,0,0,0c0,0,0.1,0.1,0.1,0.2c-0.4,0-0.6-0.2-0.7-0.3
					c0,0,0,0,0-0.1c0-0.1,0-0.1,0-0.2c-0.1-0.6-0.1-1.9-0.1-1.9c0-0.1-0.1-0.1-0.1-0.1c-0.1,0-0.1,0.1-0.1,0.1c0,0,0,1.2,0.1,1.9
					c0,0.1,0,0.2,0,0.2c0,0.1,0,0.1,0,0.1c-0.1,0.1-0.2,0.2-0.3,0.4c-0.1-0.1-0.2-0.2-0.3-0.3c0,0,0-0.1,0.1-0.2
					c0-0.1,0-0.2,0.1-0.3c0.2-0.8,0.3-2,0.3-2c0-0.1,0-0.1-0.1-0.1c-0.1,0-0.1,0.1-0.1,0.1c0,0.1-0.1,1.3-0.3,2.1
					c0,0.1-0.1,0.2-0.1,0.3c0,0,0,0,0,0c0,0-0.3,0.3-0.6,0.5c0-0.1,0-0.2,0.1-0.3c0,0,0,0,0,0c0.1-0.1,0.1-0.2,0.1-0.3
					c0.4-0.8,0.5-2.1,0.5-2.2c0-0.1,0-0.1-0.1-0.1c-0.1,0-0.1,0.1-0.1,0.1c0,0-0.1,0.5-0.2,1c-0.1,0.3-0.1,0.6-0.2,0.8
					c-0.1,0.2-0.1,0.3-0.2,0.4c0,0,0,0,0,0.1c0,0-0.2,0.1-0.4,0.3c-0.1,0.1-0.2,0.1-0.3,0.2C46.8,33.9,46.8,33.8,46.8,33.8z
					 M45,44.1c0.1,0.5,0.2,0.7,0.3,1.2c-0.2,0.3-0.3,0.5-0.5,0.8c-0.1,0-0.2,0-0.3,0C44.7,45.3,44.8,44.9,45,44.1z M47.9,46.4
					C47.8,46.5,47.8,46.5,47.9,46.4c-0.1,0.1-0.1,0.1-0.2,0.1c-0.2,0-0.4,0.1-0.6,0.1c-0.3,0.1-0.7,0.1-1,0.1c0,0,0,0,0,0
					c0,0,0-0.1,0-0.1c0,0,0-0.1,0-0.1c0,0,0-0.1,0-0.1c0,0,0,0,0,0c0,0,0,0-0.1-0.1c0,0,0,0,0,0c0,0,0.1,0,0.1,0c0.2,0,0.3,0,0.5,0
					c0.1,0,0.2,0,0.2,0c0.1,0,0.2,0,0.3,0c0,0,0.1,0,0.1,0c0,0,0.1,0,0.1,0c0,0,0,0,0,0c0.2,0,0.4-0.1,0.6-0.1
					c0.1,0,0.2,0.1,0.2,0.2C48,46.3,47.9,46.4,47.9,46.4z M48.2,46.4c0,0,0.1-0.1,0.1-0.2c0,0,0,0,0,0c0.1,0,0.1,0.1,0.1,0.1
					c0,0,0,0.1,0,0.1c0,0,0,0,0,0.1c0,0.1,0,0.2-0.1,0.3c-0.1-0.1-0.3-0.2-0.3-0.2c0,0,0,0,0,0c0,0,0,0,0,0
					C48,46.6,48.1,46.5,48.2,46.4z M46.1,46.1c0.1-0.1,0.1-0.2,0.2-0.3c0,0.1,0.1,0.2,0.1,0.3C46.3,46.1,46.2,46.1,46.1,46.1z
					 M47.2,44.1c0.2-0.3,0.3-0.5,0.5-0.8c-0.1,0.6-0.2,0.9-0.3,1.5C47.3,44.5,47.2,44.4,47.2,44.1z M47.2,45.4
					c-0.1,0.3-0.1,0.4-0.1,0.7c-0.1,0-0.3,0-0.5,0c-0.1-0.2-0.1-0.4-0.2-0.6c0,0,0-0.1-0.1-0.1c0,0-0.1,0-0.1,0.1
					c-0.1,0.2-0.2,0.4-0.3,0.6c0,0,0,0-0.1,0c-0.1-0.3-0.2-0.5-0.3-0.8c0.2-0.3,0.3-0.5,0.5-0.9c0.1,0.3,0.2,0.5,0.3,0.8
					c0,0,0,0.1,0.1,0.1c0,0,0.1,0,0.1-0.1c0.2-0.3,0.3-0.5,0.5-0.8C47.1,44.8,47.1,45,47.2,45.4z M45.9,46.8L45.9,46.8
					C45.9,46.8,45.9,46.8,45.9,46.8c0,0.1,0,0.1,0,0.1c0,0-0.1,0.1-0.1,0.1c0,0-0.1,0.1-0.1,0.1c0-0.1-0.1-0.1-0.1-0.1
					c0,0,0-0.1,0-0.1c0,0,0,0,0,0c0,0,0,0,0,0c0,0,0,0,0-0.1c0,0,0,0,0,0c0,0,0-0.1,0.1-0.1c0-0.1,0.1-0.1,0.1-0.1c0,0,0,0,0.1,0
					c0,0,0,0,0,0c0,0,0,0,0.1,0.1c0,0,0,0,0,0c0,0,0,0,0,0.1C45.9,46.7,45.9,46.7,45.9,46.8z M45.6,46.1c-0.2,0-0.4,0-0.5,0
					c0.1-0.2,0.2-0.3,0.4-0.5C45.5,45.8,45.5,45.9,45.6,46.1z M46.5,44.9c-0.1-0.3-0.2-0.5-0.3-0.8c0,0-0.1-0.1-0.1-0.1c0,0,0,0,0,0
					c0,0-0.1,0-0.1,0.1c-0.2,0.3-0.3,0.5-0.5,0.9c-0.1-0.5-0.2-0.8-0.4-1.3c0.3-0.3,0.4-0.5,0.7-0.8c0.1,0.3,0.1,0.5,0.2,0.8
					c0,0,0,0.1,0.1,0.1c0,0,0.1,0,0.1-0.1c0.2-0.3,0.3-0.4,0.5-0.7c0.1,0.4,0.1,0.7,0.2,1.1C46.8,44.4,46.7,44.6,46.5,44.9z
					 M43.6,46.4c0,0,0-0.1,0.1-0.1c0,0,0,0,0,0c0,0,0.1,0,0.1,0c0,0,0,0,0,0c0.1,0,0.3,0,0.4,0.1c0,0,0.1,0,0.1,0c0,0,0.1,0,0.1,0
					c0.4,0,0.8,0.1,1.2,0.1c0,0,0,0,0,0c-0.1,0-0.1,0.1-0.2,0.1c0,0-0.1,0.1-0.1,0.1c0,0,0,0.1-0.1,0.1c0,0,0,0.1,0,0.1
					c-0.5,0-1.1-0.1-1.6-0.1c0,0-0.1,0-0.1,0c0,0,0,0,0,0c0,0,0,0,0-0.1C43.6,46.4,43.6,46.4,43.6,46.4z M43.3,46.4
					c0,0,0.1-0.1,0.1-0.1c0,0,0,0,0,0c0,0,0,0.1,0,0.1c0,0.1,0,0.1,0,0.2c0,0,0,0,0,0c0,0,0,0,0,0.1c0,0,0,0,0,0c0,0,0,0,0,0
					c-0.1,0-0.2,0.1-0.3,0.2c0,0,0,0,0,0c0,0,0,0,0,0C43,46.7,43.1,46.5,43.3,46.4z M53.9,44.7L53.9,44.7c0,0,0.1,0,0.1,0
					c0.1,0.1,0.2,0.2,0.2,0.4c0,0,0,0,0,0c0,0,0,0,0,0c-0.1,0-0.2-0.1-0.3-0.1c0,0,0,0,0,0c0,0,0,0,0,0c0,0,0,0,0,0c0,0,0,0,0,0
					C53.9,44.9,53.9,44.9,53.9,44.7C53.9,44.8,53.9,44.8,53.9,44.7z M53.8,45.3c0.1,0.1,0.2,0.1,0.3,0.1c0.1,0.1,0.1,0.1,0.1,0.3
					c0,0,0,0.1,0,0.1c0,0,0.1,0,0.1,0c0,0,0,0,0,0c0.2-0.1,0.3,0.3,0.5,0.4c-0.2,0.2-0.1,0.6-0.4,0.7c0,0,0,0.1-0.1,0.1
					c0,0.4,0,0.5-0.4,0.7c-0.6,0.3-1.4,0.5-2.3,0.7c-0.9,0.2-2,0.4-3.1,0.6c-1.1,0.2-2.1,0.3-3,0.3c-0.9,0-1.7,0-2.3-0.1
					c-0.5,0-0.4-0.2-0.5-0.5c0,0,0-0.1-0.1-0.1c-0.3,0-0.2-0.4-0.4-0.6c0.3-0.2,0.3-0.5,0.5-0.5c0,0,0,0,0.1,0c0,0,0.1,0,0.1,0
					c0,0,0-0.1,0-0.1c0-0.1,0-0.2,0.1-0.3c0.1,0,0.2-0.1,0.3-0.2c0,0,0,0,0,0c0,0,0,0,0.1,0c0.5,0.1,1.2,0.1,1.7,0.1
					c0.1,0.2,0.3,0.3,0.2,0.5c0,0,0,0.1,0,0.1c0,0,0,0,0.1,0c0,0,0.1,0,0.1,0c0,0,0-0.1,0-0.1c0,0,0,0,0,0c0-0.1,0.2-0.2,0.3-0.4
					c0.3,0,0.7,0,1.1-0.1c0.2,0,0.4-0.1,0.6-0.1c0,0,0.1,0,0.1,0c0.1,0.2,0.4,0.2,0.4,0.4c0,0,0,0.1,0.1,0.1c0,0,0,0,0,0
					c0,0,0.1,0,0.1-0.1c0.1-0.2,0.2-0.4,0.2-0.6c0,0,0,0,0.1,0c0,0,0,0,0.1,0c0,0.2,0.1,0.4,0.2,0.5c0,0,0.1,0,0.1,0c0,0,0,0,0,0
					c0,0,0.1-0.1,0.1-0.1c0-0.1,0.3-0.2,0.4-0.5c0,0,0.1,0,0.1,0c0.2,0,0.4,0,0.6-0.1c0.4-0.1,0.8-0.1,1.1-0.2
					c0.1,0.2,0.3,0.2,0.3,0.3c0,0,0,0,0,0c0,0,0,0.1,0,0.1c0,0,0,0,0.1,0c0,0,0.1,0,0.1,0c0,0,0-0.1,0-0.1c0-0.2,0.2-0.3,0.2-0.5
					c0.5-0.2,1.2-0.4,1.7-0.6C53.7,45.3,53.7,45.3,53.8,45.3C53.8,45.3,53.8,45.3,53.8,45.3z M51.8,44.1c-0.2-0.3-0.3-0.4-0.5-0.7
					c0,0-0.1,0-0.1,0c0,0-0.1,0-0.1,0.1c-0.1,0.3-0.2,0.5-0.3,0.9c-0.2-0.3-0.3-0.4-0.5-0.7c0.1-0.5,0.1-0.7,0.2-1.2
					c0.2,0.2,0.3,0.3,0.5,0.6c0,0,0.1,0,0.1,0c0,0,0.1,0,0.1-0.1c0.1-0.3,0.1-0.5,0.2-0.8c0.3,0.2,0.4,0.4,0.7,0.6
					C52,43.2,51.9,43.5,51.8,44.1z M51.9,44.5c0.1,0.2,0.2,0.3,0.4,0.4c-0.2,0.1-0.3,0.1-0.5,0.2C51.8,44.9,51.8,44.8,51.9,44.5z
					 M50.8,44.6c0,0,0.1,0,0.1,0c0,0,0.1,0,0.1-0.1c0.1-0.3,0.2-0.5,0.3-0.9c0.2,0.3,0.3,0.4,0.5,0.7c0,0,0,0,0,0
					c-0.1,0.3-0.1,0.5-0.2,0.8c0,0-0.1,0-0.1,0c-0.1-0.2-0.2-0.3-0.3-0.5c0,0-0.1,0-0.1,0c0,0-0.1,0-0.1,0.1
					c-0.1,0.3-0.1,0.4-0.2,0.7c-0.2,0-0.3,0.1-0.5,0.1c-0.1-0.3-0.1-0.4-0.2-0.7c0.1-0.4,0.1-0.6,0.2-1
					C50.5,44.1,50.6,44.3,50.8,44.6z M51.7,45.6c0,0,0.1,0.1,0.1,0.1c0,0,0,0,0,0.1c0,0,0,0,0,0c0,0,0,0,0,0.1c0,0,0,0,0,0
					c0,0,0,0,0,0c0,0,0,0.1,0,0.1c0,0-0.1,0.1-0.1,0.2c0,0-0.1-0.1-0.1-0.1c0,0-0.1,0-0.1-0.1c0,0,0,0,0,0c0,0,0,0,0-0.1
					c0,0,0,0,0,0c0,0,0-0.1,0-0.1c0,0,0-0.1,0-0.1c0,0,0,0,0,0C51.5,45.6,51.6,45.6,51.7,45.6C51.6,45.6,51.6,45.6,51.7,45.6
					C51.6,45.6,51.6,45.6,51.7,45.6z M51.2,45.3c-0.1,0-0.2,0-0.3,0.1c0-0.1,0.1-0.2,0.1-0.3C51.1,45.2,51.1,45.2,51.2,45.3z
					 M49.9,44.4c-0.1-0.5-0.2-0.8-0.3-1.3c0.2,0.2,0.3,0.4,0.5,0.6C50,43.9,50,44.1,49.9,44.4z M50.1,45.8
					C50.1,45.8,50.1,45.8,50.1,45.8c0.1,0,0.2,0,0.2,0c0.1,0,0.2,0,0.4-0.1c0.1,0,0.2,0,0.2-0.1c0.2,0,0.3-0.1,0.5-0.1
					c0,0,0.1,0,0.1,0c0,0,0,0,0,0c0,0,0,0,0,0.1c0,0,0,0.1-0.1,0.1c0,0,0,0.1,0,0.1c0,0,0,0.1,0,0.1c0,0,0,0.1,0,0.1c0,0,0,0,0,0
					c-0.3,0.1-0.7,0.2-1,0.2c-0.2,0-0.4,0.1-0.6,0.1c0,0-0.1,0-0.1,0c0,0,0,0,0-0.1c-0.1-0.1-0.1-0.1-0.2-0.1c0-0.1,0.1-0.2,0.2-0.2
					C49.7,45.8,49.8,45.8,50.1,45.8C50,45.8,50,45.8,50.1,45.8z M49.3,46.5C49.3,46.5,49.3,46.5,49.3,46.5
					C49.3,46.5,49.3,46.5,49.3,46.5c-0.1,0.1-0.2,0.2-0.3,0.3c0-0.1,0-0.2-0.1-0.3c0,0,0,0,0-0.1c0-0.1,0-0.1,0-0.1
					c0-0.1,0.1-0.1,0.1-0.2c0,0,0,0,0,0c0,0.1,0.1,0.1,0.1,0.2C49.2,46.3,49.3,46.4,49.3,46.5z M53,44.9c0,0,0.1,0,0.1,0
					c0.1-0.1,0.3-0.1,0.4-0.2c0,0,0,0,0,0c0,0,0.1,0,0.1,0c0,0,0,0,0,0c0.1,0.1,0.1,0.1,0.1,0.1c0,0,0,0.1,0,0.2c0,0,0,0,0,0.1
					c0,0,0,0,0,0c0,0-0.1,0-0.1,0.1c-0.4,0.2-1.1,0.4-1.6,0.6c0,0,0,0,0,0c0,0,0-0.1,0-0.1c0,0,0-0.1-0.1-0.1c0,0,0-0.1-0.1-0.1
					c0,0-0.1-0.1-0.2-0.1c0,0,0,0,0,0c0.3-0.1,0.5-0.2,0.7-0.3c0,0,0.1,0,0.1,0l0,0c0.1,0,0.2-0.1,0.4-0.1
					C52.9,45,52.9,44.9,53,44.9z M52.3,43c0.2,0.7,0.3,1.1,0.5,1.8c-0.1,0-0.2,0.1-0.3,0.1c-0.2-0.3-0.3-0.4-0.5-0.7c0,0,0,0,0,0
					C52.1,43.7,52.1,43.5,52.3,43z M54.9,36.3c0.1,1.2,0.1,2.4,0.2,3.6c0.1,1.2,0.1,2.5,0.2,4.1c-0.1-0.1-0.2-0.1-0.2-0.2
					c-0.1-1.5-0.1-2.8-0.2-4c-0.1-1.2-0.1-2.3-0.2-3.5c-0.1-1.2-0.1-2.5-0.2-4c-0.2,0.2-0.7,0.7-0.8,0.8c0.1,2,0.2,3.5,0.2,5
					c0.1,1.5,0.1,3,0.2,5c-0.1-0.1-0.2-0.2-0.3-0.3c-0.1-1.9-0.1-3.3-0.2-4.7c-0.1-1.4-0.1-2.8-0.2-4.7c-0.2,0.2-0.5,0.5-0.6,0.6
					c0.1,1.6,0.1,2.9,0.2,4.1c0,1.2,0.1,2.5,0.2,4.1c-0.1-0.1-0.2-0.2-0.3-0.3c-0.1-1.5-0.1-2.7-0.2-3.9c0-1.2-0.1-2.3-0.2-3.9
					c-0.1,0.1-0.4,0.3-0.6,0.3c0,0.1,0,0.5-0.1,1.2c0.1,1.1,0.1,1.9,0.1,2.8c0,0.8,0.1,1.6,0.1,2.8c-0.1-0.5-0.2-0.7-0.4-1.2
					c0-1.2-0.1-1.9-0.1-3.1c-0.1,0.4-0.2,0.8-0.4,1.2c0,0.1,0,0.1-0.1,0.2c0,0.1,0,0.1-0.1,0.2c0.2,0.8,0.4,1.2,0.6,2
					c0.1,0.2,0.1,0.3,0.1,0.5c0,0.1,0.1,0.2,0.1,0.3c0,0.2,0.1,0.2,0.1,0.4c0.1,0.2,0.1,0.3,0.1,0.5c-0.3-0.2-0.4-0.3-0.6-0.5
					c0,0-0.1,0-0.1,0c0,0-0.1,0.1-0.1,0.1c-0.1,0.3-0.1,0.5-0.2,0.8c-0.2-0.2-0.3-0.4-0.5-0.6c0,0-0.1,0-0.1,0c0,0-0.1,0.1-0.1,0.1
					c-0.1,0.5-0.1,0.7-0.2,1.2c-0.2-0.3-0.4-0.5-0.6-0.8c0,0,0,0,0,0c-0.1-0.5-0.2-0.7-0.3-1.2c0,0,0,0-0.1,0.1c0,0,0,0,0,0
					c0,0-0.1,0.1-0.1,0.1c-0.1,0.1-0.2,0.2-0.2,0.2c0.2,1.4,0.3,2.1,0.5,3.6c0.1,0.1,0.2,0.1,0.4,0.2c0.1-0.1,0.1-0.1,0.2-0.2
					c0,0.2,0.1,0.2,0.1,0.4c-0.2,0-0.3,0-0.5,0c-0.2,0-0.3,0.1-0.4,0.2c-0.3,0.1-0.4,0.3-0.4,0.5c0,0,0,0-0.1,0c0,0,0,0-0.1,0
					c0-0.2-0.2-0.4-0.4-0.3c-0.1-0.1-0.2-0.1-0.3-0.1c-0.2,0-0.3,0.1-0.5,0.1c0-0.2,0.1-0.2,0.1-0.4c0.1,0.1,0.1,0.1,0.2,0.2
					c0.1-0.1,0.2-0.2,0.4-0.3c0.2-1.5,0.3-2.2,0.5-3.7c-0.1-0.1-0.2-0.1-0.2-0.2c0,0-0.1,0-0.1-0.1c0,0,0,0,0,0c0,0,0,0-0.1,0
					c-0.1,0.5-0.2,0.7-0.3,1.2c0,0,0,0.1-0.1,0.1c-0.2,0.4-0.4,0.6-0.6,1c-0.1-0.5-0.1-0.7-0.2-1.2c0,0,0-0.1-0.1-0.1
					c0,0-0.1,0-0.1,0.1c-0.2,0.3-0.3,0.4-0.5,0.7c-0.1-0.3-0.1-0.4-0.2-0.7c0,0,0-0.1-0.1-0.1c0,0-0.1,0-0.1,0
					c-0.2,0.3-0.4,0.4-0.6,0.7c0-0.2,0.1-0.2,0.1-0.4c0-0.2,0.1-0.2,0.1-0.4c0.1-0.2,0.1-0.3,0.1-0.5c0.1-0.2,0.1-0.3,0.1-0.5
					c0.2-0.9,0.4-1.3,0.6-2.2c0,0,0-0.1-0.1-0.1c0,0,0-0.1-0.1-0.1c-0.2-0.4-0.3-0.8-0.4-1.1c0,1.2-0.1,1.9-0.1,3.1
					c-0.1,0.5-0.2,0.8-0.4,1.4c0.1-1.1,0.1-2,0.1-2.8c0-0.8,0.1-1.7,0.1-2.8c-0.1-0.7-0.1-1.1-0.1-1.2c-0.2,0-0.4-0.1-0.6-0.2
					c-0.1,1.6-0.1,2.8-0.2,4c-0.1,1.2-0.1,2.4-0.2,4c-0.1,0.1-0.2,0.2-0.3,0.4c0.1-1.7,0.1-2.9,0.2-4.2c0.1-1.3,0.1-2.5,0.2-4.2
					c-0.1-0.1-0.4-0.3-0.6-0.4c-0.1,1.9-0.2,3.3-0.2,4.8c-0.1,1.4-0.1,2.9-0.2,4.8c-0.1,0.1-0.2,0.2-0.3,0.4c0.1-2,0.2-3.5,0.2-5.1
					c0.1-1.5,0.1-3,0.2-5.1c-0.1-0.1-0.6-0.4-0.8-0.6c-0.1,1.5-0.1,2.8-0.2,4c-0.1,1.2-0.1,2.3-0.2,3.5c-0.1,1.2-0.1,2.5-0.2,4
					c-0.1,0.1-0.1,0.2-0.2,0.3c0.1-1.6,0.1-2.9,0.2-4.2c0.1-1.2,0.1-2.4,0.2-3.6c0.1-1.2,0.1-2.6,0.2-4.2c-0.1,0-0.5,0.3-0.7,0.5
					c0.1-0.9,0.5-1.2,1-1.3c0.5-0.1,1.2,0.1,1.7,0.3c0.6,0.3,1.3,0.4,2,0.3C46.5,34,46.4,34,46.4,34c0,0,0,0.1,0,0.1
					c0,0,0.1,0.1,0.1,0c0.3,0,0.6-0.3,0.9-0.4c0,0.1-0.1,0.2-0.1,0.4c0,0,0,0.1,0,0.1c0,0,0,0,0.1,0c0,0,0,0,0,0
					c0.3-0.2,0.6-0.5,0.8-0.6c0.1,0.1,0.2,0.2,0.4,0.3c0,0,0.1,0,0.1,0c0,0,0.1,0,0.1-0.1c0.1-0.1,0.3-0.3,0.3-0.4
					c0.1,0.1,0.5,0.3,0.9,0.3c0,0,0.1,0,0.1,0c0.1,0,0.1-0.1,0.1-0.1c0,0,0-0.1,0-0.1c0.3,0.1,0.7,0,0.7,0c0.1,0,0.1,0,0.1-0.1
					c0-0.1,0-0.1-0.1-0.1c0,0-0.1,0-0.1-0.1c0.7-0.1,1.4-0.4,2-0.9c0.5-0.4,1.2-0.8,1.7-0.8c0.6-0.1,1,0.1,1,1
					c-0.3-0.1-0.6-0.3-0.7-0.2C54.8,33.8,54.9,35.1,54.9,36.3z"/>
				<linearGradient id="SVGID_29_" gradientUnits="userSpaceOnUse" x1="2.700238e-02" y1="43.7542" x2="96.999" y2="43.7542">
					<stop  offset="0" style="stop-color:#F87F00"/>
					<stop  offset="2.097060e-02" style="stop-color:#F88102"/>
					<stop  offset="0.2435" style="stop-color:#FC9213"/>
					<stop  offset="0.4872" style="stop-color:#FE9C1D"/>
					<stop  offset="0.7911" style="stop-color:#FF9F20"/>
					<stop  offset="0.8415" style="stop-color:#FD9C1E"/>
					<stop  offset="0.8819" style="stop-color:#F79219"/>
					<stop  offset="0.919" style="stop-color:#ED8111"/>
					<stop  offset="0.9537" style="stop-color:#DE6905"/>
					<stop  offset="0.966" style="stop-color:#D85F00"/>
					<stop  offset="1" style="stop-color:#FF9F20"/>
				</linearGradient>
				<path class="st28" d="M48.6,41.9c0,0-0.1-0.1-0.1-0.1c-0.1,1.5-0.1,2.2-0.2,3.6c0.1,0.2,0.2,0.2,0.3,0.4
					c0.1-0.2,0.2-0.3,0.3-0.5c-0.1-1.4-0.1-2.1-0.2-3.6C48.7,41.8,48.7,41.8,48.6,41.9z"/>
				<linearGradient id="SVGID_30_" gradientUnits="userSpaceOnUse" x1="-4.913140e-02" y1="41.0853" x2="97.078" y2="41.0853">
					<stop  offset="0" style="stop-color:#F87F00"/>
					<stop  offset="2.097060e-02" style="stop-color:#F88102"/>
					<stop  offset="0.2435" style="stop-color:#FC9213"/>
					<stop  offset="0.4872" style="stop-color:#FE9C1D"/>
					<stop  offset="0.7911" style="stop-color:#FF9F20"/>
					<stop  offset="0.8415" style="stop-color:#FD9C1E"/>
					<stop  offset="0.8819" style="stop-color:#F79219"/>
					<stop  offset="0.919" style="stop-color:#ED8111"/>
					<stop  offset="0.9537" style="stop-color:#DE6905"/>
					<stop  offset="0.966" style="stop-color:#D85F00"/>
					<stop  offset="1" style="stop-color:#FF9F20"/>
				</linearGradient>
				<path class="st29" d="M46.9,42.1c0-0.3,0-0.4-0.1-0.7c0-0.1,0-0.2,0-0.3c0,0,0,0,0-0.1c0-0.4-0.1-0.5-0.1-0.9
					c-0.1-0.1-0.2-0.2-0.2-0.3c0,0,0,0.1,0,0.1c0.1,0.6,0.1,0.8,0.2,1.4c0,0,0,0,0,0.1c0,0.1,0,0.2,0,0.3c0,0.3,0.1,0.5,0.1,0.9
					c0,0,0,0.1,0.1,0.1c0,0,0,0,0,0c0,0,0.1,0,0.1-0.1c0.2-0.3,0.3-0.4,0.5-0.7c0.1-0.2,0.2-0.3,0.4-0.5c-0.1,0-0.1-0.1-0.2-0.1
					C47.3,41.5,47.2,41.7,46.9,42.1z"/>
				<linearGradient id="SVGID_31_" gradientUnits="userSpaceOnUse" x1="-9.455583e-03" y1="40.4788" x2="97.0341" y2="40.4788">
					<stop  offset="0" style="stop-color:#F87F00"/>
					<stop  offset="2.097060e-02" style="stop-color:#F88102"/>
					<stop  offset="0.2435" style="stop-color:#FC9213"/>
					<stop  offset="0.4872" style="stop-color:#FE9C1D"/>
					<stop  offset="0.7911" style="stop-color:#FF9F20"/>
					<stop  offset="0.8415" style="stop-color:#FD9C1E"/>
					<stop  offset="0.8819" style="stop-color:#F79219"/>
					<stop  offset="0.919" style="stop-color:#ED8111"/>
					<stop  offset="0.9537" style="stop-color:#DE6905"/>
					<stop  offset="0.966" style="stop-color:#D85F00"/>
					<stop  offset="1" style="stop-color:#FF9F20"/>
				</linearGradient>
				<path class="st30" d="M50.6,39.4c0,0.4-0.1,0.6-0.1,1c0,0,0,0,0,0c0,0.1,0,0.1,0,0.2c0,0.3-0.1,0.5-0.1,0.9
					c-0.3-0.3-0.4-0.5-0.7-0.8v0c0,0.1-0.1,0.1-0.2,0.2c0.1,0.2,0.2,0.2,0.3,0.4c0.2,0.2,0.3,0.3,0.5,0.6c0,0,0.1,0,0.1,0
					c0,0,0,0,0,0c0,0,0.1-0.1,0.1-0.1c0-0.4,0.1-0.6,0.1-1c0-0.1,0-0.1,0-0.2c0,0,0,0,0,0c0.1-0.6,0.1-0.8,0.1-1.4c0,0,0-0.1,0-0.1
					C50.7,39.2,50.7,39.3,50.6,39.4z"/>
				<linearGradient id="SVGID_32_" gradientUnits="userSpaceOnUse" x1="-1.342077e-02" y1="48.5739" x2="97.0424" y2="48.5739">
					<stop  offset="0" style="stop-color:#F87F00"/>
					<stop  offset="2.097060e-02" style="stop-color:#F88102"/>
					<stop  offset="0.2435" style="stop-color:#FC9213"/>
					<stop  offset="0.4872" style="stop-color:#FE9C1D"/>
					<stop  offset="0.7911" style="stop-color:#FF9F20"/>
					<stop  offset="0.8415" style="stop-color:#FD9C1E"/>
					<stop  offset="0.8819" style="stop-color:#F79219"/>
					<stop  offset="0.919" style="stop-color:#ED8111"/>
					<stop  offset="0.9537" style="stop-color:#DE6905"/>
					<stop  offset="0.966" style="stop-color:#D85F00"/>
					<stop  offset="1" style="stop-color:#FF9F20"/>
				</linearGradient>
				<path class="st31" d="M44.4,48.5C44.4,48.5,44.3,48.5,44.4,48.5C44.3,48.5,44.3,48.5,44.4,48.5c-0.1,0.1-0.1,0.2,0,0.2
					c0.1,0,0.1,0,0.1-0.1C44.5,48.6,44.5,48.5,44.4,48.5C44.4,48.5,44.4,48.5,44.4,48.5z"/>
				<linearGradient id="SVGID_33_" gradientUnits="userSpaceOnUse" x1="-8.950658e-03" y1="47.7703" x2="97.0373" y2="47.7703">
					<stop  offset="0" style="stop-color:#F87F00"/>
					<stop  offset="2.097060e-02" style="stop-color:#F88102"/>
					<stop  offset="0.2435" style="stop-color:#FC9213"/>
					<stop  offset="0.4872" style="stop-color:#FE9C1D"/>
					<stop  offset="0.7911" style="stop-color:#FF9F20"/>
					<stop  offset="0.8415" style="stop-color:#FD9C1E"/>
					<stop  offset="0.8819" style="stop-color:#F79219"/>
					<stop  offset="0.919" style="stop-color:#ED8111"/>
					<stop  offset="0.9537" style="stop-color:#DE6905"/>
					<stop  offset="0.966" style="stop-color:#D85F00"/>
					<stop  offset="1" style="stop-color:#FF9F20"/>
				</linearGradient>
				<path class="st32" d="M44.8,48.3C44.8,48.3,44.8,48.3,44.8,48.3c0-0.1,0-0.1,0-0.1c0,0,0-0.1,0-0.1c0,0,0-0.1,0-0.1
					c0,0,0-0.1,0-0.1c0,0,0-0.1,0-0.1c0,0,0-0.1,0-0.1c0,0-0.1,0-0.1,0.1c0,0-0.1,0.1-0.1,0.1c-0.1,0-0.1,0.1,0,0.1c0,0,0,0.1,0,0.1
					c0,0,0,0,0,0.1c0,0,0,0.1,0,0.1c0,0,0,0-0.1,0c0,0-0.1,0-0.1,0c0,0,0,0-0.1,0c0,0,0,0-0.1,0c0,0,0,0,0,0c0,0,0,0,0-0.1
					c0,0,0,0,0-0.1c0,0,0,0,0-0.1c0,0,0-0.1,0-0.1c0,0,0,0,0,0c0,0,0,0,0,0c0,0,0-0.1,0-0.1c0,0,0,0,0-0.1c0,0,0,0-0.1,0
					c0,0,0,0,0,0c0,0,0,0,0,0c0,0,0,0,0,0c0,0-0.1,0-0.1,0c0,0,0,0,0,0c0,0,0,0,0,0.1c0,0,0,0.1,0,0.1c0,0,0,0,0,0.1c0,0,0,0,0,0.1
					c0,0,0,0-0.1,0c-0.1,0-0.1,0-0.2,0c0,0,0,0,0,0c0,0,0,0,0-0.1c0,0,0,0,0-0.1c0,0,0,0,0-0.1c0,0,0-0.1,0-0.1c0,0,0,0,0-0.1
					c0,0,0,0,0,0c0,0,0,0,0,0c0,0,0,0,0-0.1c0,0,0,0,0-0.1c0,0,0-0.1,0-0.1c0,0,0,0,0,0c0,0,0,0,0,0c0,0,0,0,0-0.1c0,0,0,0,0-0.1
					c0,0,0-0.1,0-0.1c0,0,0-0.1,0-0.1c0,0,0,0,0,0c0,0,0,0,0,0c0,0,0,0,0,0c0,0,0,0,0,0c0,0,0,0,0,0c0,0,0,0,0,0c0,0,0,0-0.1,0
					c0,0-0.1,0-0.1,0c0,0-0.1,0-0.1,0c0,0,0,0,0,0c0,0,0,0,0,0.1c0,0,0.1,0,0.1,0c0,0,0.1,0,0.1-0.1c0,0,0.1,0,0.1,0c0,0,0,0,0,0
					c0,0,0,0,0,0c0,0,0,0.1,0,0.2c0,0,0,0.1,0,0.1c0,0,0,0,0,0c0,0,0,0,0,0.1c0,0,0,0,0,0c0,0,0,0-0.1,0c0,0-0.1,0-0.1,0
					c0,0,0,0,0,0c0,0-0.1,0-0.1,0.1c0,0-0.1,0.1-0.1,0.1c0,0,0,0,0,0c0,0,0,0,0,0c0,0,0,0,0,0c0,0,0,0.1,0,0.1c0,0,0.1,0,0.1,0
					c0,0,0.1,0,0.1,0c0,0,0,0,0,0c0,0,0,0,0.1,0c0,0,0.1,0,0.1,0c0,0,0.1,0,0.1,0c0.1,0,0.1,0,0.1,0c0,0,0.1,0,0.1,0
					c0,0,0.2,0,0.3,0c0,0,0.1,0,0.1,0C44.7,48.4,44.8,48.4,44.8,48.3z M43.7,48C43.7,48.1,43.7,48.1,43.7,48
					C43.7,48.1,43.6,48.1,43.7,48C43.6,48,43.6,48,43.7,48C43.7,48,43.7,48,43.7,48C43.8,48,43.8,48,43.7,48z"/>
				<linearGradient id="SVGID_34_" gradientUnits="userSpaceOnUse" x1="-6.491369e-03" y1="47.9998" x2="97.0335" y2="47.9998">
					<stop  offset="0" style="stop-color:#F87F00"/>
					<stop  offset="2.097060e-02" style="stop-color:#F88102"/>
					<stop  offset="0.2435" style="stop-color:#FC9213"/>
					<stop  offset="0.4872" style="stop-color:#FE9C1D"/>
					<stop  offset="0.7911" style="stop-color:#FF9F20"/>
					<stop  offset="0.8415" style="stop-color:#FD9C1E"/>
					<stop  offset="0.8819" style="stop-color:#F79219"/>
					<stop  offset="0.919" style="stop-color:#ED8111"/>
					<stop  offset="0.9537" style="stop-color:#DE6905"/>
					<stop  offset="0.966" style="stop-color:#D85F00"/>
					<stop  offset="1" style="stop-color:#FF9F20"/>
				</linearGradient>
				<path class="st33" d="M46.7,47.3C46.6,47.3,46.6,47.3,46.7,47.3c-0.1,0.1-0.1,0.1-0.1,0.1c0,0,0,0-0.1,0c0,0,0,0,0,0.1
					c0,0,0,0,0,0c0,0,0,0,0,0c0,0,0,0.1,0,0.1c0,0.1,0,0.1,0,0.1c0,0,0,0,0,0.1c0,0.1,0,0.1,0,0.1c0,0,0,0.1,0,0.1
					c0,0.1,0,0.1,0,0.1c0,0,0,0.1,0,0.1c0,0.1,0,0.1,0,0.1c0,0,0,0,0,0c0,0,0,0-0.1,0c0,0,0,0,0,0c0,0,0,0,0,0c0,0,0-0.1,0-0.1
					c0-0.1,0-0.1,0-0.1c0,0,0,0,0,0c0,0,0,0,0,0c0,0,0,0-0.1,0c-0.1,0-0.1,0-0.1-0.1c0,0,0,0,0,0c0,0,0,0,0,0c0,0,0.1,0,0.1,0
					c0.1,0,0.1,0,0.1-0.1c0,0,0-0.1,0-0.1c0,0,0,0,0,0c0,0-0.1-0.1-0.1-0.1c0,0,0,0,0-0.1c0,0,0-0.1,0-0.1c0,0,0,0,0,0
					c0,0,0,0-0.1,0c-0.1,0-0.2,0.1-0.2,0.2c0,0,0,0,0,0c0,0,0,0-0.1,0c0,0-0.1,0-0.1,0.1c0,0-0.1,0.1-0.1,0.1c0,0,0,0.1,0,0.1
					c0.1,0,0.2,0,0.2,0.1c0,0,0,0,0,0.1c0,0.1,0,0.1-0.1,0.1c0,0-0.1,0-0.1,0c0,0-0.1,0-0.1,0c0,0-0.1,0-0.1,0c0,0,0-0.1,0-0.2
					c0,0,0-0.1,0-0.1c0,0,0,0,0,0c0,0,0-0.1-0.1-0.1c0,0,0,0,0,0c0,0,0,0,0,0C45,48,45,48.1,45,48.1c0,0,0,0,0,0c0,0,0,0,0,0.1
					c0,0,0,0.1,0,0.1c0,0,0,0.1,0,0.1c0,0,0,0,0,0c0,0,0,0,0,0c0,0,0,0,0,0.1c0,0,0,0,0,0c0,0,0,0,0,0c0,0,0,0-0.1,0c0,0,0,0,0,0
					c0,0,0,0-0.1,0c0,0-0.1,0-0.1,0c0,0,0,0,0.1,0c0,0,0.1,0,0.1,0c0,0,0,0,0,0c0,0,0.1,0,0.1,0c0,0,0.1-0.1,0.2-0.2
					c0,0,0.1,0,0.2-0.1c0.1,0,0.1,0,0.2,0c0,0,0.1,0,0.1,0c0,0,0.1,0,0.1,0c0,0,0,0,0-0.1c0,0,0,0,0,0c0,0,0,0,0,0c0,0,0,0,0,0
					c0,0,0,0,0,0.1c0,0,0,0.1,0,0.1c0,0,0,0,0.1,0c0,0,0.1,0,0.1,0c0,0,0,0,0,0c0,0,0,0.1,0,0.1c0,0,0,0.1,0,0.1c0,0,0,0,0,0
					c0,0,0.1,0,0.1,0c0,0,0,0,0,0c0,0,0.1,0,0.1,0c0,0,0,0,0,0c0,0,0,0,0,0c0,0,0,0,0,0c0,0,0.1-0.1,0.1-0.1c0,0,0,0,0,0
					c0,0,0-0.1,0-0.1c0,0,0-0.1,0-0.1c0,0,0-0.1,0-0.1c0,0,0-0.1,0-0.1c0,0,0-0.1,0-0.1c0,0,0-0.1,0-0.1c0,0,0-0.1,0-0.2
					c0-0.1,0-0.1,0-0.2c0,0,0-0.1,0-0.1c0,0,0-0.1,0-0.1C46.7,47.4,46.7,47.3,46.7,47.3C46.7,47.3,46.7,47.3,46.7,47.3z M46,48
					C46,48,45.9,48,46,48c-0.1,0-0.2,0-0.2,0c0,0,0,0,0,0c0,0,0,0,0,0c0,0,0,0,0.1-0.1c0.1-0.1,0.1-0.1,0.1,0C45.9,47.9,46,48,46,48
					C46,48,46,48,46,48z"/>
				<linearGradient id="SVGID_35_" gradientUnits="userSpaceOnUse" x1="3.261923e-02" y1="47.8574" x2="96.9908" y2="47.8574">
					<stop  offset="0" style="stop-color:#F87F00"/>
					<stop  offset="2.097060e-02" style="stop-color:#F88102"/>
					<stop  offset="0.2435" style="stop-color:#FC9213"/>
					<stop  offset="0.4872" style="stop-color:#FE9C1D"/>
					<stop  offset="0.7911" style="stop-color:#FF9F20"/>
					<stop  offset="0.8415" style="stop-color:#FD9C1E"/>
					<stop  offset="0.8819" style="stop-color:#F79219"/>
					<stop  offset="0.919" style="stop-color:#ED8111"/>
					<stop  offset="0.9537" style="stop-color:#DE6905"/>
					<stop  offset="0.966" style="stop-color:#D85F00"/>
					<stop  offset="1" style="stop-color:#FF9F20"/>
				</linearGradient>
				<path class="st34" d="M46.9,48.3C46.9,48.3,46.9,48.2,46.9,48.3c0-0.1,0-0.1,0-0.2c0-0.1,0-0.1,0-0.1c0,0,0,0,0-0.1
					c0-0.1,0-0.2,0-0.2c0,0,0-0.1,0-0.1c0,0,0,0,0-0.1c0,0,0,0,0,0c0,0,0,0,0,0c0,0,0,0-0.1-0.1c0,0-0.1-0.1-0.1-0.1c0,0,0,0,0,0
					c0,0,0,0.1,0,0.1c0,0,0,0,0,0c0,0,0,0.1,0,0.1c0,0,0,0.1,0,0.1c0,0,0,0.1,0,0.1c0,0,0,0.1,0,0.1c0,0,0,0.1,0,0.1
					c0,0.1,0,0.1,0,0.2c0,0,0,0.1,0,0.1c0,0,0,0.1,0,0.1c0,0,0,0.1,0,0.1c0,0,0,0,0,0.1c0,0,0,0,0,0c0,0,0,0,0.1,0c0,0,0,0,0.1,0
					C46.9,48.4,46.9,48.3,46.9,48.3z"/>
				<linearGradient id="SVGID_36_" gradientUnits="userSpaceOnUse" x1="7.019406e-02" y1="47.5952" x2="96.9403" y2="47.5952">
					<stop  offset="0" style="stop-color:#F87F00"/>
					<stop  offset="2.097060e-02" style="stop-color:#F88102"/>
					<stop  offset="0.2435" style="stop-color:#FC9213"/>
					<stop  offset="0.4872" style="stop-color:#FE9C1D"/>
					<stop  offset="0.7911" style="stop-color:#FF9F20"/>
					<stop  offset="0.8415" style="stop-color:#FD9C1E"/>
					<stop  offset="0.8819" style="stop-color:#F79219"/>
					<stop  offset="0.919" style="stop-color:#ED8111"/>
					<stop  offset="0.9537" style="stop-color:#DE6905"/>
					<stop  offset="0.966" style="stop-color:#D85F00"/>
					<stop  offset="1" style="stop-color:#FF9F20"/>
				</linearGradient>
				<path class="st35" d="M43.6,47.7C43.6,47.7,43.7,47.7,43.6,47.7C43.7,47.7,43.7,47.7,43.6,47.7c0.1,0,0.1-0.1,0.1-0.1
					c0,0-0.1-0.1-0.1-0.1c0,0-0.1,0-0.1,0.1C43.5,47.7,43.6,47.7,43.6,47.7z"/>
				<linearGradient id="SVGID_37_" gradientUnits="userSpaceOnUse" x1="6.984334e-02" y1="48.5051" x2="96.9423" y2="48.5051">
					<stop  offset="0" style="stop-color:#F87F00"/>
					<stop  offset="2.097060e-02" style="stop-color:#F88102"/>
					<stop  offset="0.2435" style="stop-color:#FC9213"/>
					<stop  offset="0.4872" style="stop-color:#FE9C1D"/>
					<stop  offset="0.7911" style="stop-color:#FF9F20"/>
					<stop  offset="0.8415" style="stop-color:#FD9C1E"/>
					<stop  offset="0.8819" style="stop-color:#F79219"/>
					<stop  offset="0.919" style="stop-color:#ED8111"/>
					<stop  offset="0.9537" style="stop-color:#DE6905"/>
					<stop  offset="0.966" style="stop-color:#D85F00"/>
					<stop  offset="1" style="stop-color:#FF9F20"/>
				</linearGradient>
				<path class="st36" d="M43.9,48.4C43.9,48.4,43.9,48.4,43.9,48.4c-0.1,0.1-0.1,0.2,0,0.2c0,0,0.1,0,0.1,0
					C44,48.5,44,48.5,43.9,48.4C44,48.4,44,48.4,43.9,48.4z"/>
				<linearGradient id="SVGID_38_" gradientUnits="userSpaceOnUse" x1="4.698006e-02" y1="48.4635" x2="96.9694" y2="48.4635">
					<stop  offset="0" style="stop-color:#F87F00"/>
					<stop  offset="2.097060e-02" style="stop-color:#F88102"/>
					<stop  offset="0.2435" style="stop-color:#FC9213"/>
					<stop  offset="0.4872" style="stop-color:#FE9C1D"/>
					<stop  offset="0.7911" style="stop-color:#FF9F20"/>
					<stop  offset="0.8415" style="stop-color:#FD9C1E"/>
					<stop  offset="0.8819" style="stop-color:#F79219"/>
					<stop  offset="0.919" style="stop-color:#ED8111"/>
					<stop  offset="0.9537" style="stop-color:#DE6905"/>
					<stop  offset="0.966" style="stop-color:#D85F00"/>
					<stop  offset="1" style="stop-color:#FF9F20"/>
				</linearGradient>
				<path class="st37" d="M43.6,48.4c-0.1,0.1-0.1,0.1,0,0.2c0,0,0,0,0.1,0c0,0,0,0,0.1,0C43.8,48.5,43.8,48.4,43.6,48.4
					C43.7,48.4,43.7,48.4,43.6,48.4z"/>
				<linearGradient id="SVGID_39_" gradientUnits="userSpaceOnUse" x1="7.893364e-03" y1="48.1952" x2="97.0178" y2="48.1952">
					<stop  offset="0" style="stop-color:#F87F00"/>
					<stop  offset="2.097060e-02" style="stop-color:#F88102"/>
					<stop  offset="0.2435" style="stop-color:#FC9213"/>
					<stop  offset="0.4872" style="stop-color:#FE9C1D"/>
					<stop  offset="0.7911" style="stop-color:#FF9F20"/>
					<stop  offset="0.8415" style="stop-color:#FD9C1E"/>
					<stop  offset="0.8819" style="stop-color:#F79219"/>
					<stop  offset="0.919" style="stop-color:#ED8111"/>
					<stop  offset="0.9537" style="stop-color:#DE6905"/>
					<stop  offset="0.966" style="stop-color:#D85F00"/>
					<stop  offset="1" style="stop-color:#FF9F20"/>
				</linearGradient>
				<path class="st38" d="M49.3,47.9C49.3,47.9,49.3,47.8,49.3,47.9c0-0.2,0-0.2,0-0.2c0,0,0,0-0.1,0c0,0,0,0-0.1,0
					c0,0-0.1,0-0.1,0.1c0,0,0,0,0,0c0,0,0,0,0,0c0,0-0.1,0.1-0.1,0.1c0,0,0,0,0,0c0,0,0,0,0,0.1c0,0.1,0,0.1-0.1,0.1
					c-0.1,0-0.1,0-0.1-0.1c0,0,0-0.1,0-0.1c0,0,0,0,0,0c0,0,0,0-0.1,0c-0.1,0-0.1,0-0.2,0c0,0-0.1,0-0.1,0c0,0-0.1,0-0.3,0
					c-0.1,0-0.2,0-0.2,0c0,0,0,0,0,0c0,0,0,0,0,0c0,0,0,0,0-0.1c0-0.1,0-0.1,0-0.1c0,0-0.1,0-0.1,0c0,0,0,0,0,0c0,0,0,0,0,0
					c0,0,0,0.1,0,0.1c0,0,0,0.1,0,0.1c0,0,0,0,0,0c0,0,0,0,0,0.1c0,0.1,0,0.1-0.1,0.1c-0.1,0-0.1,0-0.1,0c0,0,0,0,0-0.1c0,0,0,0,0,0
					c0,0,0-0.1-0.1-0.2c0,0,0,0,0,0c0,0,0,0-0.1,0c0,0,0,0.1-0.1,0.1c-0.1,0.1-0.1,0.1,0,0.1c0,0,0,0,0.1,0.1c0,0.1,0,0.1,0,0.1
					c0,0,0,0,0,0.1c0,0,0,0,0,0c0,0,0,0,0,0c0,0-0.1,0.1-0.1,0.1c0,0-0.1,0-0.1,0c-0.1,0-0.1,0-0.1,0.1c0,0,0,0,0,0c0,0,0,0,0,0
					c0,0,0,0,0,0c0,0,0.2,0,0.3,0c0,0,0,0,0,0c0,0,0.1,0,0.1-0.1c0,0,0,0,0,0c0,0,0,0,0,0c0,0,0,0,0-0.1c0,0,0-0.1,0-0.1
					c0,0,0,0,0,0c0,0,0.1,0,0.3-0.1c0.1,0,0.2,0,0.3,0c0.1,0,0.2,0,0.3,0c0,0,0,0,0,0c0,0,0,0.1,0,0.1c0,0,0.1,0.1,0.1,0.1
					c0,0,0,0,0,0s0,0,0,0c0,0,0.1,0,0.1-0.1c0,0,0,0,0,0c0,0,0.1-0.1,0.1-0.1c0,0,0,0,0,0c0,0,0,0,0,0c0-0.1,0-0.1,0-0.1
					c0,0,0.1,0,0.3-0.1c0.1,0,0.2,0,0.3,0c0,0,0,0,0,0c0,0,0,0,0,0c0,0,0-0.1,0-0.1C49.4,47.9,49.3,47.9,49.3,47.9z M48.5,48.2
					c0,0.1,0,0.1,0,0.2c0,0,0,0,0,0c0,0,0,0-0.1,0c0,0,0,0,0-0.1c0,0,0,0,0-0.1c0,0,0,0,0,0c0,0,0,0-0.1,0c0,0-0.1,0-0.2,0
					c-0.1,0-0.1,0-0.2,0c-0.1,0-0.1,0-0.1,0c0,0,0,0-0.1,0c0,0,0,0,0,0c0,0,0,0,0,0c0-0.1,0.1-0.1,0.2-0.1c0,0,0.1,0,0.1,0
					c0,0,0.1,0,0.1,0c0,0,0.1,0,0.2,0c0.1,0,0.2,0,0.2,0c0,0,0,0,0,0C48.5,48.1,48.5,48.1,48.5,48.2z M49.2,48c-0.1,0-0.1,0-0.1,0
					c0,0,0,0,0-0.1c0,0,0.1-0.1,0.1-0.1C49.1,47.9,49.1,47.9,49.2,48C49.2,47.9,49.2,48,49.2,48C49.2,48,49.2,48,49.2,48z"/>
				<linearGradient id="SVGID_40_" gradientUnits="userSpaceOnUse" x1="-0.1811" y1="47.4144" x2="97.1996" y2="47.4144">
					<stop  offset="0" style="stop-color:#F87F00"/>
					<stop  offset="2.097060e-02" style="stop-color:#F88102"/>
					<stop  offset="0.2435" style="stop-color:#FC9213"/>
					<stop  offset="0.4872" style="stop-color:#FE9C1D"/>
					<stop  offset="0.7911" style="stop-color:#FF9F20"/>
					<stop  offset="0.8415" style="stop-color:#FD9C1E"/>
					<stop  offset="0.8819" style="stop-color:#F79219"/>
					<stop  offset="0.919" style="stop-color:#ED8111"/>
					<stop  offset="0.9537" style="stop-color:#DE6905"/>
					<stop  offset="0.966" style="stop-color:#D85F00"/>
					<stop  offset="1" style="stop-color:#FF9F20"/>
				</linearGradient>
				<path class="st39" d="M49.7,47.4C49.7,47.4,49.7,47.3,49.7,47.4c-0.1-0.1-0.1-0.1-0.1-0.1c0,0,0,0,0,0c-0.1,0-0.1,0-0.1,0.1
					c0,0.1,0,0.1,0.1,0.1c0,0,0,0,0.1,0C49.7,47.5,49.7,47.4,49.7,47.4z"/>
				<linearGradient id="SVGID_41_" gradientUnits="userSpaceOnUse" x1="0.1379" y1="47.1566" x2="96.8933" y2="47.1566">
					<stop  offset="0" style="stop-color:#F87F00"/>
					<stop  offset="2.097060e-02" style="stop-color:#F88102"/>
					<stop  offset="0.2435" style="stop-color:#FC9213"/>
					<stop  offset="0.4872" style="stop-color:#FE9C1D"/>
					<stop  offset="0.7911" style="stop-color:#FF9F20"/>
					<stop  offset="0.8415" style="stop-color:#FD9C1E"/>
					<stop  offset="0.8819" style="stop-color:#F79219"/>
					<stop  offset="0.919" style="stop-color:#ED8111"/>
					<stop  offset="0.9537" style="stop-color:#DE6905"/>
					<stop  offset="0.966" style="stop-color:#D85F00"/>
					<stop  offset="1" style="stop-color:#FF9F20"/>
				</linearGradient>
				<path class="st40" d="M49.7,47.2c0,0,0.1-0.1,0-0.1c0,0-0.1,0-0.1,0c0,0-0.1,0.1-0.1,0.1c0,0,0,0.1,0.1,0.1
					C49.6,47.3,49.6,47.2,49.7,47.2z"/>
				<linearGradient id="SVGID_42_" gradientUnits="userSpaceOnUse" x1="-7.605355e-03" y1="47.0665" x2="97.0328" y2="47.0665">
					<stop  offset="0" style="stop-color:#F87F00"/>
					<stop  offset="2.097060e-02" style="stop-color:#F88102"/>
					<stop  offset="0.2435" style="stop-color:#FC9213"/>
					<stop  offset="0.4872" style="stop-color:#FE9C1D"/>
					<stop  offset="0.7911" style="stop-color:#FF9F20"/>
					<stop  offset="0.8415" style="stop-color:#FD9C1E"/>
					<stop  offset="0.8819" style="stop-color:#F79219"/>
					<stop  offset="0.919" style="stop-color:#ED8111"/>
					<stop  offset="0.9537" style="stop-color:#DE6905"/>
					<stop  offset="0.966" style="stop-color:#D85F00"/>
					<stop  offset="1" style="stop-color:#FF9F20"/>
				</linearGradient>
				<path class="st41" d="M53.6,47c-0.1,0-0.1,0.1-0.1,0.1c0,0,0,0,0,0.1c0,0,0,0,0.1,0c0.1,0,0.1,0,0.1,0c0-0.1,0-0.1,0-0.1
					C53.7,46.9,53.7,46.9,53.6,47z"/>
				<linearGradient id="SVGID_43_" gradientUnits="userSpaceOnUse" x1="-5.581692e-03" y1="47.4992" x2="97.031" y2="47.4992">
					<stop  offset="0" style="stop-color:#F87F00"/>
					<stop  offset="2.097060e-02" style="stop-color:#F88102"/>
					<stop  offset="0.2435" style="stop-color:#FC9213"/>
					<stop  offset="0.4872" style="stop-color:#FE9C1D"/>
					<stop  offset="0.7911" style="stop-color:#FF9F20"/>
					<stop  offset="0.8415" style="stop-color:#FD9C1E"/>
					<stop  offset="0.8819" style="stop-color:#F79219"/>
					<stop  offset="0.919" style="stop-color:#ED8111"/>
					<stop  offset="0.9537" style="stop-color:#DE6905"/>
					<stop  offset="0.966" style="stop-color:#D85F00"/>
					<stop  offset="1" style="stop-color:#FF9F20"/>
				</linearGradient>
				<path class="st42" d="M50.6,47.8c0,0,0-0.1,0-0.1c0-0.1,0-0.1,0-0.1c0,0,0-0.1,0-0.1c0-0.1,0-0.1,0-0.1c0,0-0.1,0-0.1,0
					c0,0,0,0-0.1,0c0,0-0.1,0.1-0.1,0.1c0,0,0,0,0,0c0,0,0,0,0,0c0,0,0,0,0,0.1c0,0.1,0,0.1-0.1,0.1c0,0-0.1,0-0.1,0
					c0,0-0.1,0-0.1,0c0,0,0-0.1,0-0.1c0-0.1,0-0.1,0-0.1c0,0,0-0.1,0-0.2c0-0.1,0-0.2,0-0.2c0,0,0-0.1,0-0.1c0,0,0-0.1,0-0.1
					c0,0,0,0-0.1,0c0,0-0.1,0.1-0.2,0.2c0,0,0,0,0,0c0,0,0,0,0,0c0,0,0,0,0,0.1c0,0,0,0.1,0,0.1c0,0,0,0,0,0.1c0,0,0,0.1,0,0.1
					c0,0.1,0,0.1,0,0.1c0,0,0,0,0,0c0,0,0,0,0,0c0,0,0,0,0,0c0,0-0.1,0.1-0.1,0.1c0,0,0,0,0,0c0,0,0,0,0,0.1c0,0,0,0,0,0
					c0,0,0,0,0,0.1c0,0,0,0.1,0,0.1c0,0,0,0.1,0,0.1c0,0,0,0,0,0c0,0,0.1,0,0.1,0c0.1,0,0.1,0,0.1,0c0,0,0.2-0.1,0.4-0.1
					c0,0,0.1,0,0.1,0c0,0,0.1,0,0.1,0C50.5,47.9,50.5,47.9,50.6,47.8C50.5,47.9,50.5,47.8,50.6,47.8C50.6,47.8,50.6,47.8,50.6,47.8z
					 M49.9,47.9C49.8,47.9,49.8,47.9,49.9,47.9C49.8,47.9,49.8,47.9,49.9,47.9C49.8,47.9,49.8,47.9,49.9,47.9
					C49.8,47.8,49.8,47.8,49.9,47.9C49.9,47.8,49.9,47.8,49.9,47.9C49.9,47.8,49.9,47.8,49.9,47.9C49.9,47.8,49.9,47.8,49.9,47.9
					C49.9,47.9,49.9,47.9,49.9,47.9z"/>
				<linearGradient id="SVGID_44_" gradientUnits="userSpaceOnUse" x1="-1.182893e-02" y1="47.6998" x2="97.0368" y2="47.6998">
					<stop  offset="0" style="stop-color:#F87F00"/>
					<stop  offset="2.097060e-02" style="stop-color:#F88102"/>
					<stop  offset="0.2435" style="stop-color:#FC9213"/>
					<stop  offset="0.4872" style="stop-color:#FE9C1D"/>
					<stop  offset="0.7911" style="stop-color:#FF9F20"/>
					<stop  offset="0.8415" style="stop-color:#FD9C1E"/>
					<stop  offset="0.8819" style="stop-color:#F79219"/>
					<stop  offset="0.919" style="stop-color:#ED8111"/>
					<stop  offset="0.9537" style="stop-color:#DE6905"/>
					<stop  offset="0.966" style="stop-color:#D85F00"/>
					<stop  offset="1" style="stop-color:#FF9F20"/>
				</linearGradient>
				<path class="st43" d="M51,47.6C51,47.6,51,47.5,51,47.6c0-0.1,0-0.1,0-0.1c0,0,0-0.1-0.1-0.1c0,0,0,0,0,0c0,0,0-0.1-0.1-0.1
					c0,0-0.1,0-0.1,0c0,0,0,0.1,0,0.1c0,0,0,0.1,0,0.1c0,0,0,0.1,0,0.1c0,0,0.1,0,0.1,0.1c0,0,0,0.1,0,0.1c0,0.1,0,0.1,0,0.1
					c0,0,0,0,0,0c0,0,0,0,0,0.1c0,0.1-0.1,0.1-0.1,0.1c0,0,0,0,0,0c0,0,0,0,0,0c0,0,0,0,0,0c0,0,0,0,0.1,0c0.1,0,0.1,0,0.1,0
					c0,0,0,0,0,0c0,0,0.1-0.1,0.1-0.1c0,0,0,0,0,0c0,0,0,0,0,0C51,47.8,51.1,47.7,51,47.6C51,47.6,51,47.6,51,47.6z"/>
				<linearGradient id="SVGID_45_" gradientUnits="userSpaceOnUse" x1="1.098595e-02" y1="46.9332" x2="97.0164" y2="46.9332">
					<stop  offset="0" style="stop-color:#F87F00"/>
					<stop  offset="2.097060e-02" style="stop-color:#F88102"/>
					<stop  offset="0.2435" style="stop-color:#FC9213"/>
					<stop  offset="0.4872" style="stop-color:#FE9C1D"/>
					<stop  offset="0.7911" style="stop-color:#FF9F20"/>
					<stop  offset="0.8415" style="stop-color:#FD9C1E"/>
					<stop  offset="0.8819" style="stop-color:#F79219"/>
					<stop  offset="0.919" style="stop-color:#ED8111"/>
					<stop  offset="0.9537" style="stop-color:#DE6905"/>
					<stop  offset="0.966" style="stop-color:#D85F00"/>
					<stop  offset="1" style="stop-color:#FF9F20"/>
				</linearGradient>
				<path class="st44" d="M53.5,46.6C53.5,46.6,53.5,46.6,53.5,46.6C53.5,46.6,53.5,46.6,53.5,46.6c0-0.1-0.1-0.2-0.1-0.2
					c0,0,0-0.1,0-0.1c0-0.1,0-0.2,0-0.2c0,0,0,0,0-0.1c0,0,0,0,0,0c0,0,0,0,0,0c0,0-0.1-0.1-0.1-0.1c0,0,0,0,0,0c0,0-0.2,0-0.3,0
					c0,0-0.1,0-0.1,0c0,0,0,0,0,0c0,0,0,0,0,0c0,0,0,0,0,0c0,0,0,0,0,0c0,0,0,0,0,0c0,0,0,0,0,0c0,0,0,0,0.1,0c0,0,0,0,0,0
					c0,0,0.1-0.1,0.1-0.1c0,0,0,0,0,0c0,0,0.1,0,0.1,0c0,0,0,0,0,0c0,0,0.1,0.1,0.1,0.1c0,0,0,0,0,0.1c0,0,0,0.1,0,0.1
					c0,0,0,0.1,0,0.1c0,0,0,0.1,0,0.1c0,0,0,0.1,0,0.1c0,0,0,0.1,0,0.1c0,0,0,0,0,0c0,0,0,0,0,0c0,0-0.1,0-0.2,0c0,0,0,0-0.1,0
					c0,0-0.1,0-0.1,0c0,0,0,0-0.1,0.1c0,0,0,0-0.1,0.1c-0.1,0.1-0.1,0.1-0.1,0.1c0,0,0,0,0,0c0,0,0,0-0.1,0c-0.1,0-0.1,0-0.1-0.1
					c0-0.1-0.1-0.1-0.1-0.1c0,0,0,0,0,0c0,0,0,0-0.1,0c0,0,0,0,0,0c0,0-0.1,0-0.1,0c0,0-0.1,0-0.1,0c0,0,0,0,0-0.1c0,0,0-0.1,0-0.2
					c0-0.1,0-0.1,0-0.1c0,0,0,0,0,0c0,0,0,0,0,0c0,0,0,0,0,0.1c0,0-0.1,0.1-0.1,0.1c0,0,0,0,0,0c0.1,0,0.1,0.1,0.1,0.1
					c0,0,0,0,0,0.1c0,0,0,0,0,0c0,0,0,0,0,0c0,0-0.1,0.1-0.1,0.2c0,0,0,0,0,0.1c0,0,0,0.1,0,0.1c0,0.1,0,0.1,0,0.1c0,0-0.1,0-0.1,0
					c0,0,0,0,0-0.1c0,0,0-0.1,0-0.1c0,0,0,0,0-0.1c0,0,0,0,0-0.1c0,0,0,0,0,0c0,0,0,0,0,0c0,0,0,0,0,0c0,0-0.1,0.1-0.1,0.1
					c0,0,0,0,0,0c0,0,0,0,0,0c0,0,0,0.1-0.1,0.1c0,0,0,0,0,0c0,0,0,0.1,0,0.1c0,0,0,0.1,0,0.1c0,0,0,0,0,0c0,0,0,0,0,0
					c0.1,0,0.2-0.1,0.2,0c0,0,0,0,0,0c0,0.1-0.1,0.1-0.2,0.2c0,0,0,0-0.1,0c0,0,0,0,0,0c0,0,0,0,0,0c0,0,0,0,0,0.1c0,0,0,0,0.1,0
					c0.1,0,0.1,0,0.1,0c0,0,0,0,0.1,0c0,0,0.1-0.1,0.1-0.1c0,0,0,0,0,0c0,0,0,0,0-0.1c0-0.1,0-0.1,0.1-0.1c0,0,0,0,0.1,0
					c0,0,0.1,0,0.1,0c0,0,0.1,0,0.1,0c0,0,0.1,0,0.1,0c0,0,0.1,0,0.1,0c0,0,0,0,0,0c0,0,0.1,0.1,0.1,0.1c0,0,0.1,0,0.1,0
					c0,0,0,0,0,0c0,0,0.1,0,0.1,0c0,0,0.1-0.1,0.1-0.1c0,0,0,0,0-0.1c0,0,0,0,0,0c0,0,0-0.1,0-0.1c0,0,0,0,0-0.1c0,0,0,0,0,0
					c0.1,0,0.1,0,0.1,0c0,0,0,0,0,0c0,0,0,0,0,0c0,0,0.1,0,0.1,0c0.1,0,0.1,0,0.1,0c0.1,0,0.1-0.1,0.1-0.2c0,0,0,0,0.1,0
					c0,0,0,0,0,0c0,0,0.1-0.1,0.2-0.1c0.1,0,0.1-0.1,0.2-0.1c0,0,0.1,0,0.1,0c0,0,0,0,0.1,0c0,0,0,0,0.1,0c0,0,0,0,0,0
					c0,0,0-0.1,0-0.1c0,0-0.1,0-0.1-0.1c0,0,0,0-0.1,0c0,0,0,0-0.1,0.1c0,0-0.1,0.1-0.1,0.1C53.6,46.7,53.5,46.7,53.5,46.6z
					 M51.4,47.5C51.4,47.5,51.4,47.5,51.4,47.5c-0.1,0-0.1,0-0.1,0c0,0,0,0,0,0C51.3,47.4,51.3,47.4,51.4,47.5
					C51.3,47.4,51.4,47.4,51.4,47.5C51.4,47.4,51.5,47.4,51.4,47.5C51.5,47.4,51.5,47.5,51.4,47.5z M52,47.3
					C52,47.3,52,47.3,52,47.3C52,47.2,52,47.2,52,47.2c0,0,0.1,0,0.1,0C52.1,47.1,52.1,47.2,52,47.3C52.1,47.2,52.1,47.2,52,47.3
					C52.1,47.3,52.1,47.3,52,47.3z M52.3,47.2C52.3,47.2,52.2,47.1,52.3,47.2c0-0.1,0-0.1,0-0.1c0,0,0,0,0.1,0c0,0,0.1,0.1,0.1,0.1
					c0,0,0,0,0,0.1C52.4,47.2,52.3,47.2,52.3,47.2C52.3,47.2,52.3,47.2,52.3,47.2z M52.5,47.4c0,0-0.1,0-0.1,0c0,0,0,0,0,0
					c0,0,0,0,0,0C52.4,47.3,52.5,47.3,52.5,47.4C52.5,47.4,52.5,47.4,52.5,47.4z M53,47.1C53,47.1,53,47.1,53,47.1
					C53,47.1,53,47.1,53,47.1c-0.1,0-0.1,0-0.1,0c0,0,0-0.1,0.1-0.1C53,47,53.1,47,53,47.1C53.1,47,53.1,47.1,53,47.1z"/>
				<linearGradient id="SVGID_46_" gradientUnits="userSpaceOnUse" x1="9.660313e-02" y1="48.209" x2="96.9356" y2="48.209">
					<stop  offset="0" style="stop-color:#F87F00"/>
					<stop  offset="2.097060e-02" style="stop-color:#F88102"/>
					<stop  offset="0.2435" style="stop-color:#FC9213"/>
					<stop  offset="0.4872" style="stop-color:#FE9C1D"/>
					<stop  offset="0.7911" style="stop-color:#FF9F20"/>
					<stop  offset="0.8415" style="stop-color:#FD9C1E"/>
					<stop  offset="0.8819" style="stop-color:#F79219"/>
					<stop  offset="0.919" style="stop-color:#ED8111"/>
					<stop  offset="0.9537" style="stop-color:#DE6905"/>
					<stop  offset="0.966" style="stop-color:#D85F00"/>
					<stop  offset="1" style="stop-color:#FF9F20"/>
				</linearGradient>
				<path class="st45" d="M50.3,48.1C50.2,48.1,50.2,48.1,50.3,48.1c-0.1,0-0.2,0-0.2,0.1c0,0,0,0-0.1,0c-0.1,0-0.1,0-0.2,0
					c0,0,0,0,0,0.1c0,0,0,0,0,0.1c0,0,0,0,0.1,0c0,0,0,0,0.1,0c0,0,0.1-0.1,0.1-0.1c0,0,0,0,0,0c0,0,0,0,0,0c0,0,0,0.1,0.1,0.1
					c0,0,0,0,0.1,0C50.3,48.2,50.3,48.2,50.3,48.1C50.3,48.1,50.3,48.1,50.3,48.1z"/>
				<linearGradient id="SVGID_47_" gradientUnits="userSpaceOnUse" x1="0.3447" y1="33.7137" x2="96.702" y2="33.7137">
					<stop  offset="0" style="stop-color:#F87F00"/>
					<stop  offset="2.097060e-02" style="stop-color:#F88102"/>
					<stop  offset="0.2435" style="stop-color:#FC9213"/>
					<stop  offset="0.4872" style="stop-color:#FE9C1D"/>
					<stop  offset="0.7911" style="stop-color:#FF9F20"/>
					<stop  offset="0.8415" style="stop-color:#FD9C1E"/>
					<stop  offset="0.8819" style="stop-color:#F79219"/>
					<stop  offset="0.919" style="stop-color:#ED8111"/>
					<stop  offset="0.9537" style="stop-color:#DE6905"/>
					<stop  offset="0.966" style="stop-color:#D85F00"/>
					<stop  offset="1" style="stop-color:#FF9F20"/>
				</linearGradient>
				<path class="st46" d="M50,33.7C50,33.7,50,33.7,50,33.7C50.1,33.7,50.1,33.7,50,33.7C50.1,33.7,50.1,33.7,50,33.7z"/>
				<linearGradient id="SVGID_48_" gradientUnits="userSpaceOnUse" x1="8.402815e-04" y1="37.9251" x2="97.0251" y2="37.9251">
					<stop  offset="0" style="stop-color:#F87F00"/>
					<stop  offset="2.097060e-02" style="stop-color:#F88102"/>
					<stop  offset="0.2435" style="stop-color:#FC9213"/>
					<stop  offset="0.4872" style="stop-color:#FE9C1D"/>
					<stop  offset="0.7911" style="stop-color:#FF9F20"/>
					<stop  offset="0.8415" style="stop-color:#FD9C1E"/>
					<stop  offset="0.8819" style="stop-color:#F79219"/>
					<stop  offset="0.919" style="stop-color:#ED8111"/>
					<stop  offset="0.9537" style="stop-color:#DE6905"/>
					<stop  offset="0.966" style="stop-color:#D85F00"/>
					<stop  offset="1" style="stop-color:#FF9F20"/>
				</linearGradient>
				<path class="st47" d="M47.4,40.4C47.5,40.5,47.5,40.5,47.4,40.4C47.5,40.4,47.5,40.4,47.4,40.4c0.1-0.2,0.1-0.2,0.1-0.3
					c0-0.1,0-0.1,0-0.2c0-0.1,0-0.1,0-0.2c0-1.8,0-2.7,0-4.5c-0.3,0.2-0.7,0.3-1,0.4c-0.3,0.1-0.5,0.1-0.7,0.2c0,0,0,0,0,0
					c0,0-0.1,0-0.1,0c0,0.1,0,0.3,0,0.4c0,0.1,0,0.3,0,0.4c0,0.4,0.1,0.8,0.2,1.1c0.1,0.3,0.2,0.6,0.3,0.8c0,0,0,0.1,0,0.1
					c0,0,0,0,0,0c0.1,0.1,0.1,0.2,0.2,0.3C46.8,39.7,47.1,40.1,47.4,40.4z"/>
				<linearGradient id="SVGID_49_" gradientUnits="userSpaceOnUse" x1="-4.873660e-03" y1="37.6233" x2="97.0308" y2="37.6233">
					<stop  offset="0" style="stop-color:#F87F00"/>
					<stop  offset="2.097060e-02" style="stop-color:#F88102"/>
					<stop  offset="0.2435" style="stop-color:#FC9213"/>
					<stop  offset="0.4872" style="stop-color:#FE9C1D"/>
					<stop  offset="0.7911" style="stop-color:#FF9F20"/>
					<stop  offset="0.8415" style="stop-color:#FD9C1E"/>
					<stop  offset="0.8819" style="stop-color:#F79219"/>
					<stop  offset="0.919" style="stop-color:#ED8111"/>
					<stop  offset="0.9537" style="stop-color:#DE6905"/>
					<stop  offset="0.966" style="stop-color:#D85F00"/>
					<stop  offset="1" style="stop-color:#FF9F20"/>
				</linearGradient>
				<path class="st48" d="M51.5,35c-0.2,0-0.4,0-0.7,0c-0.3,0-0.7,0-1.1-0.1c0,1.8,0,2.7,0,4.6c0,0.1,0,0.1,0,0.2c0,0,0,0,0,0.1
					c0,0,0,0.1,0,0.1c0,0.1,0,0.1,0,0.2c0,0.1,0,0.1,0,0.2c0,0,0.1-0.1,0.1-0.1c0-0.1,0.1-0.1,0.1-0.2c0.3-0.4,0.6-0.9,0.8-1.4
					c0.1-0.1,0.1-0.3,0.2-0.4c0,0,0,0,0,0c0,0,0-0.1,0-0.1c0.1-0.3,0.2-0.6,0.3-0.9c0.1-0.4,0.2-0.8,0.2-1.2c0-0.1,0-0.3,0-0.4
					C51.6,35.3,51.6,35.2,51.5,35C51.6,35,51.5,35,51.5,35C51.5,35,51.5,35,51.5,35z"/>
			</g>
			<defs>
				<filter id="Adobe_OpacityMaskFilter" filterUnits="userSpaceOnUse" x="0" y="0" width="97" height="75.2">
					<feColorMatrix  type="matrix" values="1 0 0 0 0  0 1 0 0 0  0 0 1 0 0  0 0 0 1 0"/>
				</filter>
			</defs>
			<mask maskUnits="userSpaceOnUse" x="0" y="0" width="97" height="75.2" id="SVGID_50_">
				<g class="st49">
					<g>
						<linearGradient id="SVGID_51_" gradientUnits="userSpaceOnUse" x1="0" y1="37.5981" x2="97.0245" y2="37.5981">
							<stop  offset="0" style="stop-color:#000000"/>
							<stop  offset="0.7911" style="stop-color:#FFFFFF"/>
							<stop  offset="0.8065" style="stop-color:#F8F8F8"/>
							<stop  offset="0.829" style="stop-color:#E4E4E4"/>
							<stop  offset="0.8559" style="stop-color:#C4C4C4"/>
							<stop  offset="0.8861" style="stop-color:#979797"/>
							<stop  offset="0.9192" style="stop-color:#5E5E5E"/>
							<stop  offset="0.9542" style="stop-color:#191919"/>
							<stop  offset="0.966" style="stop-color:#000000"/>
							<stop  offset="1" style="stop-color:#BFBFBF"/>
						</linearGradient>
						<path class="st50" d="M3.6,10.5L3.6,10.5c-2,0-3.6,1.6-3.6,3.6h0c0,19.1,0,38.3,0,57.4l0,0c0,2,1.6,3.6,3.6,3.6l0,0
							c47.5-0.4,93.5-16.1,93.4-8.4c0-21.6,0-43.1,0-64.7C97.1-5.6,51.2,10.2,3.6,10.5z"/>
					</g>
				</g>
			</mask>
			<g class="st51">
				<linearGradient id="SVGID_52_" gradientUnits="userSpaceOnUse" x1="0" y1="37.5981" x2="97.0245" y2="37.5981">
					<stop  offset="0" style="stop-color:#404040"/>
					<stop  offset="0.7911" style="stop-color:#FFFFFF"/>
					<stop  offset="0.966" style="stop-color:#FFFFFF"/>
					<stop  offset="1" style="stop-color:#FFFFFF"/>
				</linearGradient>
				<path class="st52" d="M3.6,10.5L3.6,10.5c-2,0-3.6,1.6-3.6,3.6h0c0,19.1,0,38.3,0,57.4l0,0c0,2,1.6,3.6,3.6,3.6l0,0
					c47.5-0.4,93.5-16.1,93.4-8.4c0-21.6,0-43.1,0-64.7C97.1-5.6,51.2,10.2,3.6,10.5z"/>
			</g>
		</g>
	</g>
</g>
</svg>
