<?xml version="1.0" encoding="utf-8"?>
<!-- Generator: Adobe Illustrator 21.0.0, SVG Export Plug-In . SVG Version: 6.00 Build 0)  -->
<svg version="1.1" id="Layer_1" xmlns="http://www.w3.org/2000/svg" xmlns:xlink="http://www.w3.org/1999/xlink" x="0px" y="0px"
	 viewBox="0 0 108.8 86.1" style="enable-background:new 0 0 108.8 86.1;" xml:space="preserve">
<style type="text/css">
	.st0{fill:url(#SVGID_1_);}
	.st1{fill:url(#SVGID_2_);}
	.st2{fill:url(#SVGID_3_);}
	.st3{fill:url(#SVGID_4_);}
	.st4{fill:url(#SVGID_5_);}
	.st5{fill:url(#SVGID_6_);}
	.st6{fill:url(#SVGID_7_);}
	.st7{fill:url(#SVGID_8_);}
	.st8{fill:url(#SVGID_9_);}
	.st9{fill:url(#SVGID_10_);}
	.st10{fill:url(#SVGID_11_);}
	.st11{fill:url(#SVGID_12_);}
	.st12{fill:url(#SVGID_13_);}
	.st13{fill:url(#SVGID_14_);}
	.st14{fill:url(#SVGID_15_);}
	.st15{fill:url(#SVGID_16_);}
	.st16{fill:url(#SVGID_17_);}
	.st17{fill:url(#SVGID_18_);}
	.st18{fill:url(#SVGID_19_);}
	.st19{fill:url(#SVGID_20_);}
	.st20{fill:url(#SVGID_21_);}
	.st21{fill:url(#SVGID_22_);}
	.st22{fill:url(#SVGID_23_);}
	.st23{fill:#7F7F7F;}
	.st24{fill:#999898;}
	.st25{fill:url(#SVGID_24_);}
	.st26{fill:url(#SVGID_25_);}
	.st27{fill:url(#SVGID_26_);}
	.st28{fill:url(#SVGID_27_);}
	.st29{fill:url(#SVGID_28_);}
	.st30{opacity:0.38;}
	.st31{fill:url(#SVGID_29_);}
	.st32{fill:url(#SVGID_30_);}
</style>
<g>
	<g>
		
			<linearGradient id="SVGID_1_" gradientUnits="userSpaceOnUse" x1="0" y1="48.1826" x2="97.0002" y2="48.1826" gradientTransform="matrix(1 0 0 -1 0 85.7)">
			<stop  offset="0" style="stop-color:#000000"/>
			<stop  offset="0.7911" style="stop-color:#FFFFFF"/>
			<stop  offset="0.8065" style="stop-color:#F8F8F8"/>
			<stop  offset="0.829" style="stop-color:#E4E4E4"/>
			<stop  offset="0.8559" style="stop-color:#C4C4C4"/>
			<stop  offset="0.8861" style="stop-color:#979797"/>
			<stop  offset="0.9192" style="stop-color:#5E5E5E"/>
			<stop  offset="0.9542" style="stop-color:#191919"/>
			<stop  offset="0.966" style="stop-color:#000000"/>
			<stop  offset="1" style="stop-color:#BFBFBF"/>
		</linearGradient>
		<path class="st0" d="M3.6,10.5L3.6,10.5c-2,0-3.6,1.6-3.6,3.6l0,0c0,19.1,0,38.3,0,57.4l0,0c0,2,1.6,3.6,3.6,3.6l0,0
			C51.1,74.7,97.1,59,97,66.7c0-21.6,0-43.1,0-64.7C97.1-5.6,51.2,10.2,3.6,10.5z"/>
	</g>
</g>
<g>
	<g>
		<g>
			
				<linearGradient id="SVGID_2_" gradientUnits="userSpaceOnUse" x1="0" y1="37.0692" x2="108.8" y2="37.0692" gradientTransform="matrix(1 0 0 -1 0 85.7)">
				<stop  offset="0.375" style="stop-color:#FFFFFF"/>
				<stop  offset="1" style="stop-color:#FFFFFF"/>
			</linearGradient>
			<path class="st1" d="M3.6,11.1c-2,0-3.6,1.4-3.6,3.1C0,31.6,0,54,0,71.6c0,2.3,1.6,4.2,3.6,4.2C57,76.4,108.8,91.7,108.8,84
				c0-19.2,0-45.5,0-64.7C108.8,11.4,57,11.1,3.6,11.1z"/>
			
				<linearGradient id="SVGID_3_" gradientUnits="userSpaceOnUse" x1="0" y1="37.3012" x2="108.2" y2="37.3012" gradientTransform="matrix(1 0 0 -1 0 85.7)">
				<stop  offset="0.375" style="stop-color:#F9F9F9"/>
				<stop  offset="1" style="stop-color:#FDFDFD"/>
			</linearGradient>
			<path class="st2" d="M3.6,11.1c-2,0-3.6,1.4-3.6,3.1C0,31.6,0,54,0,71.6c0,2.3,1.6,4.2,3.6,4.2c53.1,0.3,104.6,15.3,104.6,7.8
				c-0.1-19-0.1-45.1,0-64.1C108.2,11.8,56.7,11.1,3.6,11.1z"/>
			
				<linearGradient id="SVGID_4_" gradientUnits="userSpaceOnUse" x1="0" y1="37.4994" x2="107.6001" y2="37.4994" gradientTransform="matrix(1 0 0 -1 0 85.7)">
				<stop  offset="0.375" style="stop-color:#F3F3F3"/>
				<stop  offset="1" style="stop-color:#FAFAFA"/>
			</linearGradient>
			<path class="st3" d="M3.6,11.1c-2,0-3.6,1.4-3.6,3.1C0,31.6,0,54,0,71.6c0,2.3,1.6,4.2,3.6,4.2c52.8,0.3,104.1,14.8,104,7.4
				c-0.1-18.8-0.1-44.7,0-63.5C107.7,12.3,56.5,11.1,3.6,11.1z"/>
			
				<linearGradient id="SVGID_5_" gradientUnits="userSpaceOnUse" x1="0" y1="37.6914" x2="107.1" y2="37.6914" gradientTransform="matrix(1 0 0 -1 0 85.7)">
				<stop  offset="0.375" style="stop-color:#EDEDED"/>
				<stop  offset="0.8367" style="stop-color:#F4F4F4"/>
				<stop  offset="1" style="stop-color:#F8F8F8"/>
			</linearGradient>
			<path class="st4" d="M3.6,11.1c-2,0-3.6,1.4-3.6,3.1C0,31.6,0,54,0,71.6c0,2.3,1.6,4.2,3.6,4.2c52.5,0.3,103.5,14.2,103.5,7.1
				c-0.1-18.6-0.1-44.3,0-62.9C107.1,12.7,56.2,11.1,3.6,11.1z"/>
			
				<linearGradient id="SVGID_6_" gradientUnits="userSpaceOnUse" x1="0" y1="37.9086" x2="106.5001" y2="37.9086" gradientTransform="matrix(1 0 0 -1 0 85.7)">
				<stop  offset="0.375" style="stop-color:#E7E7E7"/>
				<stop  offset="0.7491" style="stop-color:#EEEEEE"/>
				<stop  offset="1" style="stop-color:#F6F6F6"/>
			</linearGradient>
			<path class="st5" d="M3.6,11.1c-2,0-3.6,1.4-3.6,3.1C0,31.6,0,54,0,71.6c0,2.3,1.6,4.2,3.6,4.2c52.3,0.3,102.9,13.6,102.9,6.7
				c-0.1-18.4-0.1-43.9,0-62.2C106.6,13.1,55.9,11.2,3.6,11.1z"/>
			
				<linearGradient id="SVGID_7_" gradientUnits="userSpaceOnUse" x1="0" y1="38.1306" x2="106" y2="38.1306" gradientTransform="matrix(1 0 0 -1 0 85.7)">
				<stop  offset="0.375" style="stop-color:#E1E1E1"/>
				<stop  offset="0.6937" style="stop-color:#E8E8E8"/>
				<stop  offset="1" style="stop-color:#F4F4F4"/>
			</linearGradient>
			<path class="st6" d="M3.6,11.1c-2,0-3.6,1.4-3.6,3.1C0,31.6,0,54,0,71.6c0,2.3,1.6,4.2,3.6,4.2c52,0.2,102.4,13,102.4,6.3
				c-0.1-18.2-0.1-43.5,0-61.6C106,13.5,55.6,11.2,3.6,11.1z"/>
			
				<linearGradient id="SVGID_8_" gradientUnits="userSpaceOnUse" x1="0" y1="38.3224" x2="105.4" y2="38.3224" gradientTransform="matrix(1 0 0 -1 0 85.7)">
				<stop  offset="0.375" style="stop-color:#DBDBDB"/>
				<stop  offset="0.6638" style="stop-color:#E2E2E2"/>
				<stop  offset="1" style="stop-color:#F1F1F1"/>
			</linearGradient>
			<path class="st7" d="M3.6,11.1c-2,0-3.6,1.4-3.6,3.1C0,31.6,0,54,0,71.6c0,2.3,1.6,4.2,3.6,4.2c51.7,0.3,101.8,12.5,101.8,5.9
				c-0.1-18-0.1-43.1,0-61C105.4,13.9,55.3,11.2,3.6,11.1z"/>
			
				<linearGradient id="SVGID_9_" gradientUnits="userSpaceOnUse" x1="0" y1="38.5185" x2="104.8001" y2="38.5185" gradientTransform="matrix(1 0 0 -1 0 85.7)">
				<stop  offset="0.375" style="stop-color:#D5D5D5"/>
				<stop  offset="0.6329" style="stop-color:#DCDCDC"/>
				<stop  offset="1" style="stop-color:#EFEFEF"/>
			</linearGradient>
			<path class="st8" d="M3.6,11.1c-2,0-3.6,1.4-3.6,3.1C0,31.6,0,54,0,71.6c0,2.3,1.6,4.2,3.6,4.2c51.4,0.3,101.3,12,101.2,5.5
				c-0.1-17.8-0.1-42.6,0-60.4C104.9,14.3,55,11.2,3.6,11.1z"/>
			
				<linearGradient id="SVGID_10_" gradientUnits="userSpaceOnUse" x1="0" y1="38.7158" x2="104.3" y2="38.7158" gradientTransform="matrix(1 0 0 -1 0 85.7)">
				<stop  offset="0.375" style="stop-color:#CFCFCF"/>
				<stop  offset="0.609" style="stop-color:#D6D6D6"/>
				<stop  offset="0.9505" style="stop-color:#EAEAEA"/>
				<stop  offset="1" style="stop-color:#EDEDED"/>
			</linearGradient>
			<path class="st9" d="M3.6,11.1c-2,0-3.6,1.4-3.6,3.1C0,31.6,0,54,0,71.6c0,2.3,1.6,4.2,3.6,4.2C54.7,76,104.3,87.2,104.3,81
				c-0.1-17.6-0.1-42.2,0-59.8C104.3,14.7,54.8,11.1,3.6,11.1z"/>
			
				<linearGradient id="SVGID_11_" gradientUnits="userSpaceOnUse" x1="0" y1="38.9314" x2="103.7001" y2="38.9314" gradientTransform="matrix(1 0 0 -1 0 85.7)">
				<stop  offset="0.375" style="stop-color:#C9C9C9"/>
				<stop  offset="0.5944" style="stop-color:#D0D0D0"/>
				<stop  offset="0.9144" style="stop-color:#E4E4E4"/>
				<stop  offset="1" style="stop-color:#EAEAEA"/>
			</linearGradient>
			<path class="st10" d="M3.6,11.1c-2,0-3.6,1.4-3.6,3.1C0,31.6,0,54,0,71.6c0,2.3,1.6,4.2,3.6,4.2c50.8,0.2,100.1,10.8,100.1,4.8
				c-0.1-17.4-0.1-41.8,0-59.2C103.8,15.2,54.5,11.1,3.6,11.1z"/>
			
				<linearGradient id="SVGID_12_" gradientUnits="userSpaceOnUse" x1="0" y1="39.1262" x2="103.2" y2="39.1262" gradientTransform="matrix(1 0 0 -1 0 85.7)">
				<stop  offset="0.375" style="stop-color:#C3C3C3"/>
				<stop  offset="0.578" style="stop-color:#CACACA"/>
				<stop  offset="0.8742" style="stop-color:#DEDEDE"/>
				<stop  offset="1" style="stop-color:#E8E8E8"/>
			</linearGradient>
			<path class="st11" d="M3.6,11.1c-2,0-3.6,1.4-3.6,3.1C0,31.6,0,54,0,71.6c0,2.3,1.6,4.2,3.6,4.2c50.6,0.2,99.6,10.3,99.6,4.4
				c-0.1-17.2-0.1-41.4,0-58.6C103.2,15.6,54.2,11.1,3.6,11.1z"/>
			
				<linearGradient id="SVGID_13_" gradientUnits="userSpaceOnUse" x1="0" y1="39.3406" x2="102.6" y2="39.3406" gradientTransform="matrix(1 0 0 -1 0 85.7)">
				<stop  offset="0.375" style="stop-color:#BCBCBC"/>
				<stop  offset="0.5613" style="stop-color:#C3C3C3"/>
				<stop  offset="0.833" style="stop-color:#D7D7D7"/>
				<stop  offset="1" style="stop-color:#E6E6E6"/>
			</linearGradient>
			<path class="st12" d="M3.6,11.1c-2,0-3.6,1.4-3.6,3.1C0,31.6,0,54,0,71.6c0,2.3,1.6,4.2,3.6,4.2c50.3,0.2,99,9.7,99,4
				c-0.1-17-0.1-41,0-58C102.6,16,53.9,11.2,3.6,11.1z"/>
			
				<linearGradient id="SVGID_14_" gradientUnits="userSpaceOnUse" x1="0" y1="39.5317" x2="102.0002" y2="39.5317" gradientTransform="matrix(1 0 0 -1 0 85.7)">
				<stop  offset="0.375" style="stop-color:#B6B6B6"/>
				<stop  offset="0.5502" style="stop-color:#BDBDBD"/>
				<stop  offset="0.8056" style="stop-color:#D1D1D1"/>
				<stop  offset="1" style="stop-color:#E4E4E4"/>
			</linearGradient>
			<path class="st13" d="M3.6,11.1c-2,0-3.6,1.4-3.6,3.1C0,31.6,0,54,0,71.6c0,2.3,1.6,4.2,3.6,4.2c50,0.2,98.5,9.1,98.4,3.7
				c-0.1-16.8-0.1-40.6,0-57.4C102.1,16.4,53.6,11.2,3.6,11.1z"/>
			
				<linearGradient id="SVGID_15_" gradientUnits="userSpaceOnUse" x1="0" y1="39.7243" x2="101.5" y2="39.7243" gradientTransform="matrix(1 0 0 -1 0 85.7)">
				<stop  offset="0.375" style="stop-color:#B0B0B0"/>
				<stop  offset="0.5428" style="stop-color:#B7B7B7"/>
				<stop  offset="0.7876" style="stop-color:#CBCBCB"/>
				<stop  offset="1" style="stop-color:#E1E1E1"/>
			</linearGradient>
			<path class="st14" d="M3.6,11.1c-2,0-3.6,1.4-3.6,3.1C0,31.6,0,54,0,71.6c0,2.3,1.6,4.2,3.6,4.2c49.7,0.2,97.9,8.6,97.9,3.3
				c-0.1-16.6-0.1-40.2,0-56.8C101.5,16.8,53.4,11.2,3.6,11.1z"/>
			
				<linearGradient id="SVGID_16_" gradientUnits="userSpaceOnUse" x1="0" y1="39.9365" x2="100.9002" y2="39.9365" gradientTransform="matrix(1 0 0 -1 0 85.7)">
				<stop  offset="0.375" style="stop-color:#AAAAAA"/>
				<stop  offset="0.5341" style="stop-color:#B1B1B1"/>
				<stop  offset="0.7668" style="stop-color:#C5C5C5"/>
				<stop  offset="1" style="stop-color:#DFDFDF"/>
			</linearGradient>
			<path class="st15" d="M3.6,11.1c-2,0-3.6,1.4-3.6,3.1C0,31.6,0,54,0,71.6c0,2.3,1.6,4.2,3.6,4.2c49.4,0.2,97.3,8,97.3,2.9
				c-0.1-16.3-0.1-39.8,0-56.1C101,17.2,53.1,11.2,3.6,11.1z"/>
			
				<linearGradient id="SVGID_17_" gradientUnits="userSpaceOnUse" x1="0" y1="40.1476" x2="100.4" y2="40.1476" gradientTransform="matrix(1 0 0 -1 0 85.7)">
				<stop  offset="0.375" style="stop-color:#A4A4A4"/>
				<stop  offset="0.5265" style="stop-color:#ABABAB"/>
				<stop  offset="0.7479" style="stop-color:#BFBFBF"/>
				<stop  offset="1" style="stop-color:#DDDDDD"/>
			</linearGradient>
			<path class="st16" d="M3.6,11.1c-2,0-3.6,1.4-3.6,3.1C0,31.6,0,54,0,71.6c0,2.3,1.6,4.2,3.6,4.2c49.1,0.2,96.8,7.4,96.8,2.5
				c-0.1-16.1-0.1-39.4,0-55.5C100.4,17.7,52.8,11.2,3.6,11.1z"/>
			
				<linearGradient id="SVGID_18_" gradientUnits="userSpaceOnUse" x1="0" y1="40.3358" x2="99.8" y2="40.3358" gradientTransform="matrix(1 0 0 -1 0 85.7)">
				<stop  offset="0.375" style="stop-color:#9E9E9E"/>
				<stop  offset="0.5213" style="stop-color:#A5A5A5"/>
				<stop  offset="0.7352" style="stop-color:#B9B9B9"/>
				<stop  offset="0.9896" style="stop-color:#D9D9D9"/>
				<stop  offset="1" style="stop-color:#DADADA"/>
			</linearGradient>
			<path class="st17" d="M3.6,11.1c-2,0-3.6,1.4-3.6,3.1C0,31.6,0,54,0,71.6c0,2.3,1.6,4.2,3.6,4.2c48.9,0.2,96.2,6.9,96.2,2.1
				c-0.1-15.9-0.1-39,0-54.9C99.8,18.1,52.5,11.2,3.6,11.1z"/>
			
				<linearGradient id="SVGID_19_" gradientUnits="userSpaceOnUse" x1="0" y1="40.532" x2="99.2002" y2="40.532" gradientTransform="matrix(1 0 0 -1 0 85.7)">
				<stop  offset="0.375" style="stop-color:#989898"/>
				<stop  offset="0.515" style="stop-color:#9F9F9F"/>
				<stop  offset="0.7198" style="stop-color:#B3B3B3"/>
				<stop  offset="0.9632" style="stop-color:#D3D3D3"/>
				<stop  offset="1" style="stop-color:#D8D8D8"/>
			</linearGradient>
			<path class="st18" d="M3.6,11.1c-2,0-3.6,1.4-3.6,3.1C0,31.6,0,54,0,71.6c0,2.3,1.6,4.2,3.6,4.2c48.6,0.1,95.7,6.3,95.6,1.8
				c-0.1-15.7-0.1-38.6,0-54.3C99.3,18.5,52.2,11.2,3.6,11.1z"/>
			
				<linearGradient id="SVGID_20_" gradientUnits="userSpaceOnUse" x1="0" y1="40.7391" x2="98.7" y2="40.7391" gradientTransform="matrix(1 0 0 -1 0 85.7)">
				<stop  offset="0.375" style="stop-color:#929292"/>
				<stop  offset="0.5094" style="stop-color:#999999"/>
				<stop  offset="0.7059" style="stop-color:#ADADAD"/>
				<stop  offset="0.9396" style="stop-color:#CDCDCD"/>
				<stop  offset="1" style="stop-color:#D6D6D6"/>
			</linearGradient>
			<path class="st19" d="M3.6,11.1c-2,0-3.6,1.4-3.6,3.1C0,31.6,0,54,0,71.6c0,2.3,1.6,4.2,3.6,4.2c48.3,0.1,95.1,5.7,95.1,1.4
				c-0.1-15.5-0.1-38.2,0-53.7C98.7,18.9,52,11.2,3.6,11.1z"/>
			
				<linearGradient id="SVGID_21_" gradientUnits="userSpaceOnUse" x1="0" y1="40.9218" x2="98.1002" y2="40.9218" gradientTransform="matrix(1 0 0 -1 0 85.7)">
				<stop  offset="0.375" style="stop-color:#8C8C8C"/>
				<stop  offset="0.5043" style="stop-color:#939393"/>
				<stop  offset="0.6934" style="stop-color:#A7A7A7"/>
				<stop  offset="0.9181" style="stop-color:#C7C7C7"/>
				<stop  offset="1" style="stop-color:#D4D4D4"/>
			</linearGradient>
			<path class="st20" d="M3.6,11.1c-2,0-3.6,1.4-3.6,3.1C0,31.6,0,54,0,71.6c0,2.3,1.6,4.2,3.6,4.2c48,0.1,94.5,5.2,94.5,1
				C98,61.5,98,39,98.1,23.7C98.2,19.3,51.7,11.2,3.6,11.1z"/>
			
				<linearGradient id="SVGID_22_" gradientUnits="userSpaceOnUse" x1="0" y1="41.123" x2="97.6" y2="41.123" gradientTransform="matrix(1 0 0 -1 0 85.7)">
				<stop  offset="0.375" style="stop-color:#868686"/>
				<stop  offset="0.5008" style="stop-color:#8D8D8D"/>
				<stop  offset="0.6847" style="stop-color:#A1A1A1"/>
				<stop  offset="0.9032" style="stop-color:#C1C1C1"/>
				<stop  offset="1" style="stop-color:#D1D1D1"/>
			</linearGradient>
			<path class="st21" d="M3.6,11.1c-2,0-3.6,1.4-3.6,3.1C0,31.6,0,54,0,71.6c0,2.3,1.6,4.2,3.6,4.2c47.7,0.1,94,4.6,94,0.6
				c-0.1-15.1-0.1-37.4,0-52.5C97.6,19.7,51.4,11.2,3.6,11.1z"/>
			
				<linearGradient id="SVGID_23_" gradientUnits="userSpaceOnUse" x1="0" y1="41.3201" x2="97.0002" y2="41.3201" gradientTransform="matrix(1 0 0 -1 0 85.7)">
				<stop  offset="0.375" style="stop-color:#808080"/>
				<stop  offset="0.4964" style="stop-color:#878787"/>
				<stop  offset="0.674" style="stop-color:#9B9B9B"/>
				<stop  offset="0.885" style="stop-color:#BBBBBB"/>
				<stop  offset="1" style="stop-color:#CFCFCF"/>
			</linearGradient>
			<path class="st22" d="M3.6,11.1c-2,0-3.6,1.4-3.6,3.1C0,31.6,0,54,0,71.6c0,2.3,1.6,4.2,3.6,4.2c47.5,0.1,93.5,4,93.4,0.2
				c0-14.9,0-37,0-51.9C97.1,20.1,51.1,11.5,3.6,11.1z"/>
		</g>
		<g>
			<g>
				<path class="st23" d="M0,71.6c0,2.3,1.6,4.2,3.6,4.2c47.5,0.3,93.4-1.9,93.4-9C97,45.2,0,71.6,0,71.6z"/>
				<g>
					<path class="st24" d="M41,72.8l-8.7-8.7c-10.9,2.2-20.5,4.5-26.4,6l5.3,5.3C21.5,74.9,31.6,74,41,72.8z"/>
					<path class="st24" d="M86.9,65.7l-7.4-7.4c-8.9-0.3-20.3,1-31.6,2.8l9.2,9.2C69.6,68.5,80,66.5,86.9,65.7z"/>
					
						<linearGradient id="SVGID_24_" gradientUnits="userSpaceOnUse" x1="0.1" y1="27.4015" x2="0.1" y2="9.8788" gradientTransform="matrix(1 0 0 -1 0 85.7)">
						<stop  offset="0.35" style="stop-color:#DFDFDF"/>
						<stop  offset="0.6454" style="stop-color:#DDDDDD"/>
						<stop  offset="0.7517" style="stop-color:#D6D6D6"/>
						<stop  offset="0.8276" style="stop-color:#CBCBCB"/>
						<stop  offset="0.8889" style="stop-color:#BABABA"/>
						<stop  offset="0.9414" style="stop-color:#A4A4A4"/>
						<stop  offset="0.987" style="stop-color:#898989"/>
						<stop  offset="1" style="stop-color:#808080"/>
					</linearGradient>
					<path class="st25" d="M0.2,72.7L0.2,72.7L0,71.6C0,72,0.1,72.4,0.2,72.7L0.2,72.7L0.2,72.7z"/>
					<path class="st24" d="M96.3,67c0,6.6-45.2,8.8-92.7,8.5c-0.1,0-0.3,0-0.4,0c-1.3-0.1-2.3-1-2.9-2.1l0,0
						c-0.1-0.2-0.2-0.4-0.2-0.6v0.1c0.5,1.7,1.8,3,3.4,3c47.5,0.4,93.3-1.1,93.4-9L96.3,67z"/>
					<path class="st24" d="M57.2,70.4L48,61.2C42.7,62,37.3,63,32.3,64.1l8.7,8.7C46.7,72,52.1,71.2,57.2,70.4z"/>
					<path class="st24" d="M0.4,73.3L0.4,73.3c0.6,1.3,1.8,2.2,3.2,2.2c2.5,0,5-0.1,7.6-0.2L5.9,70C2.2,71,0,71.6,0,71.6l0,0
						l0.2,1.2C0.2,72.9,0.3,73.1,0.4,73.3z"/>
					<g>
						<linearGradient id="SVGID_25_" gradientUnits="userSpaceOnUse" x1="35.4" y1="67" x2="54.1" y2="67">
							<stop  offset="0" style="stop-color:#BF1010"/>
							<stop  offset="2.097060e-02" style="stop-color:#C11212"/>
							<stop  offset="0.2435" style="stop-color:#D22323"/>
							<stop  offset="0.4872" style="stop-color:#DC2D2D"/>
							<stop  offset="0.7911" style="stop-color:#DF3030"/>
							<stop  offset="0.8415" style="stop-color:#DC2E2E"/>
							<stop  offset="0.8819" style="stop-color:#D22626"/>
							<stop  offset="0.919" style="stop-color:#C11919"/>
							<stop  offset="0.9537" style="stop-color:#A90808"/>
							<stop  offset="0.966" style="stop-color:#9F0000"/>
							<stop  offset="1" style="stop-color:#DF3030"/>
						</linearGradient>
						<path class="st26" d="M44.8,61.7c-3.2,0.5-6.3,1.1-9.4,1.7l8.9,8.9c3.4-0.5,6.6-0.9,9.8-1.4L44.8,61.7z"/>
					</g>
					<path class="st24" d="M79.6,58.3l7.4,7.4c5.9-0.7,9.3-0.5,9.3,1.3l0,0l0.7-0.2C97,61,89.9,58.6,79.6,58.3z"/>
				</g>
			</g>
			<g>
				<linearGradient id="SVGID_26_" gradientUnits="userSpaceOnUse" x1="0" y1="37.5174" x2="97.0002" y2="37.5174">
					<stop  offset="0" style="stop-color:#DFDFDF"/>
					<stop  offset="2.097060e-02" style="stop-color:#E1E1E1"/>
					<stop  offset="0.2435" style="stop-color:#F2F2F2"/>
					<stop  offset="0.4872" style="stop-color:#FCFCFC"/>
					<stop  offset="0.737" style="stop-color:#FFFFFF"/>
					<stop  offset="0.7983" style="stop-color:#FCFCFC"/>
					<stop  offset="0.8567" style="stop-color:#F2F2F2"/>
					<stop  offset="0.8758" style="stop-color:#E1E1E1"/>
					<stop  offset="0.9537" style="stop-color:#C9C9C9"/>
					<stop  offset="0.966" style="stop-color:#BFBFBF"/>
					<stop  offset="1" style="stop-color:#FFFFFF"/>
				</linearGradient>
				<path class="st27" d="M3.6,10.5L3.6,10.5c-2,0-3.6,1.6-3.6,3.6c0,19.1,0,38.3,0,57.4c0,2,1.6,3.6,3.6,3.6
					C51.1,74.7,97.1,59,97,66.7c0-21.6,0-43.1,0-64.7C97.1-5.6,51.2,10.2,3.6,10.5z"/>
			</g>
			<g>
				<linearGradient id="SVGID_27_" gradientUnits="userSpaceOnUse" x1="-9.910350e-02" y1="38.6759" x2="97.0239" y2="38.6759">
					<stop  offset="0" style="stop-color:#DFDFDF"/>
					<stop  offset="2.097060e-02" style="stop-color:#E1E1E1"/>
					<stop  offset="0.2435" style="stop-color:#F2F2F2"/>
					<stop  offset="0.4872" style="stop-color:#FCFCFC"/>
					<stop  offset="0.7911" style="stop-color:#FFFFFF"/>
					<stop  offset="0.8415" style="stop-color:#FCFCFC"/>
					<stop  offset="0.8819" style="stop-color:#F2F2F2"/>
					<stop  offset="0.919" style="stop-color:#E1E1E1"/>
					<stop  offset="0.9537" style="stop-color:#C9C9C9"/>
					<stop  offset="0.966" style="stop-color:#BFBFBF"/>
					<stop  offset="1" style="stop-color:#FFFFFF"/>
				</linearGradient>
				<path class="st28" d="M42.5,48.4L43,71.9L55.3,70V46.4l37.1-5.2c0,0,4.4,0.1,4.7,1.8V23l-41.8,6.5l-0.1-24L41,7.7L41.9,32
					c0,0-36.1,3.9-41.9,3.3l0,16.3L42.5,48.4z"/>
				
					<linearGradient id="SVGID_28_" gradientUnits="userSpaceOnUse" x1="1.000000e-03" y1="46.85" x2="97.0239" y2="46.85" gradientTransform="matrix(1 0 0 -1 0 85.7)">
					<stop  offset="0" style="stop-color:#BF1010"/>
					<stop  offset="2.097060e-02" style="stop-color:#C11212"/>
					<stop  offset="0.2435" style="stop-color:#D22323"/>
					<stop  offset="0.4872" style="stop-color:#DC2D2D"/>
					<stop  offset="0.7911" style="stop-color:#DF3030"/>
					<stop  offset="0.8415" style="stop-color:#DC2E2E"/>
					<stop  offset="0.8819" style="stop-color:#D22626"/>
					<stop  offset="0.919" style="stop-color:#C11919"/>
					<stop  offset="0.9537" style="stop-color:#A90808"/>
					<stop  offset="0.966" style="stop-color:#9F0000"/>
					<stop  offset="1" style="stop-color:#DF3030"/>
				</linearGradient>
				<path class="st29" d="M97,28c0-1.4-1.4-1.9-3.2-2.1c-1.8-0.2-4,0-5.8,0.2c-1.9,0.2-3.3,0.4-4.7,0.6c-1.4,0.2-2.7,0.4-4,0.6
					s-2.6,0.4-3.9,0.7c-1.3,0.2-2.6,0.5-3.9,0.7s-2.7,0.5-4,0.7c-1.4,0.2-2.8,0.5-4.3,0.7c-1.5,0.3-3,0.5-4.6,0.8s-3.2,0.5-5,0.8
					c0-1.2,0-16.2,0-25.9c-3.1,0.5-6.4,1-9.7,1.5c0,9.8,0,24.8,0,25.9c-1.9,0.3-3.8,0.5-5.5,0.7c-1.8,0.2-3.4,0.4-5,0.6
					c-1.6,0.2-3.2,0.3-4.7,0.5c-1.5,0.1-3,0.3-4.5,0.4c-1.5,0.1-2.9,0.3-4.4,0.4c-1.5,0.1-2.9,0.2-4.5,0.3c-1.5,0.1-3.1,0.2-4.7,0.2
					c-1.6,0.1-3.3,0.1-5,0.2c-1.8,0-3.6,0.1-5.5,0.1c0,4.3,0,8.6,0,12.9c1.9,0,3.8,0,5.5-0.1c1.8,0,3.4-0.1,5-0.2
					c1.6-0.1,3.2-0.1,4.7-0.2c1.5-0.1,3-0.2,4.5-0.3s2.9-0.2,4.4-0.4c1.5-0.1,2.9-0.3,4.5-0.4c1.5-0.1,3.1-0.3,4.7-0.5
					c1.6-0.2,3.3-0.4,5-0.6c1.8-0.2,3.6-0.5,5.5-0.7c0,1.2,0,16.7,0,25.8c3.3-0.5,6.6-1,9.7-1.5c0-9.1,0-24.6,0-25.8
					c1.8-0.3,3.4-0.5,5-0.8s3.1-0.5,4.6-0.8c1.5-0.3,2.9-0.5,4.3-0.7s2.7-0.5,4-0.7s2.6-0.5,3.9-0.7s2.6-0.4,3.9-0.7
					c1.3-0.2,2.7-0.4,4-0.6c1.4-0.2,2.8-0.4,4.7-0.6c1.9-0.2,4-0.4,5.8-0.2s3.2,0.7,3.2,2.1l0,0C97,36.7,97,32.4,97,28L97,28z"/>
			</g>
			<g class="st30">
				
					<linearGradient id="SVGID_29_" gradientUnits="userSpaceOnUse" x1="0" y1="48.1826" x2="97.0002" y2="48.1826" gradientTransform="matrix(1 0 0 -1 0 85.7)">
					<stop  offset="0" style="stop-color:#404040"/>
					<stop  offset="0.7911" style="stop-color:#FFFFFF"/>
					<stop  offset="0.966" style="stop-color:#FFFFFF"/>
					<stop  offset="1" style="stop-color:#FFFFFF"/>
				</linearGradient>
				<path class="st31" d="M3.6,10.5L3.6,10.5c-2,0-3.6,1.6-3.6,3.6l0,0c0,19.1,0,38.3,0,57.4l0,0c0,2,1.6,3.6,3.6,3.6l0,0
					C51.1,74.7,97.1,59,97,66.7c0-21.6,0-43.1,0-64.7C97.1-5.6,51.2,10.2,3.6,10.5z"/>
			</g>
		</g>
	</g>
</g>
<linearGradient id="SVGID_30_" gradientUnits="userSpaceOnUse" x1="-179" y1="-7.8" x2="-179" y2="-7.8">
	<stop  offset="0" style="stop-color:#DFDFDF"/>
	<stop  offset="2.097060e-02" style="stop-color:#E1E1E1"/>
	<stop  offset="0.2435" style="stop-color:#F2F2F2"/>
	<stop  offset="0.4872" style="stop-color:#FCFCFC"/>
	<stop  offset="0.7911" style="stop-color:#FFFFFF"/>
	<stop  offset="0.8415" style="stop-color:#FCFCFC"/>
	<stop  offset="0.8819" style="stop-color:#F2F2F2"/>
	<stop  offset="0.919" style="stop-color:#E1E1E1"/>
	<stop  offset="0.9537" style="stop-color:#C9C9C9"/>
	<stop  offset="0.966" style="stop-color:#BFBFBF"/>
	<stop  offset="1" style="stop-color:#FFFFFF"/>
</linearGradient>
<path class="st32" d="M-179-7.8"/>
</svg>
