<?xml version="1.0" encoding="utf-8"?>
<!-- Generator: Adobe Illustrator 22.1.0, SVG Export Plug-In . SVG Version: 6.00 Build 0)  -->
<svg version="1.1" id="Layer_1" xmlns="http://www.w3.org/2000/svg" xmlns:xlink="http://www.w3.org/1999/xlink" x="0px" y="0px"
	 viewBox="0 0 108.8 86.1" style="enable-background:new 0 0 108.8 86.1;" xml:space="preserve">
<style type="text/css">
	.st0{fill:url(#SVGID_1_);}
	.st1{fill:url(#SVGID_2_);}
	.st2{fill:url(#SVGID_3_);}
	.st3{fill:url(#SVGID_4_);}
	.st4{fill:url(#SVGID_5_);}
	.st5{fill:url(#SVGID_6_);}
	.st6{fill:url(#SVGID_7_);}
	.st7{fill:url(#SVGID_8_);}
	.st8{fill:url(#SVGID_9_);}
	.st9{fill:url(#SVGID_10_);}
	.st10{fill:url(#SVGID_11_);}
	.st11{fill:url(#SVGID_12_);}
	.st12{fill:url(#SVGID_13_);}
	.st13{fill:url(#SVGID_14_);}
	.st14{fill:url(#SVGID_15_);}
	.st15{fill:url(#SVGID_16_);}
	.st16{fill:url(#SVGID_17_);}
	.st17{fill:url(#SVGID_18_);}
	.st18{fill:url(#SVGID_19_);}
	.st19{fill:url(#SVGID_20_);}
	.st20{fill:url(#SVGID_21_);}
	.st21{fill:url(#SVGID_22_);}
	.st22{fill:url(#SVGID_23_);}
	.st23{fill:none;}
	.st24{fill:url(#SVGID_24_);}
	.st25{fill:url(#SVGID_25_);}
	.st26{fill:url(#SVGID_26_);}
	.st27{fill:url(#SVGID_27_);}
	.st28{fill:url(#SVGID_28_);}
	.st29{fill:url(#SVGID_29_);}
	.st30{fill:url(#SVGID_30_);}
	.st31{fill:url(#SVGID_31_);}
	.st32{filter:url(#Adobe_OpacityMaskFilter);}
	.st33{fill:url(#SVGID_33_);}
	.st34{opacity:0.38;mask:url(#SVGID_32_);}
	.st35{fill:url(#SVGID_34_);}
</style>
<g>
	<g>
		<g>
			<linearGradient id="SVGID_1_" gradientUnits="userSpaceOnUse" x1="1.000000e-03" y1="48.5967" x2="108.7813" y2="48.5967">
				<stop  offset="0.375" style="stop-color:#FFFFFF"/>
				<stop  offset="1" style="stop-color:#FFFFFF"/>
			</linearGradient>
			<path class="st0" d="M3.6,11.1c-2,0-3.6,1.4-3.6,3.1c0,17.4,0,39.8,0,57.4c0,2.3,1.6,4.2,3.6,4.2C57,76.4,108.8,91.7,108.8,84
				c0-19.2,0-45.5,0-64.7C108.8,11.4,57,11.1,3.6,11.1z"/>
			<linearGradient id="SVGID_2_" gradientUnits="userSpaceOnUse" x1="1.000000e-03" y1="48.3743" x2="108.2215" y2="48.3743">
				<stop  offset="0.375" style="stop-color:#F9F9F9"/>
				<stop  offset="1" style="stop-color:#FDFDFD"/>
			</linearGradient>
			<path class="st1" d="M3.6,11.1c-2,0-3.6,1.4-3.6,3.1c0,17.4,0,39.8,0,57.4c0,2.3,1.6,4.2,3.6,4.2c53.1,0.3,104.6,15.3,104.6,7.8
				c-0.1-19-0.1-45.1,0-64.1C108.2,11.8,56.7,11.1,3.6,11.1z"/>
			<linearGradient id="SVGID_3_" gradientUnits="userSpaceOnUse" x1="1.000000e-03" y1="48.1683" x2="107.6616" y2="48.1683">
				<stop  offset="0.375" style="stop-color:#F3F3F3"/>
				<stop  offset="1" style="stop-color:#FAFAFA"/>
			</linearGradient>
			<path class="st2" d="M3.6,11.1c-2,0-3.6,1.4-3.6,3.1c0,17.4,0,39.8,0,57.4c0,2.3,1.6,4.2,3.6,4.2c52.8,0.3,104.1,14.8,104,7.4
				c-0.1-18.8-0.1-44.7,0-63.5C107.7,12.3,56.5,11.1,3.6,11.1z"/>
			<linearGradient id="SVGID_4_" gradientUnits="userSpaceOnUse" x1="1.000000e-03" y1="47.9625" x2="107.1017" y2="47.9625">
				<stop  offset="0.375" style="stop-color:#EDEDED"/>
				<stop  offset="0.8367" style="stop-color:#F4F4F4"/>
				<stop  offset="1" style="stop-color:#F8F8F8"/>
			</linearGradient>
			<path class="st3" d="M3.6,11.1c-2,0-3.6,1.4-3.6,3.1c0,17.4,0,39.8,0,57.4c0,2.3,1.6,4.2,3.6,4.2c52.5,0.3,103.5,14.2,103.5,7.1
				c-0.1-18.6-0.1-44.3,0-62.9C107.1,12.7,56.2,11.1,3.6,11.1z"/>
			<linearGradient id="SVGID_5_" gradientUnits="userSpaceOnUse" x1="1.000000e-03" y1="47.7569" x2="106.5419" y2="47.7569">
				<stop  offset="0.375" style="stop-color:#E7E7E7"/>
				<stop  offset="0.7491" style="stop-color:#EEEEEE"/>
				<stop  offset="1" style="stop-color:#F6F6F6"/>
			</linearGradient>
			<path class="st4" d="M3.6,11.1c-2,0-3.6,1.4-3.6,3.1c0,17.4,0,39.8,0,57.4c0,2.3,1.6,4.2,3.6,4.2c52.3,0.3,102.9,13.6,102.9,6.7
				c-0.1-18.4-0.1-43.9,0-62.2C106.6,13.1,55.9,11.2,3.6,11.1z"/>
			<linearGradient id="SVGID_6_" gradientUnits="userSpaceOnUse" x1="1.000000e-03" y1="47.5516" x2="105.982" y2="47.5516">
				<stop  offset="0.375" style="stop-color:#E1E1E1"/>
				<stop  offset="0.6937" style="stop-color:#E8E8E8"/>
				<stop  offset="1" style="stop-color:#F4F4F4"/>
			</linearGradient>
			<path class="st5" d="M3.6,11.1c-2,0-3.6,1.4-3.6,3.1c0,17.4,0,39.8,0,57.4c0,2.3,1.6,4.2,3.6,4.2C55.6,76,106,88.8,106,82.1
				c-0.1-18.2-0.1-43.5,0-61.6C106,13.5,55.6,11.2,3.6,11.1z"/>
			<linearGradient id="SVGID_7_" gradientUnits="userSpaceOnUse" x1="1.000000e-03" y1="47.3465" x2="105.4222" y2="47.3465">
				<stop  offset="0.375" style="stop-color:#DBDBDB"/>
				<stop  offset="0.6638" style="stop-color:#E2E2E2"/>
				<stop  offset="1" style="stop-color:#F1F1F1"/>
			</linearGradient>
			<path class="st6" d="M3.6,11.1c-2,0-3.6,1.4-3.6,3.1c0,17.4,0,39.8,0,57.4c0,2.3,1.6,4.2,3.6,4.2c51.7,0.3,101.8,12.5,101.8,5.9
				c-0.1-18-0.1-43.1,0-61C105.4,13.9,55.3,11.2,3.6,11.1z"/>
			<linearGradient id="SVGID_8_" gradientUnits="userSpaceOnUse" x1="1.000000e-03" y1="47.1417" x2="104.8623" y2="47.1417">
				<stop  offset="0.375" style="stop-color:#D5D5D5"/>
				<stop  offset="0.6329" style="stop-color:#DCDCDC"/>
				<stop  offset="1" style="stop-color:#EFEFEF"/>
			</linearGradient>
			<path class="st7" d="M3.6,11.1c-2,0-3.6,1.4-3.6,3.1c0,17.4,0,39.8,0,57.4c0,2.3,1.6,4.2,3.6,4.2c51.4,0.3,101.3,12,101.2,5.5
				c-0.1-17.8-0.1-42.6,0-60.4C104.9,14.3,55,11.2,3.6,11.1z"/>
			<linearGradient id="SVGID_9_" gradientUnits="userSpaceOnUse" x1="1.000000e-03" y1="46.9372" x2="104.3025" y2="46.9372">
				<stop  offset="0.375" style="stop-color:#CFCFCF"/>
				<stop  offset="0.609" style="stop-color:#D6D6D6"/>
				<stop  offset="0.9505" style="stop-color:#EAEAEA"/>
				<stop  offset="1" style="stop-color:#EDEDED"/>
			</linearGradient>
			<path class="st8" d="M3.6,11.1c-2,0-3.6,1.4-3.6,3.1c0,17.4,0,39.8,0,57.4c0,2.3,1.6,4.2,3.6,4.2c51.1,0.2,100.7,11.4,100.7,5.2
				c-0.1-17.6-0.1-42.2,0-59.8C104.3,14.7,54.8,11.1,3.6,11.1z"/>
			<linearGradient id="SVGID_10_" gradientUnits="userSpaceOnUse" x1="1.000000e-03" y1="46.7332" x2="103.7426" y2="46.7332">
				<stop  offset="0.375" style="stop-color:#C9C9C9"/>
				<stop  offset="0.5944" style="stop-color:#D0D0D0"/>
				<stop  offset="0.9144" style="stop-color:#E4E4E4"/>
				<stop  offset="1" style="stop-color:#EAEAEA"/>
			</linearGradient>
			<path class="st9" d="M3.6,11.1c-2,0-3.6,1.4-3.6,3.1c0,17.4,0,39.8,0,57.4c0,2.3,1.6,4.2,3.6,4.2c50.8,0.2,100.1,10.8,100.1,4.8
				c-0.1-17.4-0.1-41.8,0-59.2C103.8,15.2,54.5,11.1,3.6,11.1z"/>
			<linearGradient id="SVGID_11_" gradientUnits="userSpaceOnUse" x1="1.000000e-03" y1="46.5295" x2="103.1828" y2="46.5295">
				<stop  offset="0.375" style="stop-color:#C3C3C3"/>
				<stop  offset="0.578" style="stop-color:#CACACA"/>
				<stop  offset="0.8742" style="stop-color:#DEDEDE"/>
				<stop  offset="1" style="stop-color:#E8E8E8"/>
			</linearGradient>
			<path class="st10" d="M3.6,11.1c-2,0-3.6,1.4-3.6,3.1c0,17.4,0,39.8,0,57.4c0,2.3,1.6,4.2,3.6,4.2c50.6,0.2,99.6,10.3,99.6,4.4
				c-0.1-17.2-0.1-41.4,0-58.6C103.2,15.6,54.2,11.1,3.6,11.1z"/>
			<linearGradient id="SVGID_12_" gradientUnits="userSpaceOnUse" x1="1.000000e-03" y1="46.3264" x2="102.6229" y2="46.3264">
				<stop  offset="0.375" style="stop-color:#BCBCBC"/>
				<stop  offset="0.5613" style="stop-color:#C3C3C3"/>
				<stop  offset="0.833" style="stop-color:#D7D7D7"/>
				<stop  offset="1" style="stop-color:#E6E6E6"/>
			</linearGradient>
			<path class="st11" d="M3.6,11.1c-2,0-3.6,1.4-3.6,3.1c0,17.4,0,39.8,0,57.4c0,2.3,1.6,4.2,3.6,4.2c50.3,0.2,99,9.7,99,4
				c-0.1-17-0.1-41,0-58C102.6,16,53.9,11.2,3.6,11.1z"/>
			<linearGradient id="SVGID_13_" gradientUnits="userSpaceOnUse" x1="1.000000e-03" y1="46.1238" x2="102.0631" y2="46.1238">
				<stop  offset="0.375" style="stop-color:#B6B6B6"/>
				<stop  offset="0.5502" style="stop-color:#BDBDBD"/>
				<stop  offset="0.8056" style="stop-color:#D1D1D1"/>
				<stop  offset="1" style="stop-color:#E4E4E4"/>
			</linearGradient>
			<path class="st12" d="M3.6,11.1c-2,0-3.6,1.4-3.6,3.1c0,17.4,0,39.8,0,57.4c0,2.3,1.6,4.2,3.6,4.2c50,0.2,98.5,9.1,98.4,3.7
				c-0.1-16.8-0.1-40.6,0-57.4C102.1,16.4,53.6,11.2,3.6,11.1z"/>
			<linearGradient id="SVGID_14_" gradientUnits="userSpaceOnUse" x1="1.000000e-03" y1="45.922" x2="101.5032" y2="45.922">
				<stop  offset="0.375" style="stop-color:#B0B0B0"/>
				<stop  offset="0.5428" style="stop-color:#B7B7B7"/>
				<stop  offset="0.7876" style="stop-color:#CBCBCB"/>
				<stop  offset="1" style="stop-color:#E1E1E1"/>
			</linearGradient>
			<path class="st13" d="M3.6,11.1c-2,0-3.6,1.4-3.6,3.1c0,17.4,0,39.8,0,57.4c0,2.3,1.6,4.2,3.6,4.2c49.7,0.2,97.9,8.6,97.9,3.3
				c-0.1-16.6-0.1-40.2,0-56.8C101.5,16.8,53.4,11.2,3.6,11.1z"/>
			<linearGradient id="SVGID_15_" gradientUnits="userSpaceOnUse" x1="1.000000e-03" y1="45.7209" x2="100.9434" y2="45.7209">
				<stop  offset="0.375" style="stop-color:#AAAAAA"/>
				<stop  offset="0.5341" style="stop-color:#B1B1B1"/>
				<stop  offset="0.7668" style="stop-color:#C5C5C5"/>
				<stop  offset="1" style="stop-color:#DFDFDF"/>
			</linearGradient>
			<path class="st14" d="M3.6,11.1c-2,0-3.6,1.4-3.6,3.1c0,17.4,0,39.8,0,57.4c0,2.3,1.6,4.2,3.6,4.2c49.4,0.2,97.3,8,97.3,2.9
				c-0.1-16.3-0.1-39.8,0-56.2C101,17.2,53.1,11.2,3.6,11.1z"/>
			<linearGradient id="SVGID_16_" gradientUnits="userSpaceOnUse" x1="1.000000e-03" y1="45.5208" x2="100.3835" y2="45.5208">
				<stop  offset="0.375" style="stop-color:#A4A4A4"/>
				<stop  offset="0.5265" style="stop-color:#ABABAB"/>
				<stop  offset="0.7479" style="stop-color:#BFBFBF"/>
				<stop  offset="1" style="stop-color:#DDDDDD"/>
			</linearGradient>
			<path class="st15" d="M3.6,11.1c-2,0-3.6,1.4-3.6,3.1c0,17.4,0,39.8,0,57.4c0,2.3,1.6,4.2,3.6,4.2c49.1,0.2,96.8,7.4,96.8,2.5
				c-0.1-16.1-0.1-39.4,0-55.5C100.4,17.7,52.8,11.2,3.6,11.1z"/>
			<linearGradient id="SVGID_17_" gradientUnits="userSpaceOnUse" x1="1.000000e-03" y1="45.3219" x2="99.8237" y2="45.3219">
				<stop  offset="0.375" style="stop-color:#9E9E9E"/>
				<stop  offset="0.5213" style="stop-color:#A5A5A5"/>
				<stop  offset="0.7352" style="stop-color:#B9B9B9"/>
				<stop  offset="0.9896" style="stop-color:#D9D9D9"/>
				<stop  offset="1" style="stop-color:#DADADA"/>
			</linearGradient>
			<path class="st16" d="M3.6,11.1c-2,0-3.6,1.4-3.6,3.1c0,17.4,0,39.8,0,57.4c0,2.3,1.6,4.2,3.6,4.2c48.9,0.2,96.2,6.9,96.2,2.1
				c-0.1-15.9-0.1-39,0-54.9C99.8,18.1,52.5,11.2,3.6,11.1z"/>
			<linearGradient id="SVGID_18_" gradientUnits="userSpaceOnUse" x1="1.000000e-03" y1="45.1243" x2="99.2638" y2="45.1243">
				<stop  offset="0.375" style="stop-color:#989898"/>
				<stop  offset="0.515" style="stop-color:#9F9F9F"/>
				<stop  offset="0.7198" style="stop-color:#B3B3B3"/>
				<stop  offset="0.9632" style="stop-color:#D3D3D3"/>
				<stop  offset="1" style="stop-color:#D8D8D8"/>
			</linearGradient>
			<path class="st17" d="M3.6,11.1c-2,0-3.6,1.4-3.6,3.1c0,17.4,0,39.8,0,57.4c0,2.3,1.6,4.2,3.6,4.2c48.6,0.1,95.7,6.3,95.6,1.8
				c-0.1-15.7-0.1-38.6,0-54.3C99.3,18.5,52.2,11.2,3.6,11.1z"/>
			<linearGradient id="SVGID_19_" gradientUnits="userSpaceOnUse" x1="1.000000e-03" y1="44.9285" x2="98.704" y2="44.9285">
				<stop  offset="0.375" style="stop-color:#929292"/>
				<stop  offset="0.5094" style="stop-color:#999999"/>
				<stop  offset="0.7059" style="stop-color:#ADADAD"/>
				<stop  offset="0.9396" style="stop-color:#CDCDCD"/>
				<stop  offset="1" style="stop-color:#D6D6D6"/>
			</linearGradient>
			<path class="st18" d="M3.6,11.1c-2,0-3.6,1.4-3.6,3.1c0,17.4,0,39.8,0,57.4c0,2.3,1.6,4.2,3.6,4.2c48.3,0.1,95.1,5.7,95.1,1.4
				c-0.1-15.5-0.1-38.2,0-53.7C98.7,18.9,52,11.2,3.6,11.1z"/>
			<linearGradient id="SVGID_20_" gradientUnits="userSpaceOnUse" x1="1.000000e-03" y1="44.7349" x2="98.1441" y2="44.7349">
				<stop  offset="0.375" style="stop-color:#8C8C8C"/>
				<stop  offset="0.5043" style="stop-color:#939393"/>
				<stop  offset="0.6934" style="stop-color:#A7A7A7"/>
				<stop  offset="0.9181" style="stop-color:#C7C7C7"/>
				<stop  offset="1" style="stop-color:#D4D4D4"/>
			</linearGradient>
			<path class="st19" d="M3.6,11.1c-2,0-3.6,1.4-3.6,3.1c0,17.4,0,39.8,0,57.4c0,2.3,1.6,4.2,3.6,4.2c48,0.1,94.5,5.2,94.5,1
				c-0.1-15.3-0.1-37.8,0-53.1C98.2,19.3,51.7,11.2,3.6,11.1z"/>
			<linearGradient id="SVGID_21_" gradientUnits="userSpaceOnUse" x1="1.000000e-03" y1="44.544" x2="97.5843" y2="44.544">
				<stop  offset="0.375" style="stop-color:#868686"/>
				<stop  offset="0.5008" style="stop-color:#8D8D8D"/>
				<stop  offset="0.6847" style="stop-color:#A1A1A1"/>
				<stop  offset="0.9032" style="stop-color:#C1C1C1"/>
				<stop  offset="1" style="stop-color:#D1D1D1"/>
			</linearGradient>
			<path class="st20" d="M3.6,11.1c-2,0-3.6,1.4-3.6,3.1c0,17.4,0,39.8,0,57.4c0,2.3,1.6,4.2,3.6,4.2c47.7,0.1,94,4.6,94,0.6
				c-0.1-15.1-0.1-37.4,0-52.5C97.6,19.7,51.4,11.2,3.6,11.1z"/>
			<linearGradient id="SVGID_22_" gradientUnits="userSpaceOnUse" x1="1.000000e-03" y1="44.3671" x2="97.0244" y2="44.3671">
				<stop  offset="0.375" style="stop-color:#808080"/>
				<stop  offset="0.4964" style="stop-color:#878787"/>
				<stop  offset="0.674" style="stop-color:#9B9B9B"/>
				<stop  offset="0.885" style="stop-color:#BBBBBB"/>
				<stop  offset="1" style="stop-color:#CFCFCF"/>
			</linearGradient>
			<path class="st21" d="M3.6,11.1c-2,0-3.6,1.4-3.6,3.1c0,17.4,0,39.8,0,57.4c0,2.3,1.6,4.2,3.6,4.2C51.1,75.9,97.1,79.8,97,76
				c0-14.9,0-37,0-51.9C97.1,20.1,51.1,11.5,3.6,11.1z"/>
		</g>
		<g>
			<g>
				<linearGradient id="SVGID_23_" gradientUnits="userSpaceOnUse" x1="1.000000e-03" y1="67.0542" x2="97.0244" y2="67.0542">
					<stop  offset="0" style="stop-color:#700000"/>
					<stop  offset="0.3275" style="stop-color:#730000"/>
					<stop  offset="0.5905" style="stop-color:#7D0000"/>
					<stop  offset="0.8302" style="stop-color:#8E0000"/>
					<stop  offset="1" style="stop-color:#9F0000"/>
				</linearGradient>
				<path class="st22" d="M0,71.6c0,2.3,1.6,4.2,3.6,4.2c47.5,0.3,93.4-1.9,93.4-9C97,45.2,0,71.6,0,71.6z"/>
				<g>
					<polygon class="st23" points="0.2,72.7 0.2,72.7 0.2,72.7 					"/>
					<path class="st23" d="M0.2,72.7c0.1,0.2,0.1,0.4,0.2,0.6C0.3,73.1,0.2,72.9,0.2,72.7L0.2,72.7z"/>
					<linearGradient id="SVGID_24_" gradientUnits="userSpaceOnUse" x1="0.3877" y1="57.3538" x2="0.3877" y2="75.9781">
						<stop  offset="0.35" style="stop-color:#DFDFDF"/>
						<stop  offset="0.6454" style="stop-color:#DDDDDD"/>
						<stop  offset="0.7517" style="stop-color:#D6D6D6"/>
						<stop  offset="0.8276" style="stop-color:#CBCBCB"/>
						<stop  offset="0.8889" style="stop-color:#BABABA"/>
						<stop  offset="0.9414" style="stop-color:#A4A4A4"/>
						<stop  offset="0.987" style="stop-color:#898989"/>
						<stop  offset="1" style="stop-color:#808080"/>
					</linearGradient>
					<path class="st24" d="M0.4,73.3C0.4,73.3,0.4,73.3,0.4,73.3C0.4,73.3,0.4,73.3,0.4,73.3z"/>
					<linearGradient id="SVGID_25_" gradientUnits="userSpaceOnUse" x1="48.5976" y1="58.3097" x2="48.5976" y2="75.8195">
						<stop  offset="0.35" style="stop-color:#CF2000"/>
						<stop  offset="0.6454" style="stop-color:#CD1F00"/>
						<stop  offset="0.7517" style="stop-color:#C61D00"/>
						<stop  offset="0.8276" style="stop-color:#BB1900"/>
						<stop  offset="0.8889" style="stop-color:#AA1300"/>
						<stop  offset="0.9414" style="stop-color:#940C00"/>
						<stop  offset="0.987" style="stop-color:#790300"/>
						<stop  offset="1" style="stop-color:#700000"/>
					</linearGradient>
					<path class="st25" d="M56.1,60l9.1,9.2C83.9,66,96.3,63.6,96.3,67c0,6.6-45.2,8.8-92.7,8.5c-0.1,0-0.3,0-0.4,0
						c-1.3-0.1-2.3-1-2.9-2.1c0,0,0,0,0,0c-0.1-0.2-0.2-0.4-0.2-0.6l0,0.1c0.5,1.7,1.8,3,3.4,3c47.5,0.4,93.3-1.1,93.4-9
						C97,57.1,77.6,57.1,56.1,60z"/>
					<linearGradient id="SVGID_26_" gradientUnits="userSpaceOnUse" x1="44.9301" y1="58.3076" x2="44.9301" y2="75.8188">
						<stop  offset="0.35" style="stop-color:#DFDFDF"/>
						<stop  offset="0.6454" style="stop-color:#DDDDDD"/>
						<stop  offset="0.7517" style="stop-color:#D6D6D6"/>
						<stop  offset="0.8276" style="stop-color:#CBCBCB"/>
						<stop  offset="0.8889" style="stop-color:#BABABA"/>
						<stop  offset="0.9414" style="stop-color:#A4A4A4"/>
						<stop  offset="0.987" style="stop-color:#898989"/>
						<stop  offset="1" style="stop-color:#808080"/>
					</linearGradient>
					<path class="st26" d="M65.2,69.1L56.1,60c-10.7,1.4-21.9,3.6-31.4,5.7l8.1,8.1C44.6,72.5,55.7,70.7,65.2,69.1z"/>
					
						<linearGradient id="SVGID_27_" gradientUnits="userSpaceOnUse" x1="9.034628e-02" y1="58.3041" x2="9.034628e-02" y2="75.8198">
						<stop  offset="0.35" style="stop-color:#DFDFDF"/>
						<stop  offset="0.6454" style="stop-color:#DDDDDD"/>
						<stop  offset="0.7517" style="stop-color:#D6D6D6"/>
						<stop  offset="0.8276" style="stop-color:#CBCBCB"/>
						<stop  offset="0.8889" style="stop-color:#BABABA"/>
						<stop  offset="0.9414" style="stop-color:#A4A4A4"/>
						<stop  offset="0.987" style="stop-color:#898989"/>
						<stop  offset="1" style="stop-color:#808080"/>
					</linearGradient>
					<path class="st27" d="M0.2,72.7L0.2,72.7L0,71.6C0,72,0.1,72.4,0.2,72.7L0.2,72.7L0.2,72.7z"/>
					<linearGradient id="SVGID_28_" gradientUnits="userSpaceOnUse" x1="16.3545" y1="58.3082" x2="16.3545" y2="75.8189">
						<stop  offset="0.35" style="stop-color:#0050CF"/>
						<stop  offset="0.6454" style="stop-color:#004ECD"/>
						<stop  offset="0.7517" style="stop-color:#0049C6"/>
						<stop  offset="0.8276" style="stop-color:#003FBB"/>
						<stop  offset="0.8889" style="stop-color:#0031AA"/>
						<stop  offset="0.9414" style="stop-color:#001E94"/>
						<stop  offset="0.987" style="stop-color:#000879"/>
						<stop  offset="1" style="stop-color:#000070"/>
					</linearGradient>
					<path class="st28" d="M0.4,73.3C0.4,73.3,0.4,73.3,0.4,73.3c0.6,1.3,1.8,2.2,3.2,2.2c9.9-0.1,19.8-0.8,29.1-1.7l-8.1-8.1
						C10.5,68.7,0,71.6,0,71.6v0l0.2,1.2C0.2,72.9,0.3,73.1,0.4,73.3z"/>
				</g>
			</g>
			<g>
				<linearGradient id="SVGID_29_" gradientUnits="userSpaceOnUse" x1="1.000000e-03" y1="40.8683" x2="97.0264" y2="40.8683">
					<stop  offset="0" style="stop-color:#0050CF"/>
					<stop  offset="2.097060e-02" style="stop-color:#0252D1"/>
					<stop  offset="0.2435" style="stop-color:#1363E2"/>
					<stop  offset="0.4872" style="stop-color:#1D6DEC"/>
					<stop  offset="0.7911" style="stop-color:#2070EF"/>
					<stop  offset="0.8415" style="stop-color:#1E6DEC"/>
					<stop  offset="0.8819" style="stop-color:#1963E2"/>
					<stop  offset="0.919" style="stop-color:#1152D1"/>
					<stop  offset="0.9537" style="stop-color:#053AB9"/>
					<stop  offset="0.966" style="stop-color:#0030AF"/>
					<stop  offset="1" style="stop-color:#2070EF"/>
				</linearGradient>
				<path class="st29" d="M3.6,10.5c-2,0-3.6,1.6-3.6,3.6c0,19.1,0,38.3,0,57.4c0,2,1.6,3.6,3.6,3.6c15.7-0.1,31.2-1.9,44.9-4V6.5
					C34.8,8.6,19.3,10.4,3.6,10.5z"/>
				<linearGradient id="SVGID_30_" gradientUnits="userSpaceOnUse" x1="2.937065e-03" y1="35.6109" x2="97.0244" y2="35.6109">
					<stop  offset="0" style="stop-color:#CF2000"/>
					<stop  offset="2.097060e-02" style="stop-color:#D12201"/>
					<stop  offset="0.2435" style="stop-color:#E23309"/>
					<stop  offset="0.4872" style="stop-color:#EC3D0E"/>
					<stop  offset="0.7911" style="stop-color:#EF4010"/>
					<stop  offset="0.8415" style="stop-color:#EC3D0F"/>
					<stop  offset="0.8819" style="stop-color:#E2330D"/>
					<stop  offset="0.919" style="stop-color:#D12208"/>
					<stop  offset="0.9537" style="stop-color:#B90A03"/>
					<stop  offset="0.966" style="stop-color:#AF0000"/>
					<stop  offset="1" style="stop-color:#EF4010"/>
				</linearGradient>
				<path class="st30" d="M48.5,6.5v64.7C76.4,67,97.1,61.6,97,66.8c0-21.6,0-43.1,0-64.7C97.1-3,76.4,2.3,48.5,6.5z"/>
			</g>
			<g>
				<linearGradient id="SVGID_31_" gradientUnits="userSpaceOnUse" x1="1.992554e-03" y1="38.6334" x2="97.0244" y2="38.6334">
					<stop  offset="0" style="stop-color:#DFDFDF"/>
					<stop  offset="2.097060e-02" style="stop-color:#E1E1E1"/>
					<stop  offset="0.2435" style="stop-color:#F2F2F2"/>
					<stop  offset="0.4872" style="stop-color:#FCFCFC"/>
					<stop  offset="0.7911" style="stop-color:#FFFFFF"/>
					<stop  offset="0.8415" style="stop-color:#FCFCFC"/>
					<stop  offset="0.8819" style="stop-color:#F2F2F2"/>
					<stop  offset="0.919" style="stop-color:#E1E1E1"/>
					<stop  offset="0.9537" style="stop-color:#C9C9C9"/>
					<stop  offset="0.966" style="stop-color:#BFBFBF"/>
					<stop  offset="1" style="stop-color:#FFFFFF"/>
				</linearGradient>
				<path class="st31" d="M32.3,8.7v64.7c11.8-1.3,22.8-3.1,32.3-4.8V3.9C55.2,5.5,44.1,7.4,32.3,8.7z"/>
			</g>
			<defs>
				<filter id="Adobe_OpacityMaskFilter" filterUnits="userSpaceOnUse" x="0" y="0" width="97" height="75.2">
					<feColorMatrix  type="matrix" values="1 0 0 0 0  0 1 0 0 0  0 0 1 0 0  0 0 0 1 0"/>
				</filter>
			</defs>
			<mask maskUnits="userSpaceOnUse" x="0" y="0" width="97" height="75.2" id="SVGID_32_">
				<g class="st32">
					<g>
						<linearGradient id="SVGID_33_" gradientUnits="userSpaceOnUse" x1="0" y1="37.5985" x2="97.0244" y2="37.5985">
							<stop  offset="0" style="stop-color:#000000"/>
							<stop  offset="0.7911" style="stop-color:#FFFFFF"/>
							<stop  offset="0.8065" style="stop-color:#F8F8F8"/>
							<stop  offset="0.829" style="stop-color:#E4E4E4"/>
							<stop  offset="0.8559" style="stop-color:#C4C4C4"/>
							<stop  offset="0.8861" style="stop-color:#979797"/>
							<stop  offset="0.9192" style="stop-color:#5E5E5E"/>
							<stop  offset="0.9542" style="stop-color:#191919"/>
							<stop  offset="0.966" style="stop-color:#000000"/>
							<stop  offset="1" style="stop-color:#BFBFBF"/>
						</linearGradient>
						<path class="st33" d="M3.6,10.5L3.6,10.5c-2,0-3.6,1.6-3.6,3.6h0c0,19.1,0,38.3,0,57.4l0,0c0,2,1.6,3.6,3.6,3.6l0,0
							c47.5-0.4,93.5-16.1,93.4-8.4c0-21.6,0-43.1,0-64.7C97.1-5.6,51.2,10.2,3.6,10.5z"/>
					</g>
				</g>
			</mask>
			<g class="st34">
				<linearGradient id="SVGID_34_" gradientUnits="userSpaceOnUse" x1="0" y1="37.5985" x2="97.0244" y2="37.5985">
					<stop  offset="0" style="stop-color:#404040"/>
					<stop  offset="0.7911" style="stop-color:#FFFFFF"/>
					<stop  offset="0.966" style="stop-color:#FFFFFF"/>
					<stop  offset="1" style="stop-color:#FFFFFF"/>
				</linearGradient>
				<path class="st35" d="M3.6,10.5L3.6,10.5c-2,0-3.6,1.6-3.6,3.6h0c0,19.1,0,38.3,0,57.4l0,0c0,2,1.6,3.6,3.6,3.6l0,0
					c47.5-0.4,93.5-16.1,93.4-8.4c0-21.6,0-43.1,0-64.7C97.1-5.6,51.2,10.2,3.6,10.5z"/>
			</g>
		</g>
	</g>
</g>
</svg>
