<?xml version="1.0" encoding="utf-8"?>
<!-- Generator: Adobe Illustrator 22.1.0, SVG Export Plug-In . SVG Version: 6.00 Build 0)  -->
<svg version="1.1" id="Layer_1" xmlns="http://www.w3.org/2000/svg" xmlns:xlink="http://www.w3.org/1999/xlink" x="0px" y="0px"
	 viewBox="0 0 108.8 86.1" style="enable-background:new 0 0 108.8 86.1;" xml:space="preserve">
<style type="text/css">
	.st0{fill:url(#SVGID_1_);}
	.st1{fill:url(#SVGID_2_);}
	.st2{fill:url(#SVGID_3_);}
	.st3{fill:url(#SVGID_4_);}
	.st4{fill:url(#SVGID_5_);}
	.st5{fill:url(#SVGID_6_);}
	.st6{fill:url(#SVGID_7_);}
	.st7{fill:url(#SVGID_8_);}
	.st8{fill:url(#SVGID_9_);}
	.st9{fill:url(#SVGID_10_);}
	.st10{fill:url(#SVGID_11_);}
	.st11{fill:url(#SVGID_12_);}
	.st12{fill:url(#SVGID_13_);}
	.st13{fill:url(#SVGID_14_);}
	.st14{fill:url(#SVGID_15_);}
	.st15{fill:url(#SVGID_16_);}
	.st16{fill:url(#SVGID_17_);}
	.st17{fill:url(#SVGID_18_);}
	.st18{fill:url(#SVGID_19_);}
	.st19{fill:url(#SVGID_20_);}
	.st20{fill:url(#SVGID_21_);}
	.st21{fill:url(#SVGID_22_);}
	.st22{fill:url(#SVGID_23_);}
	.st23{fill:url(#SVGID_24_);}
	.st24{fill:url(#SVGID_25_);}
	.st25{fill:url(#SVGID_26_);}
	.st26{fill:url(#SVGID_27_);}
	.st27{fill:url(#SVGID_28_);}
	.st28{fill:url(#SVGID_29_);}
	.st29{fill:url(#SVGID_30_);}
	.st30{fill:url(#SVGID_31_);}
	.st31{fill:url(#SVGID_32_);}
	.st32{fill:url(#SVGID_33_);}
	.st33{fill:url(#SVGID_34_);}
	.st34{fill:url(#SVGID_35_);}
	.st35{fill:url(#SVGID_36_);}
	.st36{fill:url(#SVGID_37_);}
	.st37{fill:url(#SVGID_38_);}
	.st38{fill:url(#SVGID_39_);}
	.st39{fill:url(#SVGID_40_);}
	.st40{fill:url(#SVGID_41_);}
	.st41{fill:url(#SVGID_42_);}
	.st42{fill:url(#SVGID_43_);}
	.st43{fill:url(#SVGID_44_);}
	.st44{fill:url(#SVGID_45_);}
	.st45{filter:url(#Adobe_OpacityMaskFilter);}
	.st46{fill:url(#SVGID_47_);}
	.st47{opacity:0.38;mask:url(#SVGID_46_);}
	.st48{fill:url(#SVGID_48_);}
</style>
<g>
	<g>
		<g>
			<linearGradient id="SVGID_1_" gradientUnits="userSpaceOnUse" x1="2.000000e-03" y1="48.5967" x2="108.7813" y2="48.5967">
				<stop  offset="0.375" style="stop-color:#FFFFFF"/>
				<stop  offset="1" style="stop-color:#FFFFFF"/>
			</linearGradient>
			<path class="st0" d="M3.6,11.1c-2,0-3.6,1.4-3.6,3.1c0,17.4,0,39.8,0,57.4c0,2.3,1.6,4.2,3.6,4.2C57,76.4,108.8,91.7,108.8,84
				c0-19.2,0-45.5,0-64.7C108.8,11.4,57,11.1,3.6,11.1z"/>
			<linearGradient id="SVGID_2_" gradientUnits="userSpaceOnUse" x1="2.000000e-03" y1="48.3744" x2="108.2215" y2="48.3744">
				<stop  offset="0.375" style="stop-color:#F9F9F9"/>
				<stop  offset="1" style="stop-color:#FDFDFD"/>
			</linearGradient>
			<path class="st1" d="M3.6,11.1c-2,0-3.6,1.4-3.6,3.1c0,17.4,0,39.8,0,57.4c0,2.3,1.6,4.2,3.6,4.2c53.1,0.3,104.6,15.3,104.6,7.8
				c-0.1-19-0.1-45.1,0-64.1C108.2,11.8,56.7,11.1,3.6,11.1z"/>
			<linearGradient id="SVGID_3_" gradientUnits="userSpaceOnUse" x1="2.000000e-03" y1="48.1684" x2="107.6616" y2="48.1684">
				<stop  offset="0.375" style="stop-color:#F3F3F3"/>
				<stop  offset="1" style="stop-color:#FAFAFA"/>
			</linearGradient>
			<path class="st2" d="M3.6,11.1c-2,0-3.6,1.4-3.6,3.1c0,17.4,0,39.8,0,57.4c0,2.3,1.6,4.2,3.6,4.2c52.8,0.3,104.1,14.8,104,7.4
				c-0.1-18.8-0.1-44.7,0-63.5C107.7,12.3,56.5,11.1,3.6,11.1z"/>
			<linearGradient id="SVGID_4_" gradientUnits="userSpaceOnUse" x1="2.000000e-03" y1="47.9625" x2="107.1018" y2="47.9625">
				<stop  offset="0.375" style="stop-color:#EDEDED"/>
				<stop  offset="0.8367" style="stop-color:#F4F4F4"/>
				<stop  offset="1" style="stop-color:#F8F8F8"/>
			</linearGradient>
			<path class="st3" d="M3.6,11.1c-2,0-3.6,1.4-3.6,3.1c0,17.4,0,39.8,0,57.4c0,2.3,1.6,4.2,3.6,4.2c52.5,0.3,103.5,14.2,103.5,7.1
				c-0.1-18.6-0.1-44.3,0-62.9C107.1,12.7,56.2,11.1,3.6,11.1z"/>
			<linearGradient id="SVGID_5_" gradientUnits="userSpaceOnUse" x1="2.000000e-03" y1="47.7569" x2="106.5419" y2="47.7569">
				<stop  offset="0.375" style="stop-color:#E7E7E7"/>
				<stop  offset="0.7491" style="stop-color:#EEEEEE"/>
				<stop  offset="1" style="stop-color:#F6F6F6"/>
			</linearGradient>
			<path class="st4" d="M3.6,11.1c-2,0-3.6,1.4-3.6,3.1c0,17.4,0,39.8,0,57.4c0,2.3,1.6,4.2,3.6,4.2c52.3,0.3,102.9,13.6,102.9,6.7
				c-0.1-18.4-0.1-43.9,0-62.2C106.6,13.1,55.9,11.2,3.6,11.1z"/>
			<linearGradient id="SVGID_6_" gradientUnits="userSpaceOnUse" x1="2.000000e-03" y1="47.5515" x2="105.9821" y2="47.5515">
				<stop  offset="0.375" style="stop-color:#E1E1E1"/>
				<stop  offset="0.6937" style="stop-color:#E8E8E8"/>
				<stop  offset="1" style="stop-color:#F4F4F4"/>
			</linearGradient>
			<path class="st5" d="M3.6,11.1c-2,0-3.6,1.4-3.6,3.1c0,17.4,0,39.8,0,57.4c0,2.3,1.6,4.2,3.6,4.2C55.6,76,106,88.8,106,82.1
				c-0.1-18.2-0.1-43.5,0-61.6C106,13.5,55.6,11.2,3.6,11.1z"/>
			<linearGradient id="SVGID_7_" gradientUnits="userSpaceOnUse" x1="2.000000e-03" y1="47.3464" x2="105.4222" y2="47.3464">
				<stop  offset="0.375" style="stop-color:#DBDBDB"/>
				<stop  offset="0.6638" style="stop-color:#E2E2E2"/>
				<stop  offset="1" style="stop-color:#F1F1F1"/>
			</linearGradient>
			<path class="st6" d="M3.6,11.1c-2,0-3.6,1.4-3.6,3.1c0,17.4,0,39.8,0,57.4c0,2.3,1.6,4.2,3.6,4.2c51.7,0.3,101.8,12.5,101.8,5.9
				c-0.1-18-0.1-43.1,0-61C105.4,13.9,55.3,11.2,3.6,11.1z"/>
			<linearGradient id="SVGID_8_" gradientUnits="userSpaceOnUse" x1="2.000000e-03" y1="47.1416" x2="104.8624" y2="47.1416">
				<stop  offset="0.375" style="stop-color:#D5D5D5"/>
				<stop  offset="0.6329" style="stop-color:#DCDCDC"/>
				<stop  offset="1" style="stop-color:#EFEFEF"/>
			</linearGradient>
			<path class="st7" d="M3.6,11.1c-2,0-3.6,1.4-3.6,3.1c0,17.4,0,39.8,0,57.4c0,2.3,1.6,4.2,3.6,4.2c51.4,0.3,101.3,12,101.2,5.5
				c-0.1-17.8-0.1-42.6,0-60.4C104.9,14.3,55,11.2,3.6,11.1z"/>
			<linearGradient id="SVGID_9_" gradientUnits="userSpaceOnUse" x1="2.000000e-03" y1="46.9371" x2="104.3025" y2="46.9371">
				<stop  offset="0.375" style="stop-color:#CFCFCF"/>
				<stop  offset="0.609" style="stop-color:#D6D6D6"/>
				<stop  offset="0.9505" style="stop-color:#EAEAEA"/>
				<stop  offset="1" style="stop-color:#EDEDED"/>
			</linearGradient>
			<path class="st8" d="M3.6,11.1c-2,0-3.6,1.4-3.6,3.1c0,17.4,0,39.8,0,57.4c0,2.3,1.6,4.2,3.6,4.2c51.1,0.2,100.7,11.4,100.7,5.2
				c-0.1-17.6-0.1-42.2,0-59.8C104.3,14.7,54.8,11.1,3.6,11.1z"/>
			<linearGradient id="SVGID_10_" gradientUnits="userSpaceOnUse" x1="2.000000e-03" y1="46.733" x2="103.7427" y2="46.733">
				<stop  offset="0.375" style="stop-color:#C9C9C9"/>
				<stop  offset="0.5944" style="stop-color:#D0D0D0"/>
				<stop  offset="0.9144" style="stop-color:#E4E4E4"/>
				<stop  offset="1" style="stop-color:#EAEAEA"/>
			</linearGradient>
			<path class="st9" d="M3.6,11.1c-2,0-3.6,1.4-3.6,3.1c0,17.4,0,39.8,0,57.4c0,2.3,1.6,4.2,3.6,4.2c50.8,0.2,100.1,10.8,100.1,4.8
				c-0.1-17.4-0.1-41.8,0-59.2C103.8,15.2,54.5,11.1,3.6,11.1z"/>
			<linearGradient id="SVGID_11_" gradientUnits="userSpaceOnUse" x1="2.000000e-03" y1="46.5293" x2="103.1828" y2="46.5293">
				<stop  offset="0.375" style="stop-color:#C3C3C3"/>
				<stop  offset="0.578" style="stop-color:#CACACA"/>
				<stop  offset="0.8742" style="stop-color:#DEDEDE"/>
				<stop  offset="1" style="stop-color:#E8E8E8"/>
			</linearGradient>
			<path class="st10" d="M3.6,11.1c-2,0-3.6,1.4-3.6,3.1c0,17.4,0,39.8,0,57.4c0,2.3,1.6,4.2,3.6,4.2c50.6,0.2,99.6,10.3,99.6,4.4
				c-0.1-17.2-0.1-41.4,0-58.6C103.2,15.6,54.2,11.1,3.6,11.1z"/>
			<linearGradient id="SVGID_12_" gradientUnits="userSpaceOnUse" x1="2.000000e-03" y1="46.3262" x2="102.623" y2="46.3262">
				<stop  offset="0.375" style="stop-color:#BCBCBC"/>
				<stop  offset="0.5613" style="stop-color:#C3C3C3"/>
				<stop  offset="0.833" style="stop-color:#D7D7D7"/>
				<stop  offset="1" style="stop-color:#E6E6E6"/>
			</linearGradient>
			<path class="st11" d="M3.6,11.1c-2,0-3.6,1.4-3.6,3.1c0,17.4,0,39.8,0,57.4c0,2.3,1.6,4.2,3.6,4.2c50.3,0.2,99,9.7,99,4
				c-0.1-17-0.1-41,0-58C102.6,16,53.9,11.2,3.6,11.1z"/>
			<linearGradient id="SVGID_13_" gradientUnits="userSpaceOnUse" x1="2.000000e-03" y1="46.1236" x2="102.0631" y2="46.1236">
				<stop  offset="0.375" style="stop-color:#B6B6B6"/>
				<stop  offset="0.5502" style="stop-color:#BDBDBD"/>
				<stop  offset="0.8056" style="stop-color:#D1D1D1"/>
				<stop  offset="1" style="stop-color:#E4E4E4"/>
			</linearGradient>
			<path class="st12" d="M3.6,11.1c-2,0-3.6,1.4-3.6,3.1c0,17.4,0,39.8,0,57.4c0,2.3,1.6,4.2,3.6,4.2c50,0.2,98.5,9.1,98.4,3.7
				c-0.1-16.8-0.1-40.6,0-57.4C102.1,16.4,53.6,11.2,3.6,11.1z"/>
			<linearGradient id="SVGID_14_" gradientUnits="userSpaceOnUse" x1="2.000000e-03" y1="45.9217" x2="101.5033" y2="45.9217">
				<stop  offset="0.375" style="stop-color:#B0B0B0"/>
				<stop  offset="0.5428" style="stop-color:#B7B7B7"/>
				<stop  offset="0.7876" style="stop-color:#CBCBCB"/>
				<stop  offset="1" style="stop-color:#E1E1E1"/>
			</linearGradient>
			<path class="st13" d="M3.6,11.1c-2,0-3.6,1.4-3.6,3.1c0,17.4,0,39.8,0,57.4c0,2.3,1.6,4.2,3.6,4.2c49.7,0.2,97.9,8.6,97.9,3.3
				c-0.1-16.6-0.1-40.2,0-56.8C101.5,16.8,53.4,11.2,3.6,11.1z"/>
			<linearGradient id="SVGID_15_" gradientUnits="userSpaceOnUse" x1="2.000000e-03" y1="45.7206" x2="100.9434" y2="45.7206">
				<stop  offset="0.375" style="stop-color:#AAAAAA"/>
				<stop  offset="0.5341" style="stop-color:#B1B1B1"/>
				<stop  offset="0.7668" style="stop-color:#C5C5C5"/>
				<stop  offset="1" style="stop-color:#DFDFDF"/>
			</linearGradient>
			<path class="st14" d="M3.6,11.1c-2,0-3.6,1.4-3.6,3.1c0,17.4,0,39.8,0,57.4c0,2.3,1.6,4.2,3.6,4.2c49.4,0.2,97.3,8,97.3,2.9
				c-0.1-16.3-0.1-39.8,0-56.2C101,17.2,53.1,11.2,3.6,11.1z"/>
			<linearGradient id="SVGID_16_" gradientUnits="userSpaceOnUse" x1="2.000000e-03" y1="45.5205" x2="100.3836" y2="45.5205">
				<stop  offset="0.375" style="stop-color:#A4A4A4"/>
				<stop  offset="0.5265" style="stop-color:#ABABAB"/>
				<stop  offset="0.7479" style="stop-color:#BFBFBF"/>
				<stop  offset="1" style="stop-color:#DDDDDD"/>
			</linearGradient>
			<path class="st15" d="M3.6,11.1c-2,0-3.6,1.4-3.6,3.1c0,17.4,0,39.8,0,57.4c0,2.3,1.6,4.2,3.6,4.2c49.1,0.2,96.8,7.4,96.8,2.5
				c-0.1-16.1-0.1-39.4,0-55.5C100.4,17.7,52.8,11.2,3.6,11.1z"/>
			<linearGradient id="SVGID_17_" gradientUnits="userSpaceOnUse" x1="2.000000e-03" y1="45.3216" x2="99.8237" y2="45.3216">
				<stop  offset="0.375" style="stop-color:#9E9E9E"/>
				<stop  offset="0.5213" style="stop-color:#A5A5A5"/>
				<stop  offset="0.7352" style="stop-color:#B9B9B9"/>
				<stop  offset="0.9896" style="stop-color:#D9D9D9"/>
				<stop  offset="1" style="stop-color:#DADADA"/>
			</linearGradient>
			<path class="st16" d="M3.6,11.1c-2,0-3.6,1.4-3.6,3.1c0,17.4,0,39.8,0,57.4c0,2.3,1.6,4.2,3.6,4.2c48.9,0.2,96.2,6.9,96.2,2.1
				c-0.1-15.9-0.1-39,0-54.9C99.8,18.1,52.5,11.2,3.6,11.1z"/>
			<linearGradient id="SVGID_18_" gradientUnits="userSpaceOnUse" x1="2.000000e-03" y1="45.124" x2="99.2639" y2="45.124">
				<stop  offset="0.375" style="stop-color:#989898"/>
				<stop  offset="0.515" style="stop-color:#9F9F9F"/>
				<stop  offset="0.7198" style="stop-color:#B3B3B3"/>
				<stop  offset="0.9632" style="stop-color:#D3D3D3"/>
				<stop  offset="1" style="stop-color:#D8D8D8"/>
			</linearGradient>
			<path class="st17" d="M3.6,11.1c-2,0-3.6,1.4-3.6,3.1c0,17.4,0,39.8,0,57.4c0,2.3,1.6,4.2,3.6,4.2c48.6,0.1,95.7,6.3,95.6,1.8
				c-0.1-15.7-0.1-38.6,0-54.3C99.3,18.5,52.2,11.2,3.6,11.1z"/>
			<linearGradient id="SVGID_19_" gradientUnits="userSpaceOnUse" x1="2.000000e-03" y1="44.9282" x2="98.704" y2="44.9282">
				<stop  offset="0.375" style="stop-color:#929292"/>
				<stop  offset="0.5094" style="stop-color:#999999"/>
				<stop  offset="0.7059" style="stop-color:#ADADAD"/>
				<stop  offset="0.9396" style="stop-color:#CDCDCD"/>
				<stop  offset="1" style="stop-color:#D6D6D6"/>
			</linearGradient>
			<path class="st18" d="M3.6,11.1c-2,0-3.6,1.4-3.6,3.1c0,17.4,0,39.8,0,57.4c0,2.3,1.6,4.2,3.6,4.2c48.3,0.1,95.1,5.7,95.1,1.4
				c-0.1-15.5-0.1-38.2,0-53.7C98.7,18.9,52,11.2,3.6,11.1z"/>
			<linearGradient id="SVGID_20_" gradientUnits="userSpaceOnUse" x1="2.000000e-03" y1="44.7345" x2="98.1442" y2="44.7345">
				<stop  offset="0.375" style="stop-color:#8C8C8C"/>
				<stop  offset="0.5043" style="stop-color:#939393"/>
				<stop  offset="0.6934" style="stop-color:#A7A7A7"/>
				<stop  offset="0.9181" style="stop-color:#C7C7C7"/>
				<stop  offset="1" style="stop-color:#D4D4D4"/>
			</linearGradient>
			<path class="st19" d="M3.6,11.1c-2,0-3.6,1.4-3.6,3.1c0,17.4,0,39.8,0,57.4c0,2.3,1.6,4.2,3.6,4.2c48,0.1,94.5,5.2,94.5,1
				c-0.1-15.3-0.1-37.8,0-53.1C98.2,19.3,51.7,11.2,3.6,11.1z"/>
			<linearGradient id="SVGID_21_" gradientUnits="userSpaceOnUse" x1="2.000000e-03" y1="44.5436" x2="97.5844" y2="44.5436">
				<stop  offset="0.375" style="stop-color:#868686"/>
				<stop  offset="0.5008" style="stop-color:#8D8D8D"/>
				<stop  offset="0.6847" style="stop-color:#A1A1A1"/>
				<stop  offset="0.9032" style="stop-color:#C1C1C1"/>
				<stop  offset="1" style="stop-color:#D1D1D1"/>
			</linearGradient>
			<path class="st20" d="M3.6,11.1c-2,0-3.6,1.4-3.6,3.1c0,17.4,0,39.8,0,57.4c0,2.3,1.6,4.2,3.6,4.2c47.7,0.1,94,4.6,94,0.6
				c-0.1-15.1-0.1-37.4,0-52.5C97.6,19.7,51.4,11.2,3.6,11.1z"/>
			<linearGradient id="SVGID_22_" gradientUnits="userSpaceOnUse" x1="2.000000e-03" y1="44.3667" x2="97.0245" y2="44.3667">
				<stop  offset="0.375" style="stop-color:#808080"/>
				<stop  offset="0.4964" style="stop-color:#878787"/>
				<stop  offset="0.674" style="stop-color:#9B9B9B"/>
				<stop  offset="0.885" style="stop-color:#BBBBBB"/>
				<stop  offset="1" style="stop-color:#CFCFCF"/>
			</linearGradient>
			<path class="st21" d="M3.6,11.1c-2,0-3.6,1.4-3.6,3.1c0,17.4,0,39.8,0,57.4c0,2.3,1.6,4.2,3.6,4.2C51.1,75.9,97.1,79.8,97,76
				c0-14.9,0-37,0-51.9C97.1,20.1,51.1,11.5,3.6,11.1z"/>
		</g>
		<g>
			<g>
				<linearGradient id="SVGID_23_" gradientUnits="userSpaceOnUse" x1="2.000000e-03" y1="67.0543" x2="97.0245" y2="67.0543">
					<stop  offset="0" style="stop-color:#808080"/>
					<stop  offset="0.3275" style="stop-color:#838383"/>
					<stop  offset="0.5905" style="stop-color:#8D8D8D"/>
					<stop  offset="0.8302" style="stop-color:#9E9E9E"/>
					<stop  offset="1" style="stop-color:#AFAFAF"/>
				</linearGradient>
				<path class="st22" d="M0,71.6c0,2.3,1.6,4.2,3.6,4.2c47.5,0.3,93.4-1.9,93.4-9C97,45.2,0,71.6,0,71.6z"/>
				<g>
					<linearGradient id="SVGID_24_" gradientUnits="userSpaceOnUse" x1="48.5132" y1="58.3078" x2="48.5132" y2="75.8195">
						<stop  offset="0.35" style="stop-color:#DFDFDF"/>
						<stop  offset="0.6454" style="stop-color:#DDDDDD"/>
						<stop  offset="0.7517" style="stop-color:#D6D6D6"/>
						<stop  offset="0.8276" style="stop-color:#CBCBCB"/>
						<stop  offset="0.8889" style="stop-color:#BABABA"/>
						<stop  offset="0.9414" style="stop-color:#A4A4A4"/>
						<stop  offset="0.987" style="stop-color:#898989"/>
						<stop  offset="1" style="stop-color:#808080"/>
					</linearGradient>
					<path class="st23" d="M0,71.6L0,71.6c0,2.3,1.6,4.2,3.6,4.2c47.5,0.4,93.3-1.1,93.4-9C97,45.2,0,71.6,0,71.6z M3.6,75.5
						c-0.1,0-0.3,0-0.4,0c-1.5-0.2-2.7-1.3-3.1-2.7C0.6,74.3,2,75.5,3.6,75.5c47.5-0.3,92.7-14.9,92.7-8.5
						C96.3,73.6,51.1,75.8,3.6,75.5z"/>
				</g>
			</g>
			<linearGradient id="SVGID_25_" gradientUnits="userSpaceOnUse" x1="2.000000e-03" y1="37.5979" x2="97.0246" y2="37.5979">
				<stop  offset="0" style="stop-color:#DFDFDF"/>
				<stop  offset="2.097060e-02" style="stop-color:#E1E1E1"/>
				<stop  offset="0.2435" style="stop-color:#F2F2F2"/>
				<stop  offset="0.4872" style="stop-color:#FCFCFC"/>
				<stop  offset="0.7911" style="stop-color:#FFFFFF"/>
				<stop  offset="0.8415" style="stop-color:#FCFCFC"/>
				<stop  offset="0.8819" style="stop-color:#F2F2F2"/>
				<stop  offset="0.919" style="stop-color:#E1E1E1"/>
				<stop  offset="0.9537" style="stop-color:#C9C9C9"/>
				<stop  offset="0.966" style="stop-color:#BFBFBF"/>
				<stop  offset="1" style="stop-color:#FFFFFF"/>
			</linearGradient>
			<path class="st24" d="M3.6,10.5L3.6,10.5c-2,0-3.6,1.6-3.6,3.6c0,19.1,0,38.3,0,57.4c0,2,1.6,3.6,3.6,3.6
				c47.5-0.4,93.5-16.1,93.4-8.4c0-21.6,0-43.1,0-64.7C97.1-5.6,51.2,10.2,3.6,10.5z"/>
			<g>
				<linearGradient id="SVGID_26_" gradientUnits="userSpaceOnUse" x1="4.704924e-03" y1="17.9587" x2="97.023" y2="17.9587">
					<stop  offset="0" style="stop-color:#242424"/>
					<stop  offset="0.3346" style="stop-color:#2D2D2D"/>
					<stop  offset="0.7911" style="stop-color:#303030"/>
					<stop  offset="0.8668" style="stop-color:#2D2D2D"/>
					<stop  offset="0.9275" style="stop-color:#232323"/>
					<stop  offset="0.966" style="stop-color:#181818"/>
					<stop  offset="1" style="stop-color:#303030"/>
				</linearGradient>
				<path class="st25" d="M68.5,21.6c0.9-0.8,1.3-1.1,2.2-1.9c-0.8-1.1-1.4-1.9-2.1-2.7c-0.6-0.8-1.2-1.6-2.1-2.7
					c-0.9,0.8-1.3,1.1-2.2,1.9c0.8,1.1,1.4,1.9,2.1,2.7C67,19.7,67.6,20.5,68.5,21.6z"/>
				<linearGradient id="SVGID_27_" gradientUnits="userSpaceOnUse" x1="-4.398546e-03" y1="24.4006" x2="97.0259" y2="24.4006">
					<stop  offset="0" style="stop-color:#242424"/>
					<stop  offset="0.3346" style="stop-color:#2D2D2D"/>
					<stop  offset="0.7911" style="stop-color:#303030"/>
					<stop  offset="0.8668" style="stop-color:#2D2D2D"/>
					<stop  offset="0.9275" style="stop-color:#232323"/>
					<stop  offset="0.966" style="stop-color:#181818"/>
					<stop  offset="1" style="stop-color:#303030"/>
				</linearGradient>
				<path class="st26" d="M73.3,28.1c0.9-0.8,1.3-1.1,2.2-1.9c-0.8-1.1-1.4-1.9-2-2.7c-0.6-0.8-1.2-1.6-2-2.7
					c-0.9,0.8-1.3,1.1-2.2,1.9c0.8,1.1,1.4,1.9,2,2.7C71.9,26.2,72.5,27,73.3,28.1z"/>
				<linearGradient id="SVGID_28_" gradientUnits="userSpaceOnUse" x1="5.297040e-03" y1="18.3557" x2="97.0229" y2="18.3557">
					<stop  offset="0" style="stop-color:#242424"/>
					<stop  offset="0.3346" style="stop-color:#2D2D2D"/>
					<stop  offset="0.7911" style="stop-color:#303030"/>
					<stop  offset="0.8668" style="stop-color:#2D2D2D"/>
					<stop  offset="0.9275" style="stop-color:#232323"/>
					<stop  offset="0.966" style="stop-color:#181818"/>
					<stop  offset="1" style="stop-color:#303030"/>
				</linearGradient>
				<path class="st27" d="M72.2,19.3c0.7,0.9,1.3,1.8,2.1,2.7c0.7,1,1.5,2,2.4,3.2c0.9-0.7,1.3-1.1,2.2-1.9
					c-0.9-1.2-1.7-2.2-2.4-3.2c-0.7-1-1.4-1.9-2.1-2.8c-0.7-0.9-1.3-1.8-2.1-2.7c-0.7-1-1.5-2-2.4-3.2c-0.9,0.8-1.3,1.1-2.2,1.9
					c0.9,1.2,1.7,2.2,2.4,3.2C70.8,17.5,71.5,18.4,72.2,19.3z"/>
				<linearGradient id="SVGID_29_" gradientUnits="userSpaceOnUse" x1="5.690154e-03" y1="12.3" x2="97.0219" y2="12.3">
					<stop  offset="0" style="stop-color:#242424"/>
					<stop  offset="0.3346" style="stop-color:#2D2D2D"/>
					<stop  offset="0.7911" style="stop-color:#303030"/>
					<stop  offset="0.8668" style="stop-color:#2D2D2D"/>
					<stop  offset="0.9275" style="stop-color:#232323"/>
					<stop  offset="0.966" style="stop-color:#181818"/>
					<stop  offset="1" style="stop-color:#303030"/>
				</linearGradient>
				<path class="st28" d="M75.2,16c0.9-0.8,1.3-1.1,2.2-1.9c-0.8-1.1-1.4-1.9-2-2.7c-0.6-0.8-1.2-1.6-2-2.7
					c-0.9,0.8-1.3,1.1-2.2,1.9c0.8,1.1,1.4,1.9,2,2.7C73.7,14.1,74.3,14.9,75.2,16z"/>
				<linearGradient id="SVGID_30_" gradientUnits="userSpaceOnUse" x1="6.396854e-03" y1="18.7731" x2="97.0228" y2="18.7731">
					<stop  offset="0" style="stop-color:#242424"/>
					<stop  offset="0.3346" style="stop-color:#2D2D2D"/>
					<stop  offset="0.7911" style="stop-color:#303030"/>
					<stop  offset="0.8668" style="stop-color:#2D2D2D"/>
					<stop  offset="0.9275" style="stop-color:#232323"/>
					<stop  offset="0.966" style="stop-color:#181818"/>
					<stop  offset="1" style="stop-color:#303030"/>
				</linearGradient>
				<path class="st29" d="M78.1,15.1c-0.9,0.7-1.3,1.1-2.2,1.9c0.8,1.1,1.4,1.9,2,2.7c0.6,0.8,1.2,1.6,2,2.8
					c0.9-0.7,1.3-1.1,2.2-1.8c-0.8-1.1-1.4-1.9-2-2.8C79.6,17,79,16.2,78.1,15.1z"/>
				<linearGradient id="SVGID_31_" gradientUnits="userSpaceOnUse" x1="2.492466e-03" y1="55.7097" x2="97.0226" y2="55.7097">
					<stop  offset="0" style="stop-color:#242424"/>
					<stop  offset="0.3346" style="stop-color:#2D2D2D"/>
					<stop  offset="0.7911" style="stop-color:#303030"/>
					<stop  offset="0.8668" style="stop-color:#2D2D2D"/>
					<stop  offset="0.9275" style="stop-color:#232323"/>
					<stop  offset="0.966" style="stop-color:#181818"/>
					<stop  offset="1" style="stop-color:#303030"/>
				</linearGradient>
				<path class="st30" d="M28.4,54.9c-0.7-0.9-1.3-1.9-2.1-2.9c-0.7-1-1.5-2.1-2.4-3.4c-0.9,0.7-1.3,1-2.2,1.7
					c0.9,1.3,1.7,2.4,2.4,3.4c0.7,1,1.4,2,2.1,2.9c0.7,0.9,1.4,1.9,2.1,2.9c0.7,1,1.5,2.1,2.4,3.4c0.9-0.7,1.3-1,2.2-1.7
					c-0.9-1.2-1.7-2.3-2.4-3.4C29.8,56.8,29.1,55.8,28.4,54.9z"/>
				<linearGradient id="SVGID_32_" gradientUnits="userSpaceOnUse" x1="-4.688631e-04" y1="54.8312" x2="97.0314" y2="54.8312">
					<stop  offset="0" style="stop-color:#242424"/>
					<stop  offset="0.3346" style="stop-color:#2D2D2D"/>
					<stop  offset="0.7911" style="stop-color:#303030"/>
					<stop  offset="0.8668" style="stop-color:#2D2D2D"/>
					<stop  offset="0.9275" style="stop-color:#232323"/>
					<stop  offset="0.966" style="stop-color:#181818"/>
					<stop  offset="1" style="stop-color:#303030"/>
				</linearGradient>
				<path class="st31" d="M20.4,55.7c0.6,0.9,1.2,1.8,2.1,2.9c0.9-0.7,1.3-1,2.2-1.7c-0.8-1.2-1.4-2-2.1-2.9
					c-0.6-0.9-1.2-1.8-2.1-2.9c-0.9,0.7-1.3,1-2.3,1.7C19.1,53.9,19.8,54.8,20.4,55.7z"/>
				<linearGradient id="SVGID_33_" gradientUnits="userSpaceOnUse" x1="5.138159e-03" y1="61.6975" x2="97.0141" y2="61.6975">
					<stop  offset="0" style="stop-color:#242424"/>
					<stop  offset="0.3346" style="stop-color:#2D2D2D"/>
					<stop  offset="0.7911" style="stop-color:#303030"/>
					<stop  offset="0.8668" style="stop-color:#2D2D2D"/>
					<stop  offset="0.9275" style="stop-color:#232323"/>
					<stop  offset="0.966" style="stop-color:#181818"/>
					<stop  offset="1" style="stop-color:#303030"/>
				</linearGradient>
				<path class="st32" d="M25.4,58c-0.9,0.7-1.3,1-2.2,1.7c0.8,1.2,1.4,2,2.1,2.9c0.6,0.9,1.2,1.7,2.1,2.9c0.9-0.7,1.4-1,2.3-1.7
					c-0.8-1.2-1.4-2-2.1-2.9C26.9,60,26.3,59.1,25.4,58z"/>
				<linearGradient id="SVGID_34_" gradientUnits="userSpaceOnUse" x1="1.012654e-03" y1="60.7697" x2="97.0247" y2="60.7697">
					<stop  offset="0" style="stop-color:#242424"/>
					<stop  offset="0.3346" style="stop-color:#2D2D2D"/>
					<stop  offset="0.7911" style="stop-color:#303030"/>
					<stop  offset="0.8668" style="stop-color:#2D2D2D"/>
					<stop  offset="0.9275" style="stop-color:#232323"/>
					<stop  offset="0.966" style="stop-color:#181818"/>
					<stop  offset="1" style="stop-color:#303030"/>
				</linearGradient>
				<path class="st33" d="M21.7,60c-0.7-1-1.3-1.9-2.1-3c-0.7-1-1.5-2.2-2.4-3.5c-0.9,0.7-1.3,1-2.3,1.6c0.9,1.3,1.7,2.4,2.4,3.5
					c0.7,1,1.4,2,2.1,3c0.7,1,1.3,1.9,2.1,3c0.7,1,1.5,2.1,2.4,3.4c0.9-0.7,1.3-1,2.2-1.7c-0.9-1.3-1.7-2.4-2.4-3.4
					C23,61.9,22.4,60.9,21.7,60z"/>
				<linearGradient id="SVGID_35_" gradientUnits="userSpaceOnUse" x1="2.720854e-03" y1="27.3059" x2="97.022" y2="27.3059">
					<stop  offset="0" style="stop-color:#242424"/>
					<stop  offset="0.3346" style="stop-color:#2D2D2D"/>
					<stop  offset="0.7911" style="stop-color:#303030"/>
					<stop  offset="0.8668" style="stop-color:#2D2D2D"/>
					<stop  offset="0.9275" style="stop-color:#232323"/>
					<stop  offset="0.966" style="stop-color:#181818"/>
					<stop  offset="1" style="stop-color:#303030"/>
				</linearGradient>
				<path class="st34" d="M28.3,23.4c-0.7,1.2-1.4,2.2-2.1,3.3c-0.7,1.1-1.4,2.1-2.1,3.3c-0.7,1.2-1.5,2.4-2.4,3.8
					c0.9,0.5,1.3,0.8,2.2,1.3c0.9-1.4,1.7-2.7,2.4-3.8c0.7-1.2,1.4-2.2,2.1-3.3c0.7-1.1,1.4-2.2,2.1-3.3c0.7-1.2,1.5-2.4,2.4-3.9
					c-0.9-0.5-1.3-0.8-2.2-1.3C29.8,20.9,29,22.2,28.3,23.4z"/>
				<linearGradient id="SVGID_36_" gradientUnits="userSpaceOnUse" x1="1.085664e-03" y1="25.3679" x2="97.0247" y2="25.3679">
					<stop  offset="0" style="stop-color:#242424"/>
					<stop  offset="0.3346" style="stop-color:#2D2D2D"/>
					<stop  offset="0.7911" style="stop-color:#303030"/>
					<stop  offset="0.8668" style="stop-color:#2D2D2D"/>
					<stop  offset="0.9275" style="stop-color:#232323"/>
					<stop  offset="0.966" style="stop-color:#181818"/>
					<stop  offset="1" style="stop-color:#303030"/>
				</linearGradient>
				<path class="st35" d="M22.8,24.7c-0.7,1.1-1.3,2.1-2.1,3.3c-0.7,1.1-1.5,2.4-2.4,3.8c0.9,0.5,1.3,0.8,2.3,1.3
					c0.9-1.4,1.7-2.7,2.4-3.8c0.7-1.2,1.4-2.2,2.1-3.3c0.7-1.1,1.3-2.1,2.1-3.3c0.7-1.2,1.5-2.4,2.4-3.9c-0.9-0.5-1.4-0.8-2.3-1.3
					c-0.9,1.4-1.7,2.7-2.4,3.8C24.2,22.6,23.5,23.7,22.8,24.7z"/>
				<linearGradient id="SVGID_37_" gradientUnits="userSpaceOnUse" x1="1.012654e-03" y1="23.3952" x2="97.0247" y2="23.3952">
					<stop  offset="0" style="stop-color:#242424"/>
					<stop  offset="0.3346" style="stop-color:#2D2D2D"/>
					<stop  offset="0.7911" style="stop-color:#303030"/>
					<stop  offset="0.8668" style="stop-color:#2D2D2D"/>
					<stop  offset="0.9275" style="stop-color:#232323"/>
					<stop  offset="0.966" style="stop-color:#181818"/>
					<stop  offset="1" style="stop-color:#303030"/>
				</linearGradient>
				<path class="st36" d="M19.6,27.3c0.7-1.1,1.4-2.2,2.1-3.3c0.7-1.1,1.3-2.1,2.1-3.3c0.7-1.2,1.5-2.4,2.4-3.8
					c-0.9-0.5-1.4-0.8-2.2-1.3c-0.9,1.4-1.7,2.7-2.4,3.8c-0.7,1.2-1.4,2.2-2.1,3.3c-0.7,1.1-1.4,2.1-2.1,3.2
					c-0.7,1.1-1.5,2.4-2.4,3.8c0.9,0.5,1.4,0.8,2.3,1.4C18.1,29.7,18.9,28.5,19.6,27.3z"/>
				<linearGradient id="SVGID_38_" gradientUnits="userSpaceOnUse" x1="4.682504e-03" y1="53.6521" x2="97.0229" y2="53.6521">
					<stop  offset="0" style="stop-color:#242424"/>
					<stop  offset="0.3346" style="stop-color:#2D2D2D"/>
					<stop  offset="0.7911" style="stop-color:#303030"/>
					<stop  offset="0.8668" style="stop-color:#2D2D2D"/>
					<stop  offset="0.9275" style="stop-color:#232323"/>
					<stop  offset="0.966" style="stop-color:#181818"/>
					<stop  offset="1" style="stop-color:#303030"/>
				</linearGradient>
				<path class="st37" d="M70.7,50.8c-0.9-0.4-1.3-0.7-2.2-1.1c-0.8,1.4-1.4,2.4-2.1,3.4c-0.6,1-1.2,2.1-2.1,3.4
					c0.9,0.4,1.3,0.7,2.2,1.1c0.8-1.4,1.4-2.4,2.1-3.4C69.3,53.2,69.9,52.1,70.7,50.8z"/>
				<linearGradient id="SVGID_39_" gradientUnits="userSpaceOnUse" x1="-4.228946e-03" y1="45.5173" x2="97.0259" y2="45.5173">
					<stop  offset="0" style="stop-color:#242424"/>
					<stop  offset="0.3346" style="stop-color:#2D2D2D"/>
					<stop  offset="0.7911" style="stop-color:#303030"/>
					<stop  offset="0.8668" style="stop-color:#2D2D2D"/>
					<stop  offset="0.9275" style="stop-color:#232323"/>
					<stop  offset="0.966" style="stop-color:#181818"/>
					<stop  offset="1" style="stop-color:#303030"/>
				</linearGradient>
				<path class="st38" d="M71.4,49.5c0.8-1.4,1.4-2.4,2-3.4c0.6-1,1.2-2.1,2-3.4c-0.9-0.4-1.3-0.7-2.2-1.1c-0.8,1.4-1.4,2.4-2,3.4
					c-0.6,1-1.2,2.1-2.1,3.4C70.1,48.8,70.5,49.1,71.4,49.5z"/>
				<linearGradient id="SVGID_40_" gradientUnits="userSpaceOnUse" x1="4.113717e-03" y1="55.3107" x2="97.024" y2="55.3107">
					<stop  offset="0" style="stop-color:#242424"/>
					<stop  offset="0.3346" style="stop-color:#2D2D2D"/>
					<stop  offset="0.7911" style="stop-color:#303030"/>
					<stop  offset="0.8668" style="stop-color:#2D2D2D"/>
					<stop  offset="0.9275" style="stop-color:#232323"/>
					<stop  offset="0.966" style="stop-color:#181818"/>
					<stop  offset="1" style="stop-color:#303030"/>
				</linearGradient>
				<path class="st39" d="M74,52.4c-0.9-0.4-1.3-0.7-2.2-1.1c-0.8,1.4-1.4,2.4-2.1,3.4c-0.6,1-1.2,2.1-2.1,3.4
					c0.9,0.4,1.3,0.7,2.2,1.1c0.8-1.4,1.4-2.4,2-3.4C72.6,54.8,73.2,53.8,74,52.4z"/>
				<linearGradient id="SVGID_41_" gradientUnits="userSpaceOnUse" x1="6.051794e-03" y1="47.175" x2="97.0224" y2="47.175">
					<stop  offset="0" style="stop-color:#242424"/>
					<stop  offset="0.3346" style="stop-color:#2D2D2D"/>
					<stop  offset="0.7911" style="stop-color:#303030"/>
					<stop  offset="0.8668" style="stop-color:#2D2D2D"/>
					<stop  offset="0.9275" style="stop-color:#232323"/>
					<stop  offset="0.966" style="stop-color:#181818"/>
					<stop  offset="1" style="stop-color:#303030"/>
				</linearGradient>
				<path class="st40" d="M76.8,47.7c0.6-1,1.2-2.1,2-3.4c-0.9-0.5-1.3-0.7-2.2-1.1c-0.8,1.4-1.4,2.4-2,3.4c-0.6,1-1.2,2.1-2,3.4
					c0.9,0.4,1.3,0.7,2.2,1.1C75.6,49.8,76.2,48.8,76.8,47.7z"/>
				<linearGradient id="SVGID_42_" gradientUnits="userSpaceOnUse" x1="6.028114e-03" y1="56.9636" x2="97.0225" y2="56.9636">
					<stop  offset="0" style="stop-color:#242424"/>
					<stop  offset="0.3346" style="stop-color:#2D2D2D"/>
					<stop  offset="0.7911" style="stop-color:#303030"/>
					<stop  offset="0.8668" style="stop-color:#2D2D2D"/>
					<stop  offset="0.9275" style="stop-color:#232323"/>
					<stop  offset="0.966" style="stop-color:#181818"/>
					<stop  offset="1" style="stop-color:#303030"/>
				</linearGradient>
				<path class="st41" d="M73.1,56.4c-0.6,1-1.2,2.1-2,3.4c0.9,0.4,1.3,0.7,2.2,1.1c0.8-1.4,1.4-2.4,2-3.4c0.6-1,1.2-2.1,2-3.4
					c-0.9-0.4-1.3-0.7-2.2-1.1C74.3,54.3,73.7,55.4,73.1,56.4z"/>
				<linearGradient id="SVGID_43_" gradientUnits="userSpaceOnUse" x1="6.396854e-03" y1="48.86" x2="97.0228" y2="48.86">
					<stop  offset="0" style="stop-color:#242424"/>
					<stop  offset="0.3346" style="stop-color:#2D2D2D"/>
					<stop  offset="0.7911" style="stop-color:#303030"/>
					<stop  offset="0.8668" style="stop-color:#2D2D2D"/>
					<stop  offset="0.9275" style="stop-color:#232323"/>
					<stop  offset="0.966" style="stop-color:#181818"/>
					<stop  offset="1" style="stop-color:#303030"/>
				</linearGradient>
				<path class="st42" d="M78,48.3c-0.6,1-1.2,2.1-2,3.4c0.9,0.4,1.3,0.7,2.2,1.1c0.8-1.4,1.4-2.4,2-3.4c0.6-1,1.2-2,2-3.4
					c-0.9-0.5-1.3-0.7-2.2-1.2C79.2,46.2,78.6,47.3,78,48.3z"/>
			</g>
			<linearGradient id="SVGID_44_" gradientUnits="userSpaceOnUse" x1="1.798650e-03" y1="35.9679" x2="97.0241" y2="35.9679">
				<stop  offset="0" style="stop-color:#B41B00"/>
				<stop  offset="2.097060e-02" style="stop-color:#B61D01"/>
				<stop  offset="0.2435" style="stop-color:#C72E0B"/>
				<stop  offset="0.4872" style="stop-color:#D13811"/>
				<stop  offset="0.7911" style="stop-color:#D43B13"/>
				<stop  offset="0.8415" style="stop-color:#D13812"/>
				<stop  offset="0.8819" style="stop-color:#C72F0F"/>
				<stop  offset="0.919" style="stop-color:#B61F0A"/>
				<stop  offset="0.9537" style="stop-color:#9E0903"/>
				<stop  offset="0.966" style="stop-color:#940000"/>
				<stop  offset="1" style="stop-color:#D43B13"/>
			</linearGradient>
			<path class="st43" d="M63.8,30.9c-0.6-1.5-1.4-2.8-2.4-4c-1-1.2-2.3-2.1-3.8-2.9c-1.2-0.6-2.6-1-3.9-1.3
				c-1.4-0.2-2.7-0.3-4.1-0.1c-1.4,0.1-2.8,0.4-4.1,0.9c-1.4,0.5-2.7,1.1-3.9,1.9c-1.3,0.8-2.4,1.7-3.5,2.8c-1.1,1.1-2,2.3-2.9,3.6
				c-0.9,1.5-1.5,3.1-1.8,4.7c-0.3,1.6-0.3,3.2,0,4.6c0.3,1.5,0.9,2.9,1.8,4.1c0.9,1.2,2,2.2,3.4,3c1.4,0.8,2.9,1.2,4.5,1.2
				c1.6,0.1,3.1-0.2,4.7-0.7c1.5-0.5,3-1.4,4.3-2.4c1.3-1.1,2.5-2.4,3.4-3.9c1.3,0.7,2.4,1.2,3.4,1.7c1,0.5,2,1,3.4,1.7
				c1-1.7,1.7-3.4,2.1-5.1c0.4-1.7,0.6-3.4,0.6-5.1C64.7,33.9,64.4,32.3,63.8,30.9z"/>
			<g>
				<linearGradient id="SVGID_45_" gradientUnits="userSpaceOnUse" x1="1.525024e-03" y1="43.4906" x2="97.0237" y2="43.4906">
					<stop  offset="0" style="stop-color:#00209F"/>
					<stop  offset="2.097060e-02" style="stop-color:#0222A1"/>
					<stop  offset="0.2435" style="stop-color:#1333B2"/>
					<stop  offset="0.4872" style="stop-color:#1D3DBC"/>
					<stop  offset="0.7911" style="stop-color:#2040BF"/>
					<stop  offset="0.8415" style="stop-color:#1E3DBC"/>
					<stop  offset="0.8819" style="stop-color:#1933B2"/>
					<stop  offset="0.919" style="stop-color:#1122A1"/>
					<stop  offset="0.9537" style="stop-color:#050A89"/>
					<stop  offset="0.966" style="stop-color:#00007F"/>
					<stop  offset="1" style="stop-color:#2040BF"/>
				</linearGradient>
				<path class="st44" d="M59.9,34.9c-1.2-0.6-2.6-0.8-4-0.7c-1.4,0.1-2.8,0.6-4,1.4c-1.3,0.8-2.4,1.9-3.2,3.3
					c-0.8,1.4-1.9,2.5-3.2,3.3c-1.2,0.8-2.6,1.3-4,1.4c-1.4,0.1-2.8-0.2-4-0.8c-1.2-0.7-2.2-1.7-2.8-2.9c-0.6-1.2-0.9-2.5-0.8-3.9
					c0.1-1.4,0.5-2.8,1.3-4.2c-1,1.6-1.7,3.3-2.2,5c-0.4,1.7-0.6,3.4-0.6,5c0.1,1.6,0.4,3.3,1,4.7c0.6,1.5,1.4,2.9,2.4,4.1
					c1,1.2,2.3,2.3,3.8,3.1c1.2,0.7,2.6,1.1,3.9,1.4c1.4,0.3,2.7,0.3,4.1,0.2c1.4-0.1,2.8-0.4,4.1-0.9c1.4-0.5,2.7-1.1,3.9-1.9
					c1.3-0.8,2.4-1.8,3.5-2.9c1.1-1.1,2-2.4,2.9-3.7c0.8-1.4,1.3-2.8,1.3-4.2c0.1-1.4-0.2-2.7-0.8-3.9C62,36.4,61.1,35.5,59.9,34.9z
					"/>
			</g>
			<defs>
				<filter id="Adobe_OpacityMaskFilter" filterUnits="userSpaceOnUse" x="0" y="0" width="97" height="75.2">
					<feColorMatrix  type="matrix" values="1 0 0 0 0  0 1 0 0 0  0 0 1 0 0  0 0 0 1 0"/>
				</filter>
			</defs>
			<mask maskUnits="userSpaceOnUse" x="0" y="0" width="97" height="75.2" id="SVGID_46_">
				<g class="st45">
					<g>
						<linearGradient id="SVGID_47_" gradientUnits="userSpaceOnUse" x1="0" y1="37.5977" x2="97.0236" y2="37.5977">
							<stop  offset="0" style="stop-color:#000000"/>
							<stop  offset="0.7911" style="stop-color:#FFFFFF"/>
							<stop  offset="0.8065" style="stop-color:#F8F8F8"/>
							<stop  offset="0.829" style="stop-color:#E4E4E4"/>
							<stop  offset="0.8559" style="stop-color:#C4C4C4"/>
							<stop  offset="0.8861" style="stop-color:#979797"/>
							<stop  offset="0.9192" style="stop-color:#5E5E5E"/>
							<stop  offset="0.9542" style="stop-color:#191919"/>
							<stop  offset="0.966" style="stop-color:#000000"/>
							<stop  offset="1" style="stop-color:#BFBFBF"/>
						</linearGradient>
						<path class="st46" d="M3.6,10.5L3.6,10.5c-2,0-3.6,1.6-3.6,3.6h0c0,19.1,0,38.3,0,57.4l0,0c0,2,1.6,3.6,3.6,3.6l0,0
							c47.5-0.4,93.5-16.1,93.4-8.4c0-21.6,0-43.1,0-64.7C97.1-5.6,51.2,10.2,3.6,10.5z"/>
					</g>
				</g>
			</mask>
			<g class="st47">
				<linearGradient id="SVGID_48_" gradientUnits="userSpaceOnUse" x1="0" y1="37.5977" x2="97.0236" y2="37.5977">
					<stop  offset="0" style="stop-color:#404040"/>
					<stop  offset="0.7911" style="stop-color:#FFFFFF"/>
					<stop  offset="0.966" style="stop-color:#FFFFFF"/>
					<stop  offset="1" style="stop-color:#FFFFFF"/>
				</linearGradient>
				<path class="st48" d="M3.6,10.5L3.6,10.5c-2,0-3.6,1.6-3.6,3.6h0c0,19.1,0,38.3,0,57.4l0,0c0,2,1.6,3.6,3.6,3.6l0,0
					c47.5-0.4,93.5-16.1,93.4-8.4c0-21.6,0-43.1,0-64.7C97.1-5.6,51.2,10.2,3.6,10.5z"/>
			</g>
		</g>
	</g>
</g>
</svg>
