<?xml version="1.0" encoding="utf-8"?>
<!-- Generator: Adobe Illustrator 22.1.0, SVG Export Plug-In . SVG Version: 6.00 Build 0)  -->
<svg version="1.1" id="Layer_1" xmlns="http://www.w3.org/2000/svg" xmlns:xlink="http://www.w3.org/1999/xlink" x="0px" y="0px"
	 viewBox="0 0 108.8 86.1" style="enable-background:new 0 0 108.8 86.1;" xml:space="preserve">
<style type="text/css">
	.st0{fill:url(#SVGID_1_);}
	.st1{fill:url(#SVGID_2_);}
	.st2{fill:url(#SVGID_3_);}
	.st3{fill:url(#SVGID_4_);}
	.st4{fill:url(#SVGID_5_);}
	.st5{fill:url(#SVGID_6_);}
	.st6{fill:url(#SVGID_7_);}
	.st7{fill:url(#SVGID_8_);}
	.st8{fill:url(#SVGID_9_);}
	.st9{fill:url(#SVGID_10_);}
	.st10{fill:url(#SVGID_11_);}
	.st11{fill:url(#SVGID_12_);}
	.st12{fill:url(#SVGID_13_);}
	.st13{fill:url(#SVGID_14_);}
	.st14{fill:url(#SVGID_15_);}
	.st15{fill:url(#SVGID_16_);}
	.st16{fill:url(#SVGID_17_);}
	.st17{fill:url(#SVGID_18_);}
	.st18{fill:url(#SVGID_19_);}
	.st19{fill:url(#SVGID_20_);}
	.st20{fill:url(#SVGID_21_);}
	.st21{fill:url(#SVGID_22_);}
	.st22{fill:url(#SVGID_23_);}
	.st23{fill:url(#SVGID_24_);}
	.st24{fill:url(#SVGID_25_);}
	.st25{fill:url(#SVGID_26_);}
	.st26{fill:url(#SVGID_27_);}
	.st27{fill:url(#SVGID_28_);}
	.st28{fill:url(#SVGID_29_);}
	.st29{fill:url(#SVGID_30_);}
	.st30{fill:url(#SVGID_31_);}
	.st31{fill:url(#SVGID_32_);}
	.st32{fill:url(#SVGID_33_);}
	.st33{fill:url(#SVGID_34_);}
	.st34{fill:url(#SVGID_35_);}
	.st35{fill:url(#SVGID_36_);}
	.st36{fill:url(#SVGID_37_);}
	.st37{fill:url(#SVGID_38_);}
	.st38{fill:url(#SVGID_39_);}
	.st39{fill:url(#SVGID_40_);}
	.st40{fill:url(#SVGID_41_);}
	.st41{fill:url(#SVGID_42_);}
	.st42{fill:url(#SVGID_43_);}
	.st43{fill:url(#SVGID_44_);}
	.st44{fill:url(#SVGID_45_);}
	.st45{fill:url(#SVGID_46_);}
	.st46{fill:url(#SVGID_47_);}
	.st47{fill:url(#SVGID_48_);}
	.st48{fill:url(#SVGID_49_);}
	.st49{fill:url(#SVGID_50_);}
	.st50{fill:url(#SVGID_51_);}
	.st51{fill:url(#SVGID_52_);}
	.st52{fill:url(#SVGID_53_);}
	.st53{filter:url(#Adobe_OpacityMaskFilter);}
	.st54{fill:url(#SVGID_55_);}
	.st55{opacity:0.38;mask:url(#SVGID_54_);}
	.st56{fill:url(#SVGID_56_);}
</style>
<g>
	<g>
		<g>
			<linearGradient id="SVGID_1_" gradientUnits="userSpaceOnUse" x1="1.000000e-03" y1="48.5971" x2="108.7803" y2="48.5971">
				<stop  offset="0.375" style="stop-color:#FFFFFF"/>
				<stop  offset="1" style="stop-color:#FFFFFF"/>
			</linearGradient>
			<path class="st0" d="M3.6,11.1c-2,0-3.6,1.4-3.6,3.1c0,17.4,0,39.8,0,57.4c0,2.3,1.6,4.2,3.6,4.2C57,76.4,108.8,91.7,108.8,84
				c0-19.2,0-45.5,0-64.7C108.8,11.4,57,11.1,3.6,11.1z"/>
			<linearGradient id="SVGID_2_" gradientUnits="userSpaceOnUse" x1="1.000000e-03" y1="48.3747" x2="108.2205" y2="48.3747">
				<stop  offset="0.375" style="stop-color:#F9F9F9"/>
				<stop  offset="1" style="stop-color:#FDFDFD"/>
			</linearGradient>
			<path class="st1" d="M3.6,11.1c-2,0-3.6,1.4-3.6,3.1c0,17.4,0,39.8,0,57.4c0,2.3,1.6,4.2,3.6,4.2c53.1,0.3,104.6,15.3,104.6,7.8
				c-0.1-19-0.1-45.1,0-64.1C108.2,11.8,56.7,11.1,3.6,11.1z"/>
			<linearGradient id="SVGID_3_" gradientUnits="userSpaceOnUse" x1="1.000000e-03" y1="48.1687" x2="107.6607" y2="48.1687">
				<stop  offset="0.375" style="stop-color:#F3F3F3"/>
				<stop  offset="1" style="stop-color:#FAFAFA"/>
			</linearGradient>
			<path class="st2" d="M3.6,11.1c-2,0-3.6,1.4-3.6,3.1c0,17.4,0,39.8,0,57.4c0,2.3,1.6,4.2,3.6,4.2c52.8,0.3,104.1,14.8,104,7.4
				c-0.1-18.8-0.1-44.7,0-63.5C107.7,12.3,56.5,11.1,3.6,11.1z"/>
			<linearGradient id="SVGID_4_" gradientUnits="userSpaceOnUse" x1="1.000000e-03" y1="47.9629" x2="107.1008" y2="47.9629">
				<stop  offset="0.375" style="stop-color:#EDEDED"/>
				<stop  offset="0.8367" style="stop-color:#F4F4F4"/>
				<stop  offset="1" style="stop-color:#F8F8F8"/>
			</linearGradient>
			<path class="st3" d="M3.6,11.1c-2,0-3.6,1.4-3.6,3.1c0,17.4,0,39.8,0,57.4c0,2.3,1.6,4.2,3.6,4.2c52.5,0.3,103.5,14.2,103.5,7.1
				c-0.1-18.6-0.1-44.3,0-62.9C107.1,12.7,56.2,11.1,3.6,11.1z"/>
			<linearGradient id="SVGID_5_" gradientUnits="userSpaceOnUse" x1="1.000000e-03" y1="47.7572" x2="106.541" y2="47.7572">
				<stop  offset="0.375" style="stop-color:#E7E7E7"/>
				<stop  offset="0.7491" style="stop-color:#EEEEEE"/>
				<stop  offset="1" style="stop-color:#F6F6F6"/>
			</linearGradient>
			<path class="st4" d="M3.6,11.1c-2,0-3.6,1.4-3.6,3.1c0,17.4,0,39.8,0,57.4c0,2.3,1.6,4.2,3.6,4.2c52.3,0.3,102.9,13.6,102.9,6.7
				c-0.1-18.4-0.1-43.9,0-62.2C106.6,13.1,55.9,11.2,3.6,11.1z"/>
			<linearGradient id="SVGID_6_" gradientUnits="userSpaceOnUse" x1="1.000000e-03" y1="47.5519" x2="105.9812" y2="47.5519">
				<stop  offset="0.375" style="stop-color:#E1E1E1"/>
				<stop  offset="0.6937" style="stop-color:#E8E8E8"/>
				<stop  offset="1" style="stop-color:#F4F4F4"/>
			</linearGradient>
			<path class="st5" d="M3.6,11.1c-2,0-3.6,1.4-3.6,3.1c0,17.4,0,39.8,0,57.4c0,2.3,1.6,4.2,3.6,4.2C55.6,76,106,88.8,106,82.1
				c-0.1-18.2-0.1-43.5,0-61.6C106,13.5,55.6,11.2,3.6,11.1z"/>
			<linearGradient id="SVGID_7_" gradientUnits="userSpaceOnUse" x1="1.000000e-03" y1="47.3468" x2="105.4214" y2="47.3468">
				<stop  offset="0.375" style="stop-color:#DBDBDB"/>
				<stop  offset="0.6638" style="stop-color:#E2E2E2"/>
				<stop  offset="1" style="stop-color:#F1F1F1"/>
			</linearGradient>
			<path class="st6" d="M3.6,11.1c-2,0-3.6,1.4-3.6,3.1c0,17.4,0,39.8,0,57.4c0,2.3,1.6,4.2,3.6,4.2c51.7,0.3,101.8,12.5,101.8,5.9
				c-0.1-18-0.1-43.1,0-61C105.4,13.9,55.3,11.2,3.6,11.1z"/>
			<linearGradient id="SVGID_8_" gradientUnits="userSpaceOnUse" x1="1.000000e-03" y1="47.1419" x2="104.8615" y2="47.1419">
				<stop  offset="0.375" style="stop-color:#D5D5D5"/>
				<stop  offset="0.6329" style="stop-color:#DCDCDC"/>
				<stop  offset="1" style="stop-color:#EFEFEF"/>
			</linearGradient>
			<path class="st7" d="M3.6,11.1c-2,0-3.6,1.4-3.6,3.1c0,17.4,0,39.8,0,57.4c0,2.3,1.6,4.2,3.6,4.2c51.4,0.3,101.3,12,101.2,5.5
				c-0.1-17.8-0.1-42.6,0-60.4C104.9,14.3,55,11.2,3.6,11.1z"/>
			<linearGradient id="SVGID_9_" gradientUnits="userSpaceOnUse" x1="1.000000e-03" y1="46.9375" x2="104.3017" y2="46.9375">
				<stop  offset="0.375" style="stop-color:#CFCFCF"/>
				<stop  offset="0.609" style="stop-color:#D6D6D6"/>
				<stop  offset="0.9505" style="stop-color:#EAEAEA"/>
				<stop  offset="1" style="stop-color:#EDEDED"/>
			</linearGradient>
			<path class="st8" d="M3.6,11.1c-2,0-3.6,1.4-3.6,3.1c0,17.4,0,39.8,0,57.4c0,2.3,1.6,4.2,3.6,4.2c51.1,0.2,100.7,11.4,100.7,5.2
				c-0.1-17.6-0.1-42.2,0-59.8C104.3,14.7,54.8,11.1,3.6,11.1z"/>
			<linearGradient id="SVGID_10_" gradientUnits="userSpaceOnUse" x1="1.000000e-03" y1="46.7334" x2="103.7419" y2="46.7334">
				<stop  offset="0.375" style="stop-color:#C9C9C9"/>
				<stop  offset="0.5944" style="stop-color:#D0D0D0"/>
				<stop  offset="0.9144" style="stop-color:#E4E4E4"/>
				<stop  offset="1" style="stop-color:#EAEAEA"/>
			</linearGradient>
			<path class="st9" d="M3.6,11.1c-2,0-3.6,1.4-3.6,3.1c0,17.4,0,39.8,0,57.4c0,2.3,1.6,4.2,3.6,4.2c50.8,0.2,100.1,10.8,100.1,4.8
				c-0.1-17.4-0.1-41.8,0-59.2C103.8,15.2,54.5,11.1,3.6,11.1z"/>
			<linearGradient id="SVGID_11_" gradientUnits="userSpaceOnUse" x1="1.000000e-03" y1="46.5297" x2="103.1821" y2="46.5297">
				<stop  offset="0.375" style="stop-color:#C3C3C3"/>
				<stop  offset="0.578" style="stop-color:#CACACA"/>
				<stop  offset="0.8742" style="stop-color:#DEDEDE"/>
				<stop  offset="1" style="stop-color:#E8E8E8"/>
			</linearGradient>
			<path class="st10" d="M3.6,11.1c-2,0-3.6,1.4-3.6,3.1c0,17.4,0,39.8,0,57.4c0,2.3,1.6,4.2,3.6,4.2c50.6,0.2,99.6,10.3,99.6,4.4
				c-0.1-17.2-0.1-41.4,0-58.6C103.2,15.6,54.2,11.1,3.6,11.1z"/>
			<linearGradient id="SVGID_12_" gradientUnits="userSpaceOnUse" x1="1.000000e-03" y1="46.3266" x2="102.6222" y2="46.3266">
				<stop  offset="0.375" style="stop-color:#BCBCBC"/>
				<stop  offset="0.5613" style="stop-color:#C3C3C3"/>
				<stop  offset="0.833" style="stop-color:#D7D7D7"/>
				<stop  offset="1" style="stop-color:#E6E6E6"/>
			</linearGradient>
			<path class="st11" d="M3.6,11.1c-2,0-3.6,1.4-3.6,3.1c0,17.4,0,39.8,0,57.4c0,2.3,1.6,4.2,3.6,4.2c50.3,0.2,99,9.7,99,4
				c-0.1-17-0.1-41,0-58C102.6,16,53.9,11.2,3.6,11.1z"/>
			<linearGradient id="SVGID_13_" gradientUnits="userSpaceOnUse" x1="1.000000e-03" y1="46.124" x2="102.0624" y2="46.124">
				<stop  offset="0.375" style="stop-color:#B6B6B6"/>
				<stop  offset="0.5502" style="stop-color:#BDBDBD"/>
				<stop  offset="0.8056" style="stop-color:#D1D1D1"/>
				<stop  offset="1" style="stop-color:#E4E4E4"/>
			</linearGradient>
			<path class="st12" d="M3.6,11.1c-2,0-3.6,1.4-3.6,3.1c0,17.4,0,39.8,0,57.4c0,2.3,1.6,4.2,3.6,4.2c50,0.2,98.5,9.1,98.4,3.7
				c-0.1-16.8-0.1-40.6,0-57.4C102.1,16.4,53.6,11.2,3.6,11.1z"/>
			<linearGradient id="SVGID_14_" gradientUnits="userSpaceOnUse" x1="1.000000e-03" y1="45.9221" x2="101.5026" y2="45.9221">
				<stop  offset="0.375" style="stop-color:#B0B0B0"/>
				<stop  offset="0.5428" style="stop-color:#B7B7B7"/>
				<stop  offset="0.7876" style="stop-color:#CBCBCB"/>
				<stop  offset="1" style="stop-color:#E1E1E1"/>
			</linearGradient>
			<path class="st13" d="M3.6,11.1c-2,0-3.6,1.4-3.6,3.1c0,17.4,0,39.8,0,57.4c0,2.3,1.6,4.2,3.6,4.2c49.7,0.2,97.9,8.6,97.9,3.3
				c-0.1-16.6-0.1-40.2,0-56.8C101.5,16.8,53.4,11.2,3.6,11.1z"/>
			<linearGradient id="SVGID_15_" gradientUnits="userSpaceOnUse" x1="1.000000e-03" y1="45.7211" x2="100.9428" y2="45.7211">
				<stop  offset="0.375" style="stop-color:#AAAAAA"/>
				<stop  offset="0.5341" style="stop-color:#B1B1B1"/>
				<stop  offset="0.7668" style="stop-color:#C5C5C5"/>
				<stop  offset="1" style="stop-color:#DFDFDF"/>
			</linearGradient>
			<path class="st14" d="M3.6,11.1c-2,0-3.6,1.4-3.6,3.1c0,17.4,0,39.8,0,57.4c0,2.3,1.6,4.2,3.6,4.2c49.4,0.2,97.3,8,97.3,2.9
				c-0.1-16.3-0.1-39.8,0-56.2C101,17.2,53.1,11.2,3.6,11.1z"/>
			<linearGradient id="SVGID_16_" gradientUnits="userSpaceOnUse" x1="1.000000e-03" y1="45.521" x2="100.3829" y2="45.521">
				<stop  offset="0.375" style="stop-color:#A4A4A4"/>
				<stop  offset="0.5265" style="stop-color:#ABABAB"/>
				<stop  offset="0.7479" style="stop-color:#BFBFBF"/>
				<stop  offset="1" style="stop-color:#DDDDDD"/>
			</linearGradient>
			<path class="st15" d="M3.6,11.1c-2,0-3.6,1.4-3.6,3.1c0,17.4,0,39.8,0,57.4c0,2.3,1.6,4.2,3.6,4.2c49.1,0.2,96.8,7.4,96.8,2.5
				c-0.1-16.1-0.1-39.4,0-55.5C100.4,17.7,52.8,11.2,3.6,11.1z"/>
			<linearGradient id="SVGID_17_" gradientUnits="userSpaceOnUse" x1="1.000000e-03" y1="45.322" x2="99.8231" y2="45.322">
				<stop  offset="0.375" style="stop-color:#9E9E9E"/>
				<stop  offset="0.5213" style="stop-color:#A5A5A5"/>
				<stop  offset="0.7352" style="stop-color:#B9B9B9"/>
				<stop  offset="0.9896" style="stop-color:#D9D9D9"/>
				<stop  offset="1" style="stop-color:#DADADA"/>
			</linearGradient>
			<path class="st16" d="M3.6,11.1c-2,0-3.6,1.4-3.6,3.1c0,17.4,0,39.8,0,57.4c0,2.3,1.6,4.2,3.6,4.2c48.9,0.2,96.2,6.9,96.2,2.1
				c-0.1-15.9-0.1-39,0-54.9C99.8,18.1,52.5,11.2,3.6,11.1z"/>
			<linearGradient id="SVGID_18_" gradientUnits="userSpaceOnUse" x1="1.000000e-03" y1="45.1244" x2="99.2633" y2="45.1244">
				<stop  offset="0.375" style="stop-color:#989898"/>
				<stop  offset="0.515" style="stop-color:#9F9F9F"/>
				<stop  offset="0.7198" style="stop-color:#B3B3B3"/>
				<stop  offset="0.9632" style="stop-color:#D3D3D3"/>
				<stop  offset="1" style="stop-color:#D8D8D8"/>
			</linearGradient>
			<path class="st17" d="M3.6,11.1c-2,0-3.6,1.4-3.6,3.1c0,17.4,0,39.8,0,57.4c0,2.3,1.6,4.2,3.6,4.2c48.6,0.1,95.7,6.3,95.6,1.8
				c-0.1-15.7-0.1-38.6,0-54.3C99.3,18.5,52.2,11.2,3.6,11.1z"/>
			<linearGradient id="SVGID_19_" gradientUnits="userSpaceOnUse" x1="1.000000e-03" y1="44.9286" x2="98.7035" y2="44.9286">
				<stop  offset="0.375" style="stop-color:#929292"/>
				<stop  offset="0.5094" style="stop-color:#999999"/>
				<stop  offset="0.7059" style="stop-color:#ADADAD"/>
				<stop  offset="0.9396" style="stop-color:#CDCDCD"/>
				<stop  offset="1" style="stop-color:#D6D6D6"/>
			</linearGradient>
			<path class="st18" d="M3.6,11.1c-2,0-3.6,1.4-3.6,3.1c0,17.4,0,39.8,0,57.4c0,2.3,1.6,4.2,3.6,4.2c48.3,0.1,95.1,5.7,95.1,1.4
				c-0.1-15.5-0.1-38.2,0-53.7C98.7,18.9,52,11.2,3.6,11.1z"/>
			<linearGradient id="SVGID_20_" gradientUnits="userSpaceOnUse" x1="1.000000e-03" y1="44.7349" x2="98.1437" y2="44.7349">
				<stop  offset="0.375" style="stop-color:#8C8C8C"/>
				<stop  offset="0.5043" style="stop-color:#939393"/>
				<stop  offset="0.6934" style="stop-color:#A7A7A7"/>
				<stop  offset="0.9181" style="stop-color:#C7C7C7"/>
				<stop  offset="1" style="stop-color:#D4D4D4"/>
			</linearGradient>
			<path class="st19" d="M3.6,11.1c-2,0-3.6,1.4-3.6,3.1c0,17.4,0,39.8,0,57.4c0,2.3,1.6,4.2,3.6,4.2c48,0.1,94.5,5.2,94.5,1
				c-0.1-15.3-0.1-37.8,0-53.1C98.2,19.3,51.7,11.2,3.6,11.1z"/>
			<linearGradient id="SVGID_21_" gradientUnits="userSpaceOnUse" x1="1.000000e-03" y1="44.544" x2="97.5838" y2="44.544">
				<stop  offset="0.375" style="stop-color:#868686"/>
				<stop  offset="0.5008" style="stop-color:#8D8D8D"/>
				<stop  offset="0.6847" style="stop-color:#A1A1A1"/>
				<stop  offset="0.9032" style="stop-color:#C1C1C1"/>
				<stop  offset="1" style="stop-color:#D1D1D1"/>
			</linearGradient>
			<path class="st20" d="M3.6,11.1c-2,0-3.6,1.4-3.6,3.1c0,17.4,0,39.8,0,57.4c0,2.3,1.6,4.2,3.6,4.2c47.7,0.1,94,4.6,94,0.6
				c-0.1-15.1-0.1-37.4,0-52.5C97.6,19.7,51.4,11.2,3.6,11.1z"/>
			<linearGradient id="SVGID_22_" gradientUnits="userSpaceOnUse" x1="1.000000e-03" y1="44.3671" x2="97.024" y2="44.3671">
				<stop  offset="0.375" style="stop-color:#808080"/>
				<stop  offset="0.4964" style="stop-color:#878787"/>
				<stop  offset="0.674" style="stop-color:#9B9B9B"/>
				<stop  offset="0.885" style="stop-color:#BBBBBB"/>
				<stop  offset="1" style="stop-color:#CFCFCF"/>
			</linearGradient>
			<path class="st21" d="M3.6,11.1c-2,0-3.6,1.4-3.6,3.1c0,17.4,0,39.8,0,57.4c0,2.3,1.6,4.2,3.6,4.2C51.1,75.9,97.1,79.8,97,76
				c0-14.9,0-37,0-51.9C97.1,20.2,51.1,11.5,3.6,11.1z"/>
		</g>
		<g>
			<g>
				<linearGradient id="SVGID_23_" gradientUnits="userSpaceOnUse" x1="1.000000e-03" y1="67.0548" x2="97.024" y2="67.0548">
					<stop  offset="0" style="stop-color:#001A00"/>
					<stop  offset="0.3275" style="stop-color:#001D00"/>
					<stop  offset="0.5905" style="stop-color:#002700"/>
					<stop  offset="0.8302" style="stop-color:#003800"/>
					<stop  offset="1" style="stop-color:#004900"/>
				</linearGradient>
				<path class="st22" d="M0,71.6c0,2.3,1.6,4.2,3.6,4.2c47.5,0.3,93.4-1.9,93.4-9C97,45.2,0,71.6,0,71.6z"/>
				<g>
					<linearGradient id="SVGID_24_" gradientUnits="userSpaceOnUse" x1="48.5125" y1="58.3083" x2="48.5125" y2="75.8193">
						<stop  offset="0.35" style="stop-color:#207900"/>
						<stop  offset="0.6454" style="stop-color:#1F7700"/>
						<stop  offset="0.7517" style="stop-color:#1D7000"/>
						<stop  offset="0.8276" style="stop-color:#196500"/>
						<stop  offset="0.8889" style="stop-color:#135400"/>
						<stop  offset="0.9414" style="stop-color:#0C3E00"/>
						<stop  offset="0.987" style="stop-color:#032300"/>
						<stop  offset="1" style="stop-color:#001A00"/>
					</linearGradient>
					<path class="st23" d="M0,71.6L0,71.6c0,2.3,1.6,4.2,3.6,4.2c47.5,0.4,93.3-1.1,93.4-9C97,45.2,0,71.6,0,71.6z M3.6,75.5
						c-0.1,0-0.3,0-0.4,0c-1.5-0.2-2.7-1.3-3.1-2.7C0.6,74.3,2,75.5,3.6,75.5c47.5-0.3,92.7-14.9,92.7-8.5
						C96.3,73.6,51.1,75.8,3.6,75.5z"/>
				</g>
			</g>
			<linearGradient id="SVGID_25_" gradientUnits="userSpaceOnUse" x1="1.000000e-03" y1="37.5982" x2="97.024" y2="37.5982">
				<stop  offset="0" style="stop-color:#207900"/>
				<stop  offset="2.097060e-02" style="stop-color:#227B02"/>
				<stop  offset="0.2435" style="stop-color:#338C13"/>
				<stop  offset="0.4872" style="stop-color:#3D961D"/>
				<stop  offset="0.7911" style="stop-color:#409920"/>
				<stop  offset="0.8415" style="stop-color:#3D961E"/>
				<stop  offset="0.8819" style="stop-color:#338C19"/>
				<stop  offset="0.919" style="stop-color:#227B11"/>
				<stop  offset="0.9537" style="stop-color:#0A6305"/>
				<stop  offset="0.966" style="stop-color:#005900"/>
				<stop  offset="1" style="stop-color:#409920"/>
			</linearGradient>
			<path class="st24" d="M3.6,10.5L3.6,10.5c-2,0-3.6,1.6-3.6,3.6c0,19.1,0,38.3,0,57.4c0,2,1.6,3.6,3.6,3.6
				c47.5-0.4,93.5-16.1,93.4-8.4c0-21.6,0-43.1,0-64.7C97.1-5.6,51.2,10.2,3.6,10.5z"/>
			<g>
				<linearGradient id="SVGID_26_" gradientUnits="userSpaceOnUse" x1="-1.009678e-03" y1="22.9185" x2="97.0246" y2="22.9185">
					<stop  offset="0" style="stop-color:#DFDFDF"/>
					<stop  offset="2.097060e-02" style="stop-color:#E1E1E1"/>
					<stop  offset="0.2435" style="stop-color:#F2F2F2"/>
					<stop  offset="0.4872" style="stop-color:#FCFCFC"/>
					<stop  offset="0.7911" style="stop-color:#FFFFFF"/>
					<stop  offset="0.8415" style="stop-color:#FCFCFC"/>
					<stop  offset="0.8819" style="stop-color:#F2F2F2"/>
					<stop  offset="0.919" style="stop-color:#E1E1E1"/>
					<stop  offset="0.9537" style="stop-color:#C9C9C9"/>
					<stop  offset="0.966" style="stop-color:#BFBFBF"/>
					<stop  offset="1" style="stop-color:#FFFFFF"/>
				</linearGradient>
				<path class="st25" d="M55.5,23.2c0.2,0.5-0.1,1.1,0.1,1.1c0,0,0,0,0,0c0.2,0,0.4-0.7,0.5-1.2c0.1-0.5-0.2-1.4-0.7-1.5
					c0,0-0.1,0-0.1,0c-0.3,0-0.6,0.3-0.5,0.6C54.7,22.3,55.4,22.9,55.5,23.2z"/>
				<linearGradient id="SVGID_27_" gradientUnits="userSpaceOnUse" x1="-5.253800e-04" y1="29.1108" x2="97.0245" y2="29.1108">
					<stop  offset="0" style="stop-color:#DFDFDF"/>
					<stop  offset="2.097060e-02" style="stop-color:#E1E1E1"/>
					<stop  offset="0.2435" style="stop-color:#F2F2F2"/>
					<stop  offset="0.4872" style="stop-color:#FCFCFC"/>
					<stop  offset="0.7911" style="stop-color:#FFFFFF"/>
					<stop  offset="0.8415" style="stop-color:#FCFCFC"/>
					<stop  offset="0.8819" style="stop-color:#F2F2F2"/>
					<stop  offset="0.919" style="stop-color:#E1E1E1"/>
					<stop  offset="0.9537" style="stop-color:#C9C9C9"/>
					<stop  offset="0.966" style="stop-color:#BFBFBF"/>
					<stop  offset="1" style="stop-color:#FFFFFF"/>
				</linearGradient>
				<path class="st26" d="M50.5,24.2c0.9,1.1,1.8,2.1,2.6,3.3c0.1,0.9,0.2,1.8,0.3,2.7c0.1,1,0.1,2.1,0.1,3.2c0,1.1,0,2.3-0.1,3.3
					c0.4,0,1-0.8,1.2-1.7c0.1-1.3,0-3.8-0.1-4.5c0-0.3,0-0.7,0-1c0.5,0.7,1,1.4,1.4,2.2c0.5,0.8,0.9,1.6,1.4,2.4
					c0.3-0.2,0.3-2.1,0.1-2.3c-0.7-1.5-1.8-2.9-2.1-3.4c-0.1-0.2-0.5-0.7-1-1.4c-0.1-1-0.2-1.8-0.2-2.1c-0.1-0.4,0-0.5,0-0.5
					c0,0,0.1,0,0.1,0.1c0,0,0.1,0.1,0.1,0.1c0,0,0.1-0.1,0-0.2c-0.2-1-0.8-1.6-1.5-2.5c-0.1-0.1-0.2-0.2-0.2-0.2
					c-0.1,0-0.2,0.1-0.3,0.4c-0.2,0.5-0.2,0.9-0.1,1.2c-0.1-0.1-0.2-0.2-0.4-0.4c-0.6-0.4-0.6-0.4-1.1-0.8c-0.1-0.1-0.4-0.2-0.6-0.2
					c0,0,0,0-0.1,0c-0.1,0-0.2,0.1-0.3,0.3c-0.1,0.5,0,0.7,0.1,1.1C49.9,23.6,50.3,23.9,50.5,24.2z M52.4,23.8c0,0.1,0,0.2,0.1,0.3
					c0,0.2,0.1,0.4,0.1,0.7c-0.2-0.2-0.4-0.4-0.4-0.5C51.7,23.8,52.2,23.9,52.4,23.8z"/>
				<linearGradient id="SVGID_28_" gradientUnits="userSpaceOnUse" x1="-2.004059e-04" y1="25.8551" x2="97.0244" y2="25.8551">
					<stop  offset="0" style="stop-color:#DFDFDF"/>
					<stop  offset="2.097060e-02" style="stop-color:#E1E1E1"/>
					<stop  offset="0.2435" style="stop-color:#F2F2F2"/>
					<stop  offset="0.4872" style="stop-color:#FCFCFC"/>
					<stop  offset="0.7911" style="stop-color:#FFFFFF"/>
					<stop  offset="0.8415" style="stop-color:#FCFCFC"/>
					<stop  offset="0.8819" style="stop-color:#F2F2F2"/>
					<stop  offset="0.919" style="stop-color:#E1E1E1"/>
					<stop  offset="0.9537" style="stop-color:#C9C9C9"/>
					<stop  offset="0.966" style="stop-color:#BFBFBF"/>
					<stop  offset="1" style="stop-color:#FFFFFF"/>
				</linearGradient>
				<path class="st27" d="M55.1,26.6c0.1,0,0.3,0.1,0.5,0c0.5,0,1.1-0.4,1-1c0-0.1,0-0.3,0-0.4c0-0.1-0.1-0.1-0.2-0.1c0,0,0,0-0.1,0
					c-0.1,0-0.2,0.1-0.2,0.3c0,0.1,0,0.2,0,0.3c0,0,0,0-0.1,0c-0.1,0-0.2,0-0.2-0.2c0-0.1-0.1-0.1-0.1-0.2c0,0-0.1,0-0.1,0
					c0,0-0.1,0.1-0.1,0.1c0,0.1,0,0.1,0,0.2c0,0-0.1,0.1-0.1,0.1c0,0-0.1,0-0.1,0c0,0,0-0.1-0.1-0.1c0-0.1,0-0.1,0-0.2
					c0,0-0.1,0-0.1,0c-0.3,0-0.3,0.4-0.3,0.5C54.7,25.9,54.7,26.5,55.1,26.6z"/>
				<linearGradient id="SVGID_29_" gradientUnits="userSpaceOnUse" x1="-4.598233e-03" y1="36.9909" x2="97.0284" y2="36.9909">
					<stop  offset="0" style="stop-color:#DFDFDF"/>
					<stop  offset="2.097060e-02" style="stop-color:#E1E1E1"/>
					<stop  offset="0.2435" style="stop-color:#F2F2F2"/>
					<stop  offset="0.4872" style="stop-color:#FCFCFC"/>
					<stop  offset="0.7911" style="stop-color:#FFFFFF"/>
					<stop  offset="0.8415" style="stop-color:#FCFCFC"/>
					<stop  offset="0.8819" style="stop-color:#F2F2F2"/>
					<stop  offset="0.919" style="stop-color:#E1E1E1"/>
					<stop  offset="0.9537" style="stop-color:#C9C9C9"/>
					<stop  offset="0.966" style="stop-color:#BFBFBF"/>
					<stop  offset="1" style="stop-color:#FFFFFF"/>
				</linearGradient>
				<path class="st28" d="M50.8,37.9c0,0,0.1,0.1,0.2,0.1c0.1,0,0.1,0,0.2-0.1c0.5-0.3,0.8-0.5,1.6-0.8c0.2,0,0.2-0.5-0.1-0.5
					c-0.4,0.1-0.8,0.2-1.2,0.5c0,0-0.1,0-0.1,0c-0.1,0-0.2-0.1-0.2-0.2c-0.1-0.3,0.1-0.6,0.1-0.8c0,0-0.1-0.1-0.3-0.1
					c-0.1,0-0.1,0-0.2,0.1c0,0-0.5,0.4-0.7,0.7C50,36.9,50,37,50,37.1c0,0.1,0.1,0.1,0.1,0.1c0.1,0,0.2-0.1,0.2-0.1c0,0,0.1,0,0.1,0
					c0.2,0,0.2,0.1,0.2,0.3C50.6,37.8,50.8,37.9,50.8,37.9z"/>
				<linearGradient id="SVGID_30_" gradientUnits="userSpaceOnUse" x1="3.766649e-03" y1="29.6415" x2="97.0213" y2="29.6415">
					<stop  offset="0" style="stop-color:#DFDFDF"/>
					<stop  offset="2.097060e-02" style="stop-color:#E1E1E1"/>
					<stop  offset="0.2435" style="stop-color:#F2F2F2"/>
					<stop  offset="0.4872" style="stop-color:#FCFCFC"/>
					<stop  offset="0.7911" style="stop-color:#FFFFFF"/>
					<stop  offset="0.8415" style="stop-color:#FCFCFC"/>
					<stop  offset="0.8819" style="stop-color:#F2F2F2"/>
					<stop  offset="0.919" style="stop-color:#E1E1E1"/>
					<stop  offset="0.9537" style="stop-color:#C9C9C9"/>
					<stop  offset="0.966" style="stop-color:#BFBFBF"/>
					<stop  offset="1" style="stop-color:#FFFFFF"/>
				</linearGradient>
				<path class="st29" d="M57.6,29.9c0.1,1.1,0.2,2.3,0.3,3.4c0,0.3,0,0.9-0.3,1.1c-0.8,1-2.1,2.3-3.4,3.1c-0.1,0.2,0.3,0.8,1,0.7
					c0,0,0,0,0.1,0c1.1-0.3,2.1-1.1,2.9-2.8c0.2-0.4,0.7-1.3,0.7-1.9c0-1.8,0-3.5-0.1-4.9c-0.1-1.5-0.3-2.8-0.6-4.1
					c0-0.3,0-0.6,0-0.6c0.1-0.1,0.3,0,0.4-0.3c0.2-0.2-0.5-1.7-0.9-2.2c-0.1-0.1-0.1-0.2-0.2-0.2l0,0c0,0-0.1,0.1-0.2,0.3
					c-0.2,0.4-0.4,1.1-0.4,1.8c0.2,1.2,0.3,2.3,0.4,3.4C57.4,27.7,57.5,28.8,57.6,29.9z"/>
				<linearGradient id="SVGID_31_" gradientUnits="userSpaceOnUse" x1="1.677213e-03" y1="28.114" x2="97.0231" y2="28.114">
					<stop  offset="0" style="stop-color:#DFDFDF"/>
					<stop  offset="2.097060e-02" style="stop-color:#E1E1E1"/>
					<stop  offset="0.2435" style="stop-color:#F2F2F2"/>
					<stop  offset="0.4872" style="stop-color:#FCFCFC"/>
					<stop  offset="0.7911" style="stop-color:#FFFFFF"/>
					<stop  offset="0.8415" style="stop-color:#FCFCFC"/>
					<stop  offset="0.8819" style="stop-color:#F2F2F2"/>
					<stop  offset="0.919" style="stop-color:#E1E1E1"/>
					<stop  offset="0.9537" style="stop-color:#C9C9C9"/>
					<stop  offset="0.966" style="stop-color:#BFBFBF"/>
					<stop  offset="1" style="stop-color:#FFFFFF"/>
				</linearGradient>
				<path class="st30" d="M63.3,22.5c0.7,0.8,1.5,1.6,2.2,2.4c0.1,1,0.1,1.9,0.2,2.9c0.1,1,0.1,1.9,0.2,2.9c0,0.9-0.3,2.1-0.5,2.2
					c0,0-0.2,0.1-0.4,0.2c-0.1,0-0.2,0-0.3-0.1c-0.2,0-0.9-1.1-0.9-1.1c-0.2-0.1-0.3-0.2-0.4-0.2c-0.2,0-0.3,0.1-0.5,0.3
					c-0.7,0.8-1.1,2.3-1.6,3.3c-0.1,0.1-0.2,0.3-0.4,0.3c-0.1,0-0.3,0-0.5-0.2c-0.9-1-0.5-2.9-0.5-2.9c0,0,0,0,0,0.1
					c-0.9,1.2-0.5,2.9-0.3,3.2c0.3,0.6,0.6,0.9,1.1,1.1c0.2,0.1,0.3,0.1,0.5,0.1c0.3,0,0.5-0.2,0.7-0.5c0.6-0.7,0.6-2.1,0.8-2.4
					c0.1-0.3,0.3-0.4,0.5-0.5c0.1,0,0.3,0,0.4,0.1c0.2,0.3,0.5,0.4,0.8,0.5c0.3,0.2,0.6,0.3,0.9,0.2c0.3,0,0.6-0.2,0.9-0.4
					c0.4-0.3,0.7-0.7,0.9-1.3c0.1-0.4,0.2-1.4,0.2-2.7c0-1.2-0.1-2.6-0.1-3.6c0.4,0.5,0.8,1,1.1,1.5c0.1,0.9,0.1,1.7,0.2,2.6
					c0,0.9,0,1.7,0,2.5c0,0,0,0.1,0,0c0.2,0,1.1-1.3,1.1-1.9c0-0.5,0-1,0-1.5c0.6,0.8,1.1,1.7,1.7,2.5c0.3-0.2,0.2-2.1,0-2.3
					c-0.6-0.8-1.3-1.7-1.8-2.4c-0.1-1-0.3-2.1-0.3-2.4c-0.1-0.5-0.2-1.3-0.4-2c0-0.3-0.2-1-0.1-1.1c0.1-0.2,0.3,0,0.4-0.3
					c0.2-0.2-0.6-2.2-1-2.7c-0.1-0.1-0.1-0.1-0.2-0.1c-0.1,0-0.3,0.2-0.5,0.5c-0.3,0.3-0.2,1-0.1,1.6c0.3,1.5,0.6,3.1,0.8,4.6
					c-0.4-0.5-0.9-1.1-1.4-1.7c0-0.1,0-0.2-0.1-0.3c0,0-0.1-1.3-0.1-1.6c0-0.1,0-0.1,0.1-0.2c0,0,0,0,0,0c0.1,0.1,0.2,0.1,0.2,0.1h0
					c0.1,0,0.2-0.3,0.2-0.4c-0.4-0.7-0.8-1.4-1.3-2.1c-0.1,0-0.1-0.1-0.2-0.1l0,0c-0.1,0-0.1,0.1-0.2,0.2c-0.2,0.2-0.3,0.4-0.3,0.8
					c0,0.5,0.1,1.1,0.2,1.6c0,0.1,0,0.1,0,0.2c0,0-0.1-0.1-0.1-0.1c-1.1-0.9,0.5-0.3-0.2-1c-0.6-0.5-0.8-0.7-1.3-1
					c-0.1-0.1-0.3-0.2-0.3-0.2c-0.1,0-0.1,0.1-0.1,0.3c0,0.5-0.1,1,0,1.4C62.9,21.9,63.1,22.3,63.3,22.5z"/>
				<linearGradient id="SVGID_32_" gradientUnits="userSpaceOnUse" x1="1.022919e-03" y1="34.5183" x2="97.0238" y2="34.5183">
					<stop  offset="0" style="stop-color:#DFDFDF"/>
					<stop  offset="2.097060e-02" style="stop-color:#E1E1E1"/>
					<stop  offset="0.2435" style="stop-color:#F2F2F2"/>
					<stop  offset="0.4872" style="stop-color:#FCFCFC"/>
					<stop  offset="0.7911" style="stop-color:#FFFFFF"/>
					<stop  offset="0.8415" style="stop-color:#FCFCFC"/>
					<stop  offset="0.8819" style="stop-color:#F2F2F2"/>
					<stop  offset="0.919" style="stop-color:#E1E1E1"/>
					<stop  offset="0.9537" style="stop-color:#C9C9C9"/>
					<stop  offset="0.966" style="stop-color:#BFBFBF"/>
					<stop  offset="1" style="stop-color:#FFFFFF"/>
				</linearGradient>
				<path class="st31" d="M53.2,32.3L53.2,32.3L53.2,32.3C53.2,32.3,53.2,32.3,53.2,32.3L53.2,32.3C53.2,32.3,53.2,32.3,53.2,32.3
					c-0.1-0.1-0.1-0.1-0.2-0.2c-1.9,0.3-2.8,0.4-4.6,0.7c0,0-0.1,0-0.1-0.1l0,0c0,0,0,0,0,0c0,0,0,0,0,0h0v0c0,0,0,0,0,0
					c0,0,0,0,0,0c0,0,0,0,0,0l0,0v0c0,0,0.1-0.1,0.1-0.1c1.1-0.3,3.1-0.9,3.2-2.9c0-1-0.4-1.6-1.6-1.5c-0.9,0.2-1.5,1.2-1.4,2.1
					c0,0.3,0.1,0.7-0.2,0.8c-1.7,0.4-3.5,1.7-3.6,2.5l0,0l0,0l0,0l0,0l0,0h0l0,0c-0.1,0-0.3-0.2-0.2-0.4c-0.1-1.3-0.5-2.7-1.2-3.8
					c-0.2-0.2-0.3-0.3-0.4-0.3c0,0,0,0,0,0l0,0c0,0,0,0,0,0l0,0c-0.1,0-0.1,0.1-0.3,0.3c-0.2,0.3-0.3,0.5-0.3,1c0,0.1,0.4,1.2,0.8,2
					c0.2,0.8,0.5,1.8,0.3,2.8c-0.6,1.3-1.7,2.6-2.8,3.3c-0.3,0.1-0.6,0.2-0.8,0.2c-0.2,0-0.3,0-0.4-0.1c0,0,0,0,0,0
					C39,38.5,39,38.1,39,38v0c0.9-0.8,2-1.4,2.9-3.3c0.3-0.7,0.3-1.1,0.1-2.1c-0.1-0.4-0.2-0.7-0.5-0.9c0,0,0,0,0,0c0,0,0,0,0.1,0
					c0.1,0,0.1,0,0.2,0c0.1,0,0.2,0,0.2,0c0.1,0,0.1,0,0.1-0.1c-0.1-0.5-0.4-1.1-0.8-1.4c-0.2-0.1-0.3-0.2-0.5-0.2
					c-0.2,0-0.3,0.1-0.5,0.2c-0.3,0.2-0.4,0.9-0.3,1.5c0.2,0.4,0.7,0.4,1,1.3c0,0,0,0,0,0c0,0.1,0.1,0.7-0.1,0.9
					c-0.1,0.5-2,2.2-2.1,2.3c0,0,0,0,0,0c0,0,0,0,0,0l0,0h0c0,0,0,0,0,0v0c0,0,0-0.1,0-0.3c0-0.3,0.1-0.9,0.1-1l0,0
					c-0.6,0.5-0.8,1.7-0.9,2.1c-0.8,0.6-1.6,1.2-2.4,1.8c-0.8,0.6-1.5,1.1-2,1.7c-0.1,0.2,0,0.2,0.1,0.2c0.7,0,3.6-1.6,4-1.9
					c0,0,0,0,0,0c0.1,0.1,0.1,0.4,0.4,0.7c0.3,0.4,0.9,0.6,1.6,0.6c0.2,0,0.5-0.1,0.7-0.2c1.5-0.7,2.4-1.9,3.3-3.1
					c0.1-0.2,0.2-0.3,0.4-0.3c0,0,0.1,0,0.1,0c0.3,0.6,0.9,1.1,1.7,1.4c0.7,0.3,1.7,0.4,2.7,0.3c0.1,0,0.1,0,0.2,0
					c0.5-0.7,0.3-1,0.1-1.1c-0.1,0-1.1-0.3-1.3-0.7c-0.1-0.4,0.1-0.7,0.6-1.1c1.4-0.4,2.9-0.8,4.3-1.5c0-0.5,0.3-1.2,0.5-1.5
					C53.1,32.4,53.2,32.4,53.2,32.3z M49.4,30C49.4,30,49.4,30,49.4,30L49.4,30C49.4,30,49.4,30,49.4,30C49.4,30,49.4,30,49.4,30
					c0.1-0.1,0.1-0.1,0.2-0.2c0,0,0,0,0.1,0c0.1,0,0.2,0,0.3,0c0.2,0.1,0.3,0.2,0.3,0.3v0c0,0,0,0,0,0c0,0,0,0,0,0c0,0,0,0,0,0
					c0,0,0,0,0,0c0,0,0,0,0,0c0,0-0.1,0.1-0.2,0.1c-0.1,0-0.2,0-0.3-0.1C49.5,30.3,49.4,30.2,49.4,30C49.4,30.1,49.4,30,49.4,30z
					 M47.5,34.9c-0.5,0.2-1,0.4-1,1.2c0.1,0.3,0,0.5,0,0.6c0,0,0,0,0,0c0,0,0,0,0,0l0,0c0,0,0,0,0,0c0,0,0,0,0,0c0,0,0,0,0,0
					c0,0,0,0,0,0c-0.1,0-0.3-0.1-0.4-0.1c-0.3-0.2-1.2-0.6-1.3-1.7c0-0.3,0.2-0.5,0.5-0.6c0,0,0,0,0,0c0.5,0.1,1.3,0,1.9-0.1l0,0
					C47.8,34.3,48,34.7,47.5,34.9z"/>
				<linearGradient id="SVGID_33_" gradientUnits="userSpaceOnUse" x1="-2.417260e-02" y1="22.0222" x2="97.0334" y2="22.0222">
					<stop  offset="0" style="stop-color:#DFDFDF"/>
					<stop  offset="2.097060e-02" style="stop-color:#E1E1E1"/>
					<stop  offset="0.2435" style="stop-color:#F2F2F2"/>
					<stop  offset="0.4872" style="stop-color:#FCFCFC"/>
					<stop  offset="0.7911" style="stop-color:#FFFFFF"/>
					<stop  offset="0.8415" style="stop-color:#FCFCFC"/>
					<stop  offset="0.8819" style="stop-color:#F2F2F2"/>
					<stop  offset="0.919" style="stop-color:#E1E1E1"/>
					<stop  offset="0.9537" style="stop-color:#C9C9C9"/>
					<stop  offset="0.966" style="stop-color:#BFBFBF"/>
					<stop  offset="1" style="stop-color:#FFFFFF"/>
				</linearGradient>
				<path class="st32" d="M69.6,22.3c0.1,0.2-0.1,1.1,0.1,1.2c0,0,0,0,0,0c0.2,0,0.4-0.7,0.5-1.3c0-0.3-0.2-1.5-0.6-1.7
					c0,0-0.1,0-0.1,0c-0.2,0-0.5,0.3-0.4,0.6C68.9,21.4,69.5,22,69.6,22.3z"/>
				<linearGradient id="SVGID_34_" gradientUnits="userSpaceOnUse" x1="5.951456e-03" y1="27.7379" x2="97.0205" y2="27.7379">
					<stop  offset="0" style="stop-color:#DFDFDF"/>
					<stop  offset="2.097060e-02" style="stop-color:#E1E1E1"/>
					<stop  offset="0.2435" style="stop-color:#F2F2F2"/>
					<stop  offset="0.4872" style="stop-color:#FCFCFC"/>
					<stop  offset="0.7911" style="stop-color:#FFFFFF"/>
					<stop  offset="0.8415" style="stop-color:#FCFCFC"/>
					<stop  offset="0.8819" style="stop-color:#F2F2F2"/>
					<stop  offset="0.919" style="stop-color:#E1E1E1"/>
					<stop  offset="0.9537" style="stop-color:#C9C9C9"/>
					<stop  offset="0.966" style="stop-color:#BFBFBF"/>
					<stop  offset="1" style="stop-color:#FFFFFF"/>
				</linearGradient>
				<path class="st33" d="M59.7,27.2c0.2,1.3,0.4,2.5,0.6,3.8c0.1,1.3,0.2,2.5,0.1,3.8c0.4-0.1,0.8-1,1-1.9c0.1-1.2-0.1-1.9-0.1-2.5
					c0-0.3-0.2-1.9-0.4-3.4c-0.2-1.5-0.4-3-0.5-3.2c-0.1-0.5,0.1-0.5,0.3-0.5c0,0,0.1,0,0.1,0c0,0,0.1,0,0.1,0
					c0.1,0,0.2-0.1,0.2-0.2c-0.3-0.7-1.1-1.6-1.3-2.2c-0.1-0.1-0.1-0.3-0.2-0.3l0,0c0,0-0.1,0.1-0.2,0.3c-0.3,1-0.4,1.9-0.3,2.5
					C59.2,24.7,59.4,26,59.7,27.2z"/>
				<linearGradient id="SVGID_35_" gradientUnits="userSpaceOnUse" x1="-4.573388e-03" y1="28.6722" x2="97.0262" y2="28.6722">
					<stop  offset="0" style="stop-color:#DFDFDF"/>
					<stop  offset="2.097060e-02" style="stop-color:#E1E1E1"/>
					<stop  offset="0.2435" style="stop-color:#F2F2F2"/>
					<stop  offset="0.4872" style="stop-color:#FCFCFC"/>
					<stop  offset="0.7911" style="stop-color:#FFFFFF"/>
					<stop  offset="0.8415" style="stop-color:#FCFCFC"/>
					<stop  offset="0.8819" style="stop-color:#F2F2F2"/>
					<stop  offset="0.919" style="stop-color:#E1E1E1"/>
					<stop  offset="0.9537" style="stop-color:#C9C9C9"/>
					<stop  offset="0.966" style="stop-color:#BFBFBF"/>
					<stop  offset="1" style="stop-color:#FFFFFF"/>
				</linearGradient>
				<path class="st34" d="M65.1,27.1C65,27.1,65,27.1,65.1,27.1c-0.9,0.8-1.7,1.5-2.6,2.3c-0.2,0.2-0.1,0.9,0,0.9c0,0,0,0,0,0h0
					c0.3,0,2.6-2.1,2.6-2.3C65.2,28,65.3,27.1,65.1,27.1z"/>
				<linearGradient id="SVGID_36_" gradientUnits="userSpaceOnUse" x1="-2.477726e-02" y1="30.4319" x2="97.0365" y2="30.4319">
					<stop  offset="0" style="stop-color:#DFDFDF"/>
					<stop  offset="2.097060e-02" style="stop-color:#E1E1E1"/>
					<stop  offset="0.2435" style="stop-color:#F2F2F2"/>
					<stop  offset="0.4872" style="stop-color:#FCFCFC"/>
					<stop  offset="0.7911" style="stop-color:#FFFFFF"/>
					<stop  offset="0.8415" style="stop-color:#FCFCFC"/>
					<stop  offset="0.8819" style="stop-color:#F2F2F2"/>
					<stop  offset="0.919" style="stop-color:#E1E1E1"/>
					<stop  offset="0.9537" style="stop-color:#C9C9C9"/>
					<stop  offset="0.966" style="stop-color:#BFBFBF"/>
					<stop  offset="1" style="stop-color:#FFFFFF"/>
				</linearGradient>
				<path class="st35" d="M64.7,31.9C64.7,31.9,64.7,31.9,64.7,31.9c0.2,0,0.6-0.6,0.6-1.2c0-0.3-0.1-1.6-0.6-1.7
					c-0.1,0-0.1,0-0.2,0c-0.2,0.1-0.4,0.3-0.3,0.6c-0.1,0.2,0.3,0.8,0.4,1.2C64.7,31.1,64.5,31.9,64.7,31.9z"/>
				<linearGradient id="SVGID_37_" gradientUnits="userSpaceOnUse" x1="5.722352e-03" y1="25.756" x2="97.0207" y2="25.756">
					<stop  offset="0" style="stop-color:#DFDFDF"/>
					<stop  offset="2.097060e-02" style="stop-color:#E1E1E1"/>
					<stop  offset="0.2435" style="stop-color:#F2F2F2"/>
					<stop  offset="0.4872" style="stop-color:#FCFCFC"/>
					<stop  offset="0.7911" style="stop-color:#FFFFFF"/>
					<stop  offset="0.8415" style="stop-color:#FCFCFC"/>
					<stop  offset="0.8819" style="stop-color:#F2F2F2"/>
					<stop  offset="0.919" style="stop-color:#E1E1E1"/>
					<stop  offset="0.9537" style="stop-color:#C9C9C9"/>
					<stop  offset="0.966" style="stop-color:#BFBFBF"/>
					<stop  offset="1" style="stop-color:#FFFFFF"/>
				</linearGradient>
				<path class="st36" d="M63.7,27.4L63.7,27.4c0-0.5,0.1-1.2,0.1-1.6c0-0.2,0.1-0.3,0.2-0.4c0,0,0,0,0.1,0c0,0,0.1,0,0.2,0
					c0,0,0.1,0,0.1,0c0,0,0.1,0,0.1-0.1c0-0.3-0.1-0.8-0.3-1c-0.1-0.1-0.2-0.2-0.4-0.2c0,0,0,0,0,0c-0.3,0-0.5,0.2-0.6,0.6
					c0,0.2,0.1,0.3,0.1,0.5c0,0.1-0.1,0.1-0.2,0.2c-0.1,0-0.1,0-0.2,0c-0.1-0.1-0.1-0.2-0.2-0.3c-0.1,0-0.1,0-0.2,0
					c-0.2,0-0.4,0.2-0.5,0.3c-0.1,0.2-0.2,0.5-0.1,0.8C62.2,26.7,63.2,27.4,63.7,27.4z"/>
				<linearGradient id="SVGID_38_" gradientUnits="userSpaceOnUse" x1="4.699325e-03" y1="39.6711" x2="97.0121" y2="39.6711">
					<stop  offset="0" style="stop-color:#DFDFDF"/>
					<stop  offset="2.097060e-02" style="stop-color:#E1E1E1"/>
					<stop  offset="0.2435" style="stop-color:#F2F2F2"/>
					<stop  offset="0.4872" style="stop-color:#FCFCFC"/>
					<stop  offset="0.7911" style="stop-color:#FFFFFF"/>
					<stop  offset="0.8415" style="stop-color:#FCFCFC"/>
					<stop  offset="0.8819" style="stop-color:#F2F2F2"/>
					<stop  offset="0.919" style="stop-color:#E1E1E1"/>
					<stop  offset="0.9537" style="stop-color:#C9C9C9"/>
					<stop  offset="0.966" style="stop-color:#BFBFBF"/>
					<stop  offset="1" style="stop-color:#FFFFFF"/>
				</linearGradient>
				<path class="st37" d="M25.6,39.9c-0.1,0-0.1,0.1-0.2,0.2c-0.1,0.3-0.2,0.4-0.3,0.4c-0.1,0-0.2-0.3-0.2-0.5
					c-0.1-0.7,0-1.4,0.1-1.9c0-0.3,0-0.4,0-0.4c0,0-0.1,0.1-0.2,0.2c-0.8,1.3-0.8,3.1-0.4,3.6c0.2,0.2,0.4,0.3,0.6,0.3
					c0.1,0,0.2,0,0.2,0c0.5-0.3,0.7-1.2,0.6-1.6C25.8,39.9,25.7,39.9,25.6,39.9z"/>
				<linearGradient id="SVGID_39_" gradientUnits="userSpaceOnUse" x1="5.437559e-03" y1="34.4754" x2="97.0107" y2="34.4754">
					<stop  offset="0" style="stop-color:#DFDFDF"/>
					<stop  offset="2.097060e-02" style="stop-color:#E1E1E1"/>
					<stop  offset="0.2435" style="stop-color:#F2F2F2"/>
					<stop  offset="0.4872" style="stop-color:#FCFCFC"/>
					<stop  offset="0.7911" style="stop-color:#FFFFFF"/>
					<stop  offset="0.8415" style="stop-color:#FCFCFC"/>
					<stop  offset="0.8819" style="stop-color:#F2F2F2"/>
					<stop  offset="0.919" style="stop-color:#E1E1E1"/>
					<stop  offset="0.9537" style="stop-color:#C9C9C9"/>
					<stop  offset="0.966" style="stop-color:#BFBFBF"/>
					<stop  offset="1" style="stop-color:#FFFFFF"/>
				</linearGradient>
				<path class="st38" d="M27.9,33c-1.3,0.1-3.2,2-3.2,2.9c1.4-0.8,2.7-1.5,4.1-2.3C28.6,33.3,28.7,33,27.9,33
					C27.9,33,27.9,33,27.9,33z"/>
				<linearGradient id="SVGID_40_" gradientUnits="userSpaceOnUse" x1="5.240149e-04" y1="30.8831" x2="97.0221" y2="30.8831">
					<stop  offset="0" style="stop-color:#DFDFDF"/>
					<stop  offset="2.097060e-02" style="stop-color:#E1E1E1"/>
					<stop  offset="0.2435" style="stop-color:#F2F2F2"/>
					<stop  offset="0.4872" style="stop-color:#FCFCFC"/>
					<stop  offset="0.7911" style="stop-color:#FFFFFF"/>
					<stop  offset="0.8415" style="stop-color:#FCFCFC"/>
					<stop  offset="0.8819" style="stop-color:#F2F2F2"/>
					<stop  offset="0.919" style="stop-color:#E1E1E1"/>
					<stop  offset="0.9537" style="stop-color:#C9C9C9"/>
					<stop  offset="0.966" style="stop-color:#BFBFBF"/>
					<stop  offset="1" style="stop-color:#FFFFFF"/>
				</linearGradient>
				<path class="st39" d="M25.6,32.1C25.6,32.1,25.6,32.1,25.6,32.1c1.5-0.1,0.7-2.7,1.3-3.2c0.1-0.1,0.1-0.2,0.2-0.2
					c0.1,0,0.1,0.1,0.1,0.2c0,0.8,0,1.6,0,2.4c0,0.8,0.5,0.9,0.9,1.1c0.1,0,0.2,0,0.3,0c0.3,0,0.4,0.1,0.6,0.3
					c0.1,1.4,0.1,2.7,0.2,4.1c0,0,0,0,0.1,0c0.2,0,0.9-0.2,0.9-2.4c0-1.5-0.3-2.7-0.1-3c0-0.2,0.2-0.3,0.3-0.3c0.1,0,0.2,0,0.3,0.1
					c0.3,0.2,0.5,0.5,0.9,0.4c0.1,0,0.2,0,0.3-0.1c1-0.4,1.5-0.9,1.6-1.6c-0.1-0.7-0.1-1.4-0.4-2.1c0-0.1-0.2-0.4-0.1-0.6
					c0.1,0.1,0.2,0.2,0.3,0.2c0.1,0,0.2-0.1,0.2-0.2c-0.2-0.5-0.4-1-0.8-1.2c-0.1-0.1-0.3-0.1-0.4-0.1c-0.3,0-0.5,0.2-0.6,0.6
					c-0.1,0.7,0.3,1.5,0.8,2.2c0.1,0.3,0.3,0.7,0.2,1.1c-0.1,0.1-0.2,0.1-0.3,0.1c-0.2,0-0.3-0.1-0.5-0.2c0,0-0.8-0.5-0.8-0.6
					c0.2-1.3,0-1.5-0.1-1.8c-0.1-0.5-0.3-0.6-0.5-0.9c-0.1-0.1-0.2-0.1-0.3-0.1c-0.1,0-0.2,0.1-0.3,0.2c-0.3,0.6-0.2,1.9,0.1,2.4
					c0.2,0.5,0.5,0.8,0.3,0.8c0,0.1-0.1,0.2-0.2,0.2c-0.1,0-0.2-0.1-0.3-0.3c-0.2-0.7-0.3-1.7-0.3-2.2c-0.1-0.6-0.1-1.8-0.5-2.1
					c-0.1-0.1-0.2-0.2-0.3-0.1c0,0,0,0-0.1,0c-0.1,0-0.3,0.2-0.4,0.3c0,0.6,0,1.2,0,1.7c0.3,0.9,0.4,1.7,0.5,2.7
					c0,0.5-0.1,0.7-0.3,0.7c-0.2,0-0.5-0.4-0.4-0.7c0.2-0.8,0.1-2.1,0-2.4c-0.1-0.2-0.2-0.3-0.4-0.3c-0.1,0-0.1,0-0.2,0
					c-0.2,0-0.9,0.8-1.1,1.9c0,0-0.1,0.6-0.2,1.1c0,0.3-0.2,0.6-0.3,0.6c-0.1,0-0.3-0.2-0.4-0.6c-0.2-0.7-0.3-2.3-0.7-2.3
					c0,0-0.1,0-0.1,0.1C24.4,29.3,24.3,32,25.6,32.1z"/>
				<linearGradient id="SVGID_41_" gradientUnits="userSpaceOnUse" x1="1.684219e-03" y1="32.9792" x2="97.0212" y2="32.9792">
					<stop  offset="0" style="stop-color:#DFDFDF"/>
					<stop  offset="2.097060e-02" style="stop-color:#E1E1E1"/>
					<stop  offset="0.2435" style="stop-color:#F2F2F2"/>
					<stop  offset="0.4872" style="stop-color:#FCFCFC"/>
					<stop  offset="0.7911" style="stop-color:#FFFFFF"/>
					<stop  offset="0.8415" style="stop-color:#FCFCFC"/>
					<stop  offset="0.8819" style="stop-color:#F2F2F2"/>
					<stop  offset="0.919" style="stop-color:#E1E1E1"/>
					<stop  offset="0.9537" style="stop-color:#C9C9C9"/>
					<stop  offset="0.966" style="stop-color:#BFBFBF"/>
					<stop  offset="1" style="stop-color:#FFFFFF"/>
				</linearGradient>
				<path class="st40" d="M35,37.2c0.6-1.9,0-3.2,0.2-3.4l0,0l0,0l0,0c0,0,0,0,0,0c0.2,0.2,0.5,0.3,0.7,0.3c0.5,0,1-0.4,1.2-0.6
					c0.1-0.1,0.2-0.2,0.3-0.2c0.1,0,0.1,0,0.2,0.1c0.2,0.1,0.4,0.1,0.6,0.1c0.5,0,0.9-0.3,1.1-0.8c0.1-0.7,0.2-1.4,0.2-2.1
					c-0.4,0.1-0.6,0.3-0.7,0.4c0,0,0,0.1,0,0.1c0,0.2-0.1,0.4-0.1,0.6c0,0,0,0,0,0c0,0,0,0-0.1,0.1c0,0-0.1,0-0.1,0
					c-0.1,0-0.2,0-0.2-0.2c-0.1-0.3-0.3-0.5-0.5-0.5c-0.3,0-0.6,0.3-0.8,1c-0.1,0.1-0.4,0.2-0.5,0.2c-0.2,0-0.3,0-0.3-0.2
					c0-0.5-0.1-0.7-0.3-0.7c-0.1,0-0.3,0.1-0.6,0.3c-0.2-1.5-0.4-3-0.6-4.5c0.1,0,0.1,0,0.2,0c0,0,0.1,0,0.1,0c0.1,0,0.2,0,0.4-0.2
					c-0.3-0.8-0.8-2.4-1.1-2.5h0c0,0,0,0,0,0c0,0,0,0,0,0c0,0,0,0,0,0c0,0,0,0,0,0c0,0-0.1,0-0.1,0c-0.1,0-0.2,0.1-0.3,0.1
					c-0.3,0.1-0.6,0.5-0.5,1c0.2,1.1,0.4,2.2,0.5,3.2c0.2,1,0.3,2.1,0.5,3.2c0.1,0.3-0.2,0.6-0.5,0.7c0,0,0,0,0,0
					c-0.5-0.3-0.6-0.9-1.4-0.9c0,0-0.1,0-0.1,0c-0.6,0.1-1.3,0.8-1.4,1.5c-0.1,0.5-0.1,1.1,0,1.6c0.3,0.3,0.5,0.4,0.8,0.3
					c0.2,0,0.4-0.1,0.6-0.1c0.4-0.2,0.6-0.5,0.8-0.5c0,0,0,0,0,0c0.1,0.1,0,1.4-1.8,2.5c-0.6,0.3-1.1,0.5-1.5,0.5
					c-0.4,0-0.8-0.1-1-0.6c-0.3-0.5,0-2.3-0.5-2.2c-0.1,0-0.1,0-0.2,0.1c-0.7,1.9-0.4,3.2,0.4,3.8c0.4,0.3,0.9,0.5,1.5,0.5
					c0.5,0,1.1-0.2,1.6-0.5c1.1-0.7,2.1-2.1,2.3-4.1c0-0.2,0.2-0.3,0.3-0.3c0,0,0,0,0,0c0,0,0.1,0.1,0.1,0.2
					c-0.1,2.7-1.5,4.4-2.9,5.1c-0.6,0.3-1.1,0.4-1.6,0.4c-0.9,0-1.6-0.2-1.9-0.7c-0.2-0.4-0.3-1.3-0.3-1.8c0-0.3-0.1-0.5-0.2-0.6
					c0,0-0.1,0-0.1,0c-0.2,0-0.4,0.4-0.5,1.1c-0.1,0.6-0.1,0.8-0.1,1.3c0.1,1.4,0.9,2.1,2,2.2c0.2,0,0.4,0,0.6,0
					c1-0.1,2.1-0.5,3.1-1.1C33.6,39.6,34.6,38.5,35,37.2z M32.3,33.8C32.3,33.8,32.3,33.8,32.3,33.8c-0.1,0.1-0.2,0.1-0.4,0.1
					c-0.2,0-0.2,0-0.3-0.1c0-0.1,0.1-0.3,0.2-0.4l0,0c0,0,0,0,0,0c0.1,0,0.1-0.1,0.2-0.1c0,0,0,0,0.1,0c0,0,0,0,0,0
					c0.1,0,0.2,0,0.3,0.2C32.5,33.5,32.4,33.7,32.3,33.8z"/>
				<linearGradient id="SVGID_42_" gradientUnits="userSpaceOnUse" x1="2.414632e-03" y1="27.3332" x2="97.0225" y2="27.3332">
					<stop  offset="0" style="stop-color:#DFDFDF"/>
					<stop  offset="2.097060e-02" style="stop-color:#E1E1E1"/>
					<stop  offset="0.2435" style="stop-color:#F2F2F2"/>
					<stop  offset="0.4872" style="stop-color:#FCFCFC"/>
					<stop  offset="0.7911" style="stop-color:#FFFFFF"/>
					<stop  offset="0.8415" style="stop-color:#FCFCFC"/>
					<stop  offset="0.8819" style="stop-color:#F2F2F2"/>
					<stop  offset="0.919" style="stop-color:#E1E1E1"/>
					<stop  offset="0.9537" style="stop-color:#C9C9C9"/>
					<stop  offset="0.966" style="stop-color:#BFBFBF"/>
					<stop  offset="1" style="stop-color:#FFFFFF"/>
				</linearGradient>
				<path class="st41" d="M71.9,22c0-0.2-0.2-0.8-0.1-0.9c0.1-0.2,0.4-0.1,0.6-0.3c0.2-0.2-0.9-1.5-1.3-2c-0.1-0.1-0.1-0.2-0.2-0.2
					c0,0,0,0,0,0c-0.1,0-0.1,0.1-0.2,0.3c-0.2,0.4-0.3,1.2-0.2,1.8c0.2,1.3,0.4,2.5,0.5,3.8c0.2,1.2,0.3,2.5,0.4,3.7
					c0.1,1.2,0.2,2.4,0.2,3.5c-0.1,0.3-0.1,0.5-0.2,1c-0.3,0.5-0.7,1.1-1.1,1.4c-0.4,0.3-1.1,0.7-1.4,0.9c-0.8,0.6-0.8,1.1-0.2,1
					c0,0,0,0,0,0c1.1-0.3,2.4-0.6,3.3-2.1c0.2-0.4,0.5-1.5,0.5-2.1c0-1.8,0-3.6-0.1-5.3C72.4,24.8,72.2,23.3,71.9,22z"/>
				<linearGradient id="SVGID_43_" gradientUnits="userSpaceOnUse" x1="-2.755258e-03" y1="26.1765" x2="97.0329" y2="26.1765">
					<stop  offset="0" style="stop-color:#DFDFDF"/>
					<stop  offset="2.097060e-02" style="stop-color:#E1E1E1"/>
					<stop  offset="0.2435" style="stop-color:#F2F2F2"/>
					<stop  offset="0.4872" style="stop-color:#FCFCFC"/>
					<stop  offset="0.7911" style="stop-color:#FFFFFF"/>
					<stop  offset="0.8415" style="stop-color:#FCFCFC"/>
					<stop  offset="0.8819" style="stop-color:#F2F2F2"/>
					<stop  offset="0.919" style="stop-color:#E1E1E1"/>
					<stop  offset="0.9537" style="stop-color:#C9C9C9"/>
					<stop  offset="0.966" style="stop-color:#BFBFBF"/>
					<stop  offset="1" style="stop-color:#FFFFFF"/>
				</linearGradient>
				<path class="st42" d="M26.1,26.4c0.1,0.2-0.1,0.9,0.1,0.9c0,0,0,0,0,0c0.2,0,0.4-0.5,0.4-1c0-0.3,0-1.2-0.6-1.3c0,0-0.1,0-0.1,0
					c-0.2,0-0.5,0.2-0.4,0.5C25.5,25.7,26,26.1,26.1,26.4z"/>
				<linearGradient id="SVGID_44_" gradientUnits="userSpaceOnUse" x1="-1.721616e-03" y1="34.9571" x2="97.0242" y2="34.9571">
					<stop  offset="0" style="stop-color:#DFDFDF"/>
					<stop  offset="2.097060e-02" style="stop-color:#E1E1E1"/>
					<stop  offset="0.2435" style="stop-color:#F2F2F2"/>
					<stop  offset="0.4872" style="stop-color:#FCFCFC"/>
					<stop  offset="0.7911" style="stop-color:#FFFFFF"/>
					<stop  offset="0.8415" style="stop-color:#FCFCFC"/>
					<stop  offset="0.8819" style="stop-color:#F2F2F2"/>
					<stop  offset="0.919" style="stop-color:#E1E1E1"/>
					<stop  offset="0.9537" style="stop-color:#C9C9C9"/>
					<stop  offset="0.966" style="stop-color:#BFBFBF"/>
					<stop  offset="1" style="stop-color:#FFFFFF"/>
				</linearGradient>
				<path class="st43" d="M68.6,34.8c0,0-0.1,0-0.2,0c0,0-0.1,0-0.1,0c0,0-0.1,0-0.1,0c0,0,0,0,0,0c-0.1,0-0.3,0-0.2-0.2
					c0.1-0.1,0.1-0.2,0.2-0.4c0.1-0.2,0-0.3-0.3-0.3c-0.1,0-0.1,0-0.2,0c0,0-0.1,0-0.1,0c-0.1,0-0.2,0.1-0.3,0.1
					C67,34.1,67,34.1,67,34.3c0,0.3,0.2,0.2,0.4,0.3c0.1,0.1,0.2,0.2,0,0.5c-0.2,0.2-0.3,0.3-0.5,0.5C66.8,35.8,66.7,36,67,36
					c0,0,0.1,0,0.1,0c0.5-0.1,1.4-0.8,1.4-0.8C68.7,35,68.6,34.8,68.6,34.8z"/>
				<linearGradient id="SVGID_45_" gradientUnits="userSpaceOnUse" x1="1.510990e-04" y1="52.4315" x2="97.0239" y2="52.4315">
					<stop  offset="0" style="stop-color:#DFDFDF"/>
					<stop  offset="2.097060e-02" style="stop-color:#E1E1E1"/>
					<stop  offset="0.2435" style="stop-color:#F2F2F2"/>
					<stop  offset="0.4872" style="stop-color:#FCFCFC"/>
					<stop  offset="0.7911" style="stop-color:#FFFFFF"/>
					<stop  offset="0.8415" style="stop-color:#FCFCFC"/>
					<stop  offset="0.8819" style="stop-color:#F2F2F2"/>
					<stop  offset="0.919" style="stop-color:#E1E1E1"/>
					<stop  offset="0.9537" style="stop-color:#C9C9C9"/>
					<stop  offset="0.966" style="stop-color:#BFBFBF"/>
					<stop  offset="1" style="stop-color:#FFFFFF"/>
				</linearGradient>
				<path class="st44" d="M65.4,49.7c-0.1,0-0.1,0-0.2,0c-0.3,0.1-1.2,0.3-1.2,0.3c-0.4,0-0.8,0.1-1.2,0.1c-0.5,0.1-1.1,0.1-1.8,0.2
					c0.1-0.1,0.3-0.7,0.1-0.9c-0.1,0-0.1,0-0.2,0c0,0,0,0-0.1,0l0,0l0,0l0,0c0,0,0,0,0,0l0,0c0-0.1-0.1-0.2-0.1-0.3l0,0v0l0,0l0,0
					c-0.8,0.3-0.7,1.1-0.2,1.4c-1.6,0.3-3.4,0.6-5.3,0.9c-1.9,0.3-3.8,0.6-5.6,0.8c-1.9,0.3-3.7,0.5-5.3,0.7
					c-1.6,0.2-3.1,0.4-4.3,0.5c-1.2,0.1-2.1,0.2-2.7,0.3c-0.7,0.1-2.3,0.2-3.7,0.3c-1.4,0.1-2.6,0.2-2.6,0.2
					c0.9,1.2,2.2,1.5,3.7,1.4c0.2,0,0.4,0,0.7-0.1c0.7-0.1,2-0.2,3.5-0.4c1.6-0.2,3.5-0.4,5.5-0.7c2-0.3,4.1-0.6,6.2-0.9
					c2.1-0.3,4-0.6,5.7-0.9c1.7-0.3,3.1-0.5,4.1-0.7c-0.3,0.7,0,1.6,0.3,1.7c0,0,0,0,0,0c0,0,0,0,0,0l0,0c0,0,0.1,0,0.1,0
					c0.3,0,0.4-0.2,0.5-0.4c0,0,0,0,0.1,0c0.7-0.1,3.3-0.5,3.6-0.6v0c0.2,0.2,0.3,0.4,0.6,0.4c0,0,0.1,0,0.1,0
					c0.6-0.2,1-0.4,1.1-1.6C66.6,51.4,66.5,49.6,65.4,49.7z M64.6,52C64.6,52,64.6,52,64.6,52C64.6,52,64.6,52,64.6,52L64.6,52
					c-0.4,0.1-0.7,0.1-1,0.2c0,0,0,0,0-0.1c0-0.1-0.2-0.1-0.4-0.1c-0.2,0-0.4,0.1-0.5,0.2c0,0,0,0,0,0l0,0c0,0,0,0,0,0c0,0,0,0,0,0
					c0,0,0,0,0,0c-0.2,0.1-0.5,0.1-0.7,0.1c-0.1,0-0.2,0-0.4,0c-0.1,0-0.3,0-0.4,0c-0.2-0.2-0.1-0.5,0-0.6c1.2-0.1,2.3-0.4,3.5-0.5
					C64.8,51.6,64.7,51.9,64.6,52z"/>
				<linearGradient id="SVGID_46_" gradientUnits="userSpaceOnUse" x1="2.490205e-03" y1="29.9922" x2="97.0214" y2="29.9922">
					<stop  offset="0" style="stop-color:#DFDFDF"/>
					<stop  offset="2.097060e-02" style="stop-color:#E1E1E1"/>
					<stop  offset="0.2435" style="stop-color:#F2F2F2"/>
					<stop  offset="0.4872" style="stop-color:#FCFCFC"/>
					<stop  offset="0.7911" style="stop-color:#FFFFFF"/>
					<stop  offset="0.8415" style="stop-color:#FCFCFC"/>
					<stop  offset="0.8819" style="stop-color:#F2F2F2"/>
					<stop  offset="0.919" style="stop-color:#E1E1E1"/>
					<stop  offset="0.9537" style="stop-color:#C9C9C9"/>
					<stop  offset="0.966" style="stop-color:#BFBFBF"/>
					<stop  offset="1" style="stop-color:#FFFFFF"/>
				</linearGradient>
				<path class="st45" d="M46.5,30.7c0.6,0,1.2-0.4,1-1c0-0.1,0-0.3,0-0.4c0-0.1-0.1-0.1-0.2-0.1c0,0,0,0-0.1,0
					c-0.1,0-0.2,0.1-0.2,0.2c0,0.1,0,0.2,0,0.3c0,0,0,0-0.1,0c-0.1,0-0.2,0-0.1-0.2c0-0.1-0.1-0.1-0.1-0.2c0,0-0.1,0-0.1,0
					c0,0-0.1,0.1-0.1,0.1c0,0.1,0,0.1,0,0.2c0,0-0.1,0.1-0.1,0.1c0,0-0.1,0-0.1,0c0,0,0-0.1-0.1-0.1c0-0.1,0-0.1,0-0.2
					c0,0-0.1,0-0.1,0c-0.3,0-0.3,0.4-0.3,0.5c0,0,0,0.6,0.4,0.7C46.1,30.7,46.3,30.8,46.5,30.7z"/>
				<linearGradient id="SVGID_47_" gradientUnits="userSpaceOnUse" x1="3.282080e-03" y1="25.3528" x2="97.0179" y2="25.3528">
					<stop  offset="0" style="stop-color:#DFDFDF"/>
					<stop  offset="2.097060e-02" style="stop-color:#E1E1E1"/>
					<stop  offset="0.2435" style="stop-color:#F2F2F2"/>
					<stop  offset="0.4872" style="stop-color:#FCFCFC"/>
					<stop  offset="0.7911" style="stop-color:#FFFFFF"/>
					<stop  offset="0.8415" style="stop-color:#FCFCFC"/>
					<stop  offset="0.8819" style="stop-color:#F2F2F2"/>
					<stop  offset="0.919" style="stop-color:#E1E1E1"/>
					<stop  offset="0.9537" style="stop-color:#C9C9C9"/>
					<stop  offset="0.966" style="stop-color:#BFBFBF"/>
					<stop  offset="1" style="stop-color:#FFFFFF"/>
				</linearGradient>
				<path class="st46" d="M30.4,26c0.1,0.1,0.3,0.1,0.5,0.1c0.5,0,1-0.3,1-0.9c0-0.1,0-0.3,0-0.4c0-0.1-0.1-0.1-0.2-0.1c0,0,0,0,0,0
					c-0.1,0-0.2,0.1-0.2,0.2c0,0.1,0,0.2,0,0.3c0,0,0,0-0.1,0c-0.1,0-0.2,0-0.1-0.2c0-0.1-0.1-0.1-0.1-0.2c0,0-0.1,0-0.1,0
					c0,0-0.1,0.1-0.1,0.1c0,0.1,0,0.1,0,0.2c0,0-0.1,0.1-0.1,0.1c0,0-0.1,0-0.1,0c0,0,0-0.1-0.1-0.1c0-0.1,0-0.1,0-0.2
					c0,0-0.1,0-0.1-0.1c-0.3,0-0.3,0.4-0.3,0.5C30,25.3,30,25.9,30.4,26z"/>
				<linearGradient id="SVGID_48_" gradientUnits="userSpaceOnUse" x1="8.548138e-03" y1="35.4653" x2="97.0113" y2="35.4653">
					<stop  offset="0" style="stop-color:#DFDFDF"/>
					<stop  offset="2.097060e-02" style="stop-color:#E1E1E1"/>
					<stop  offset="0.2435" style="stop-color:#F2F2F2"/>
					<stop  offset="0.4872" style="stop-color:#FCFCFC"/>
					<stop  offset="0.7911" style="stop-color:#FFFFFF"/>
					<stop  offset="0.8415" style="stop-color:#FCFCFC"/>
					<stop  offset="0.8819" style="stop-color:#F2F2F2"/>
					<stop  offset="0.919" style="stop-color:#E1E1E1"/>
					<stop  offset="0.9537" style="stop-color:#C9C9C9"/>
					<stop  offset="0.966" style="stop-color:#BFBFBF"/>
					<stop  offset="1" style="stop-color:#FFFFFF"/>
				</linearGradient>
				<path class="st47" d="M37.3,36.6C37.3,36.6,37.3,36.6,37.3,36.6c0.2,0,0.4-0.5,0.5-1c0-0.3-0.2-1.1-0.6-1.2c-0.1,0-0.1,0-0.2,0
					c-0.2,0-0.4,0.2-0.3,0.4c0,0.2,0.6,0.4,0.6,0.9C37.4,35.9,37.2,36.5,37.3,36.6z"/>
				<linearGradient id="SVGID_49_" gradientUnits="userSpaceOnUse" x1="-1.348507e-02" y1="23.8403" x2="97.0423" y2="23.8403">
					<stop  offset="0" style="stop-color:#DFDFDF"/>
					<stop  offset="2.097060e-02" style="stop-color:#E1E1E1"/>
					<stop  offset="0.2435" style="stop-color:#F2F2F2"/>
					<stop  offset="0.4872" style="stop-color:#FCFCFC"/>
					<stop  offset="0.7911" style="stop-color:#FFFFFF"/>
					<stop  offset="0.8415" style="stop-color:#FCFCFC"/>
					<stop  offset="0.8819" style="stop-color:#F2F2F2"/>
					<stop  offset="0.919" style="stop-color:#E1E1E1"/>
					<stop  offset="0.9537" style="stop-color:#C9C9C9"/>
					<stop  offset="0.966" style="stop-color:#BFBFBF"/>
					<stop  offset="1" style="stop-color:#FFFFFF"/>
				</linearGradient>
				<path class="st48" d="M41.1,24.7c0.1,0.1,0.1,0.1,0.2,0.1c0.1,0,0.2-0.1,0.4-0.2c0.2-0.2,0.2-0.2,0.3-0.5c0-0.1,0-0.1,0-0.1
					c0,0-0.1,0-0.1,0c0,0-0.1,0-0.1,0c-0.1,0-0.1,0-0.1-0.1c-0.1-0.3,0.2-0.5,0.5-0.9c0-0.2,0-0.3-0.1-0.3c-0.1,0-0.1,0-0.2,0.1
					c-0.2,0.2-0.7,0.7-0.7,1.3C41,24.6,40.9,24.6,41.1,24.7z"/>
				<linearGradient id="SVGID_50_" gradientUnits="userSpaceOnUse" x1="9.084573e-03" y1="23.657" x2="97.0142" y2="23.657">
					<stop  offset="0" style="stop-color:#DFDFDF"/>
					<stop  offset="2.097060e-02" style="stop-color:#E1E1E1"/>
					<stop  offset="0.2435" style="stop-color:#F2F2F2"/>
					<stop  offset="0.4872" style="stop-color:#FCFCFC"/>
					<stop  offset="0.7911" style="stop-color:#FFFFFF"/>
					<stop  offset="0.8415" style="stop-color:#FCFCFC"/>
					<stop  offset="0.8819" style="stop-color:#F2F2F2"/>
					<stop  offset="0.919" style="stop-color:#E1E1E1"/>
					<stop  offset="0.9537" style="stop-color:#C9C9C9"/>
					<stop  offset="0.966" style="stop-color:#BFBFBF"/>
					<stop  offset="1" style="stop-color:#FFFFFF"/>
				</linearGradient>
				<path class="st49" d="M44.6,24.8c0.1,0,0.3-0.1,0.4-0.3c0.3-0.9,0.3-1.2,0.3-1.6c0-0.2-0.2-0.4-0.3-0.3c0,0,0,0,0,0
					c-0.1,0-0.3,0.2-0.4,0.5c-0.1,0.2-0.2,1.4-0.2,1.4C44.3,24.7,44.4,24.8,44.6,24.8z"/>
				<linearGradient id="SVGID_51_" gradientUnits="userSpaceOnUse" x1="-4.423438e-03" y1="28.7849" x2="97.0315" y2="28.7849">
					<stop  offset="0" style="stop-color:#DFDFDF"/>
					<stop  offset="2.097060e-02" style="stop-color:#E1E1E1"/>
					<stop  offset="0.2435" style="stop-color:#F2F2F2"/>
					<stop  offset="0.4872" style="stop-color:#FCFCFC"/>
					<stop  offset="0.7911" style="stop-color:#FFFFFF"/>
					<stop  offset="0.8415" style="stop-color:#FCFCFC"/>
					<stop  offset="0.8819" style="stop-color:#F2F2F2"/>
					<stop  offset="0.919" style="stop-color:#E1E1E1"/>
					<stop  offset="0.9537" style="stop-color:#C9C9C9"/>
					<stop  offset="0.966" style="stop-color:#BFBFBF"/>
					<stop  offset="1" style="stop-color:#FFFFFF"/>
				</linearGradient>
				<path class="st50" d="M38.4,27.9c-0.1,0-0.2,0-0.3,0.1c-0.5,0.3-0.7,1.1-0.4,1.5c0.1,0.2,0.3,0.2,0.5,0.2c0.1,0,0.3-0.1,0.3-0.1
					c0,0,0,0,0,0c0.5,0,0.7-1,0.7-1s0-0.1-0.1-0.1c-0.1,0-0.2,0.1-0.5,0.4c0,0-0.1,0-0.1,0c-0.1,0-0.1-0.1-0.2-0.2
					c-0.1-0.2,0-0.5,0.1-0.7C38.6,28,38.5,27.9,38.4,27.9z"/>
				<linearGradient id="SVGID_52_" gradientUnits="userSpaceOnUse" x1="1.557390e-03" y1="25.7687" x2="97.0221" y2="25.7687">
					<stop  offset="0" style="stop-color:#DFDFDF"/>
					<stop  offset="2.097060e-02" style="stop-color:#E1E1E1"/>
					<stop  offset="0.2435" style="stop-color:#F2F2F2"/>
					<stop  offset="0.4872" style="stop-color:#FCFCFC"/>
					<stop  offset="0.7911" style="stop-color:#FFFFFF"/>
					<stop  offset="0.8415" style="stop-color:#FCFCFC"/>
					<stop  offset="0.8819" style="stop-color:#F2F2F2"/>
					<stop  offset="0.919" style="stop-color:#E1E1E1"/>
					<stop  offset="0.9537" style="stop-color:#C9C9C9"/>
					<stop  offset="0.966" style="stop-color:#BFBFBF"/>
					<stop  offset="1" style="stop-color:#FFFFFF"/>
				</linearGradient>
				<path class="st51" d="M41.3,29.2c0,0,0.1,0,0.1,0c0,0,0.1,0,0.1,0c0.5,0,0.9-1.2,1.1-2.4c0.1-0.2,0.2-0.4,0.3-0.4
					c0,0,0.1,0,0.1,0.1c0,1.7,0.1,2.1,0.6,2.5c0.3,0.2,0.6,0.3,0.9,0.2c0.6,0,0.9-0.4,1-0.5c0.3-0.3,0.5-0.6,0.8-0.9
					c0.1-0.1,0.2-0.2,0.3-0.2c0.1,0,0.2,0,0.3,0.1c0.2,0.2,0.2,0.6,0.7,0.7c0.1,0,0.2,0,0.3,0c0.4,0,1-0.3,1.2-0.6
					c0.3-0.5,0.4-0.7,0.5-0.9c0.1-0.2,0.2-0.2,0.4-0.2c0.1,0,0.2,0,0.2,0.1c0,0.2-0.2,0.3-0.1,0.6c0.1,0.1,0.2,0.1,0.2,0.1
					c0.1,0,0.1-0.1,0.2-0.1c0.5-0.3,0.9-1.5,0.9-1.5c0-0.3-0.1-0.3-0.2-0.3c-0.1,0-0.1,0-0.2,0.1c-0.2,0.1-0.2,0.2-0.4,0.3
					c-0.1,0-0.3,0.1-0.5,0.2c-0.2,0-0.3,0-0.4-0.2c-0.2-0.4-0.2-1-0.4-1.4c0,0-0.3-0.6,0-0.7c0.1,0,0.1,0,0.2,0
					c0.1,0,0.3-0.1,0.3-0.2c0.2-0.3-0.3-1-0.7-1.3c-0.1-0.1-0.3-0.2-0.5-0.2c-0.2,0-0.4,0.1-0.6,0.3c-0.3,0.3-0.2,0.6-0.3,0.8
					c-0.1,0.3-0.1,0.7,0.2,1c0.3,0.5,0.8,1.1,0.6,2.1c0,0-0.3,0.5-0.8,0.5c0,0,0,0,0,0c-0.2,0-0.6-0.1-0.7-1.4c-0.1-1,0-2.5-0.4-3.1
					c-0.1-0.2-0.2-0.4-0.3-0.4c0,0,0,0,0,0c-0.1,0-0.2,0.2-0.3,0.4c-0.1,0.3-0.5,0.8-0.2,1.6c0.3,0.5,0.4,1.4,0.2,2.4
					c-0.2,0.3-0.2,0.4-0.5,0.7c-0.2,0.2-0.4,0.3-0.6,0.3c-0.1,0-0.3,0-0.4-0.1c-0.3-0.1-0.5-0.2-0.6-0.7c0-0.9,0.1-2.3-0.1-2.6
					c-0.1-0.2-0.3-0.3-0.4-0.3c-0.2,0-0.3,0.1-0.4,0.2c-0.8,0.8-1.2,2.1-1.5,3.2c-0.1,0.4-0.2,0.5-0.3,0.5c-0.1,0-0.2-0.1-0.3-0.2
					c-0.4-0.3-0.4-2.9-0.8-2.8c0,0-0.1,0-0.1,0.1c-0.4,1.2-0.3,2.3,0,3.2C40.5,28.8,40.9,29.2,41.3,29.2z"/>
				<linearGradient id="SVGID_53_" gradientUnits="userSpaceOnUse" x1="-6.335018e-03" y1="26.1716" x2="97.0345" y2="26.1716">
					<stop  offset="0" style="stop-color:#DFDFDF"/>
					<stop  offset="2.097060e-02" style="stop-color:#E1E1E1"/>
					<stop  offset="0.2435" style="stop-color:#F2F2F2"/>
					<stop  offset="0.4872" style="stop-color:#FCFCFC"/>
					<stop  offset="0.7911" style="stop-color:#FFFFFF"/>
					<stop  offset="0.8415" style="stop-color:#FCFCFC"/>
					<stop  offset="0.8819" style="stop-color:#F2F2F2"/>
					<stop  offset="0.919" style="stop-color:#E1E1E1"/>
					<stop  offset="0.9537" style="stop-color:#C9C9C9"/>
					<stop  offset="0.966" style="stop-color:#BFBFBF"/>
					<stop  offset="1" style="stop-color:#FFFFFF"/>
				</linearGradient>
				<path class="st52" d="M35.6,28.5C35.6,28.5,35.6,28.5,35.6,28.5L35.6,28.5c0,0,0.1,0,0.3,0c0.4,0,1.1-0.1,1.2-0.2c0,0,0,0,0,0
					c0.4-0.2,2.5-2.8,2.5-2.8c-0.1-0.1-0.2-0.1-0.3-0.2c-0.1-0.1-0.1-0.2,0-0.3c0.5-0.4,0.4-1,0.1-1.2c-0.2-0.1-0.3-0.1-0.5-0.1
					c0,0-0.1,0-0.1,0c-0.2,0-0.4,0.1-0.5,0.2c-0.4,0.4-0.4,0.9-0.2,1.2c0.3,0.1,0.5,0.3,0.4,0.5C37.7,26.6,35.7,28.3,35.6,28.5
					C35.6,28.5,35.6,28.5,35.6,28.5C35.6,28.5,35.6,28.5,35.6,28.5L35.6,28.5C35.6,28.5,35.6,28.5,35.6,28.5z M38.6,24.5L38.6,24.5
					C38.7,24.5,38.7,24.5,38.6,24.5c0.2,0,0.3,0.1,0.4,0.2c0.1,0.2,0,0.3-0.1,0.4c0,0,0,0-0.1,0c-0.1,0-0.3-0.1-0.3-0.2
					C38.5,24.8,38.5,24.6,38.6,24.5z"/>
			</g>
		</g>
		<defs>
			<filter id="Adobe_OpacityMaskFilter" filterUnits="userSpaceOnUse" x="0" y="0" width="97" height="75.2">
				<feColorMatrix  type="matrix" values="1 0 0 0 0  0 1 0 0 0  0 0 1 0 0  0 0 0 1 0"/>
			</filter>
		</defs>
		<mask maskUnits="userSpaceOnUse" x="0" y="0" width="97" height="75.2" id="SVGID_54_">
			<g class="st53">
				<g>
					<linearGradient id="SVGID_55_" gradientUnits="userSpaceOnUse" x1="0" y1="37.598" x2="97.023" y2="37.598">
						<stop  offset="0" style="stop-color:#000000"/>
						<stop  offset="0.7911" style="stop-color:#FFFFFF"/>
						<stop  offset="0.8065" style="stop-color:#F8F8F8"/>
						<stop  offset="0.829" style="stop-color:#E4E4E4"/>
						<stop  offset="0.8559" style="stop-color:#C4C4C4"/>
						<stop  offset="0.8861" style="stop-color:#979797"/>
						<stop  offset="0.9192" style="stop-color:#5E5E5E"/>
						<stop  offset="0.9542" style="stop-color:#191919"/>
						<stop  offset="0.966" style="stop-color:#000000"/>
						<stop  offset="1" style="stop-color:#BFBFBF"/>
					</linearGradient>
					<path class="st54" d="M3.6,10.5L3.6,10.5c-2,0-3.6,1.6-3.6,3.6h0c0,19.1,0,38.3,0,57.4l0,0c0,2,1.6,3.6,3.6,3.6h0
						c47.5-0.4,93.5-16.1,93.4-8.4c0-21.6,0-43.1,0-64.7C97.1-5.6,51.2,10.2,3.6,10.5z"/>
				</g>
			</g>
		</mask>
		<g class="st55">
			<linearGradient id="SVGID_56_" gradientUnits="userSpaceOnUse" x1="0" y1="37.598" x2="97.023" y2="37.598">
				<stop  offset="0" style="stop-color:#404040"/>
				<stop  offset="0.7911" style="stop-color:#FFFFFF"/>
				<stop  offset="0.966" style="stop-color:#FFFFFF"/>
				<stop  offset="1" style="stop-color:#FFFFFF"/>
			</linearGradient>
			<path class="st56" d="M3.6,10.5L3.6,10.5c-2,0-3.6,1.6-3.6,3.6h0c0,19.1,0,38.3,0,57.4l0,0c0,2,1.6,3.6,3.6,3.6h0
				c47.5-0.4,93.5-16.1,93.4-8.4c0-21.6,0-43.1,0-64.7C97.1-5.6,51.2,10.2,3.6,10.5z"/>
		</g>
	</g>
</g>
</svg>
